<svg width="118" height="85" viewBox="0 0 118 85" fill="none" xmlns="http://www.w3.org/2000/svg">
  <path
    d="M7.99075 5.34848L6.64164 6.00415L7.99075 5.34848ZM6.62244 0.1065C5.83952 -0.164317 4.98531 0.250837 4.71451 1.03375L0.301458 13.7921C0.0306508 14.575 0.445804 15.4292 1.22872 15.7C2.01163 15.9708 2.86584 15.5557 3.13664 14.7728L7.05936 3.43202L18.4001 7.35472C19.183 7.62553 20.0372 7.21038 20.308 6.42747C20.5788 5.64456 20.1637 4.79034 19.3808 4.51954L6.62244 0.1065ZM9.33986 4.69281L7.48121 0.86842L4.78298 2.17975L6.64164 6.00415L9.33986 4.69281ZM117.207 81.9254C70.501 76.0873 29.9145 47.0275 9.33986 4.69281L6.64164 6.00415C27.66 49.2518 69.1217 78.9382 116.835 84.9022L117.207 81.9254Z"
    fill="black" />
</svg>
  