<svg width="12" height="44" viewBox="0 0 12 44" fill="none" xmlns="http://www.w3.org/2000/svg">
  <path
    d="M6.75 1C6.75 0.585786 6.41421 0.25 6 0.25C5.58579 0.25 5.25 0.585786 5.25 1L6.75 1ZM5.46967 17.5303C5.76256 17.8232 6.23744 17.8232 6.53033 17.5303L11.3033 12.7574C11.5962 12.4645 11.5962 11.9896 11.3033 11.6967C11.0104 11.4038 10.5355 11.4038 10.2426 11.6967L6 15.9393L1.75736 11.6967C1.46447 11.4038 0.989593 11.4038 0.6967 11.6967C0.403806 11.9896 0.403806 12.4645 0.6967 12.7574L5.46967 17.5303ZM5.25 1L5.25 17L6.75 17L6.75 1L5.25 1Z"
    fill="white" />
</svg>
  