<svg width="118" height="86" viewBox="0 0 118 86" fill="none" xmlns="http://www.w3.org/2000/svg">
  <path
    d="M110.029 80.4328L111.378 79.7771L110.029 80.4328ZM111.397 85.6748C112.18 85.9456 113.034 85.5304 113.305 84.7475L117.718 71.9892C117.989 71.2063 117.574 70.352 116.791 70.0812C116.008 69.8104 115.154 70.2256 114.883 71.0085L110.96 82.3492L99.6194 78.4265C98.8365 78.1557 97.9823 78.5709 97.7115 79.3538C97.4407 80.1367 97.8558 80.9909 98.6388 81.2617L111.397 85.6748ZM108.68 81.0884L110.538 84.9128L113.237 83.6015L111.378 79.7771L108.68 81.0884ZM0.812483 3.85588C47.5186 9.694 88.105 38.7538 108.68 81.0884L111.378 79.7771C90.3595 36.5295 48.8979 6.84306 1.18458 0.879049L0.812483 3.85588Z"
    fill="black" />
</svg>
  