<svg width="8" height="37" viewBox="0 0 8 37" fill="none" xmlns="http://www.w3.org/2000/svg">
  <path
    d="M3.47343 36.3347C3.2563 36.5083 2.96294 36.4602 2.8182 36.2272L0.459404 32.431C0.314656 32.198 0.37333 31.8684 0.590455 31.6948C0.807581 31.5212 1.10094 31.5693 1.24568 31.8022L3.34239 35.1767L6.48752 32.6617C6.70464 32.4881 6.998 32.5362 7.14275 32.7692C7.28749 33.0021 7.22882 33.3317 7.01169 33.5053L3.47343 36.3347ZM4.65575 27.799L4.19243 27.723L4.65575 27.799ZM2.74802 35.8369L4.19243 27.723L5.11907 27.875L3.67466 35.9888L2.74802 35.8369ZM4.19243 27.723C5.81974 18.5818 4.73498 9.25519 1.1043 1.17199L1.95402 0.662591C5.67512 8.94713 6.78691 18.506 5.11907 27.875L4.19243 27.723Z"
    fill="black" />
</svg>
  