<svg width="105" height="103" viewBox="0 0 105 103" fill="none" xmlns="http://www.w3.org/2000/svg">
  <path
    d="M5.81282 93.5262L6.20195 94.9748L5.81282 93.5262ZM0.40677 93.8801C-0.00700615 94.5978 0.239389 95.515 0.957087 95.9288L12.6526 102.671C13.3703 103.085 14.2876 102.839 14.7013 102.121C15.1151 101.403 14.8687 100.486 14.151 100.072L3.75497 94.079L9.74846 83.6829C10.1622 82.9652 9.91584 82.048 9.19814 81.6342C8.48045 81.2205 7.56321 81.4668 7.14945 82.1845L0.40677 93.8801ZM5.42369 92.0775L1.31714 93.1806L2.09541 96.0779L6.20195 94.9748L5.42369 92.0775ZM101.634 0.733706C87.0823 45.4973 50.8817 79.8666 5.42369 92.0775L6.20195 94.9748C52.6403 82.5006 89.6215 47.3901 104.487 1.66119L101.634 0.733706Z"
    fill="black" />
</svg>
  