<svg width="118" height="86" viewBox="0 0 118 86" fill="none" xmlns="http://www.w3.org/2000/svg">
  <path
    d="M7.99075 80.4328L6.64164 79.7771L7.99075 80.4328ZM6.62244 85.6748C5.83952 85.9456 4.98531 85.5304 4.71451 84.7475L0.301458 71.9892C0.0306508 71.2063 0.445804 70.352 1.22872 70.0812C2.01163 69.8104 2.86584 70.2256 3.13664 71.0085L7.05936 82.3492L18.4001 78.4265C19.183 78.1557 20.0372 78.5709 20.308 79.3538C20.5788 80.1367 20.1637 80.9909 19.3808 81.2617L6.62244 85.6748ZM9.33986 81.0884L7.48121 84.9128L4.78298 83.6015L6.64164 79.7771L9.33986 81.0884ZM117.207 3.85588C70.501 9.694 29.9145 38.7538 9.33986 81.0884L6.64164 79.7771C27.66 36.5295 69.1217 6.84306 116.835 0.879049L117.207 3.85588Z"
    fill="black" />
</svg>
  