<svg width="18" height="111" viewBox="0 0 18 111" fill="none" xmlns="http://www.w3.org/2000/svg">
  <path
    d="M5.15077 101.417L5.62944 101.556L5.15077 101.417ZM2.28769 109.753C2.41848 109.995 2.72156 110.084 2.96464 109.951L6.92579 107.782C7.16887 107.649 7.25989 107.345 7.1291 107.103C6.99831 106.861 6.69523 106.772 6.45215 106.905L2.93113 108.833L1.03656 105.326C0.905765 105.084 0.602683 104.996 0.359608 105.129C0.116532 105.262 0.0255081 105.566 0.1563 105.808L2.28769 109.753ZM4.67209 101.277L2.24914 109.373L3.20649 109.652L5.62944 101.556L4.67209 101.277ZM16.3246 0.090349C18.4424 34.1899 14.4972 68.4493 4.67209 101.277L5.62944 101.556C15.4885 68.6149 19.4474 34.2369 17.3222 0.0193667L16.3246 0.090349Z"
    fill="black" />
</svg>
  