<svg width="16" height="163" viewBox="0 0 16 163" fill="none" xmlns="http://www.w3.org/2000/svg">
  <path
    d="M6.2623 149.81L6.7477 149.929L6.2623 149.81ZM2.82162 162.258C2.96434 162.495 3.27167 162.571 3.50808 162.428L7.36052 160.102C7.59693 159.96 7.67288 159.652 7.53017 159.416C7.38746 159.18 7.08012 159.104 6.84371 159.246L3.41932 161.314L1.35207 157.889C1.20936 157.653 0.90202 157.577 0.665616 157.719C0.42921 157.862 0.353257 158.17 0.495971 158.406L2.82162 162.258ZM5.77691 149.69L2.76428 161.88L3.73507 162.12L6.7477 149.929L5.77691 149.69ZM2.76954 1.1395C16.8287 49.5285 17.8661 100.771 5.77691 149.69L6.7477 149.929C18.8791 100.84 17.8381 49.4185 3.72982 0.860496L2.76954 1.1395Z"
    fill="black" />
</svg>
  