<svg width="21" height="105" viewBox="0 0 21 105" fill="none" xmlns="http://www.w3.org/2000/svg">
  <path
    d="M4.84268 97.2186L4.35822 97.3463L4.84268 97.2186ZM7.00459 104.263C6.86354 104.501 6.55679 104.582 6.31944 104.443L2.45163 102.179C2.21428 102.04 2.13622 101.734 2.27726 101.495C2.41831 101.256 2.72506 101.176 2.9624 101.315L6.40046 103.327L8.44355 99.8698C8.5846 99.6311 8.89135 99.5503 9.12869 99.6892C9.36604 99.8282 9.44411 100.134 9.30306 100.373L7.00459 104.263ZM5.32715 97.0909L7.0593 103.883L6.09036 104.139L4.35822 97.3463L5.32715 97.0909ZM20.9968 0.561965C2.62926 29.2897 -3.04652 64.2539 5.32715 97.0909L4.35822 97.3463C-4.0839 64.241 1.63827 28.991 20.156 0.0284631L20.9968 0.561965Z"
    fill="black" />
</svg>
  