<svg width="9" height="53" viewBox="0 0 9 53" fill="none" xmlns="http://www.w3.org/2000/svg">
  <path
    d="M4.0593 6.74837L3.57962 6.60728L4.0593 6.74837ZM4.0593 46.2516L3.57962 46.3927L4.0593 46.2516ZM5.51057 52.4389C5.753 52.5712 6.05671 52.4818 6.18895 52.2394L8.34378 48.2889C8.47601 48.0465 8.38668 47.7428 8.14426 47.6105C7.90183 47.4783 7.59812 47.5676 7.46588 47.81L5.55048 51.3216L2.03889 49.4062C1.79647 49.274 1.49275 49.3633 1.36052 49.6057C1.22829 49.8482 1.31762 50.1519 1.56004 50.2841L5.51057 52.4389ZM5.27032 0.858917L3.57962 6.60728L4.53899 6.88945L6.22968 1.14108L5.27032 0.858917ZM3.57962 46.3927L5.27032 52.1411L6.22968 51.8589L4.53899 46.1106L3.57962 46.3927ZM3.57962 6.60728C-0.240021 19.5941 -0.240021 33.4059 3.57962 46.3927L4.53899 46.1106C0.773524 33.308 0.773524 19.692 4.53899 6.88945L3.57962 6.60728Z"
    fill="black" />
</svg>
  