<svg width="60" height="20" viewBox="0 0 60 20" fill="none" xmlns="http://www.w3.org/2000/svg">
  <path
    d="M5.42574 4.78174C5.42574 4.87997 5.3824 4.91176 5.28125 4.92909C5.28196 4.89073 5.29732 4.85409 5.32419 4.82669C5.35106 4.79929 5.38739 4.78321 5.42574 4.78174Z"
    fill="black" />
  <path d="M13.2898 15.9722L13.232 16.0329H13.2031V15.9404H13.284L13.2898 15.9722Z" fill="black" />
  <path
    d="M10.0019 0C8.02395 3.30182e-07 6.09042 0.586338 4.44574 1.68489C2.80106 2.78343 1.51909 4.34486 0.761905 6.17177C0.00471663 7.99867 -0.193691 10.009 0.191766 11.9487C0.577222 13.8883 1.52924 15.6701 2.92745 17.0688C4.32566 18.4676 6.10728 19.4204 8.04708 19.8069C9.98687 20.1934 11.9977 19.9962 13.8254 19.2403C15.6531 18.4843 17.2156 17.2035 18.3153 15.5597C19.4151 13.916 20.0026 11.9832 20.0038 10.0057C20.0045 8.69198 19.7464 7.39102 19.2441 6.1771C18.7418 4.96319 18.0052 3.86013 17.0763 2.93094C16.1475 2.00176 15.0446 1.26465 13.8308 0.761749C12.6169 0.258846 11.3158 -2.19341e-07 10.0019 0ZM9.92097 16.784C8.58155 16.7686 7.27662 16.3574 6.17048 15.602C5.06433 14.8467 4.20641 13.7811 3.70474 12.5393C3.20306 11.2976 3.08005 9.93515 3.35119 8.62363C3.62234 7.31211 4.27551 6.11011 5.22849 5.16895C6.18146 4.2278 7.39163 3.58956 8.70665 3.3346C10.0217 3.07964 11.3827 3.21934 12.6185 3.73613C13.8543 4.25292 14.9095 5.12368 15.6513 6.2388C16.3931 7.35392 16.7884 8.66354 16.7873 10.0028C16.787 10.9003 16.6086 11.7888 16.2624 12.6169C15.9161 13.4449 15.409 14.1961 14.7704 14.8268C14.1317 15.4575 13.3743 15.9553 12.5418 16.2913C11.7094 16.6272 10.8186 16.7947 9.92097 16.784Z"
    fill="black" />
  <path
    d="M7.0244 3.1554C6.95775 3.11112 6.9641 3.08264 7.05297 3.03203V3.1554C7.07381 3.16294 7.09594 3.1663 7.11808 3.16529C7.14022 3.16428 7.16195 3.15892 7.18201 3.14951C7.20207 3.1401 7.22006 3.12684 7.23496 3.11048C7.24985 3.09411 7.26136 3.07498 7.26881 3.05417H7.20533C7.20533 2.94029 7.3196 3.00672 7.37039 2.95294V3.0605C7.43387 3.07948 7.45609 3.0605 7.45926 2.9909C7.46244 2.9213 7.45926 2.89283 7.54179 2.896L7.5164 3.03519H7.55131C7.55131 2.98774 7.5767 2.94029 7.59258 2.89283C7.59732 2.87079 7.60749 2.85026 7.62216 2.83311C7.63684 2.81595 7.65556 2.8027 7.67665 2.79454C7.69774 2.78639 7.72053 2.78358 7.74298 2.78638C7.76543 2.78918 7.78682 2.7975 7.80524 2.81058L8.0687 2.70302C8.0687 2.76629 8.0687 2.80425 8.02109 2.83273C7.99311 2.85945 7.96954 2.89042 7.95125 2.92447L7.92904 2.89283C7.92 2.92407 7.91259 2.95575 7.90682 2.98774C7.90375 3.0351 7.88328 3.07967 7.84931 3.11293C7.81535 3.1462 7.77028 3.16582 7.72272 3.16806C7.69727 3.17025 7.67288 3.1792 7.65209 3.19398C7.6313 3.20875 7.61486 3.22881 7.60449 3.25207C7.59412 3.27533 7.59019 3.30093 7.59312 3.32622C7.59605 3.3515 7.60573 3.37554 7.62114 3.39583L7.65923 3.30409C7.70367 3.33256 7.73224 3.31991 7.75128 3.26929C7.75806 3.25884 7.76753 3.2504 7.77869 3.24484C7.78986 3.23927 7.80231 3.23679 7.81477 3.23766C7.835 3.24895 7.85735 3.25595 7.88043 3.25822C7.9035 3.26049 7.9268 3.25798 7.94886 3.25085C7.97091 3.24372 7.99125 3.23212 8.0086 3.21679C8.02594 3.20145 8.03992 3.18271 8.04965 3.16173C8.04965 3.13959 8.07505 3.11112 8.09409 3.06999L7.91634 3.03203C7.87507 2.95294 7.99569 2.95927 8.02109 2.90232V3.01305C8.09658 2.91641 8.14578 2.802 8.16392 2.68088C8.3512 2.64608 8.52577 2.61128 8.70035 2.58281C8.74792 2.57977 8.79563 2.57977 8.84319 2.58281C8.9096 2.5646 8.97764 2.55295 9.04634 2.54801C9.16695 2.54801 9.28757 2.54801 9.41136 2.54801C9.57341 2.55217 9.73557 2.54689 9.89701 2.53219C9.89701 2.64608 9.93192 2.66506 10.0145 2.61761L9.95097 2.54801V2.52587C10.0423 2.52944 10.1335 2.53789 10.2239 2.55117C10.243 2.55117 10.2589 2.5923 10.2811 2.61761C10.3287 2.51954 10.4271 2.57964 10.5033 2.57015C10.5794 2.56066 10.5953 2.57015 10.6017 2.49739C10.6047 2.47762 10.6149 2.45963 10.6302 2.44678C10.6525 2.58914 10.6556 2.58281 10.8048 2.60812C11.0048 2.64608 11.2048 2.6967 11.4047 2.73466C11.4543 2.74084 11.5044 2.74084 11.5539 2.73466C11.5925 2.72514 11.6328 2.72514 11.6714 2.73466C11.856 2.79071 12.0338 2.86711 12.2014 2.96243C12.245 2.99826 12.2974 3.02185 12.3532 3.03075C12.409 3.03964 12.4662 3.03353 12.5189 3.01305L12.5411 3.12377L12.6014 3.04468C12.7188 3.11112 12.8331 3.18071 12.9537 3.23766C13.0743 3.2946 13.1791 3.3294 13.2933 3.37369C13.3251 3.37369 13.3632 3.39583 13.3949 3.41165L14.0107 3.728C14.0616 3.75187 14.1096 3.7816 14.1535 3.81658C14.5059 4.04761 14.8363 4.31022 15.1407 4.60113C15.2391 4.71502 15.3724 4.79727 15.4772 4.91748C15.5819 5.0377 15.7597 5.23384 15.8993 5.37619C15.9656 5.45207 16.0202 5.53737 16.0612 5.62927C16.0866 5.68305 16.1501 5.71469 16.204 5.76531V5.88236L16.2802 5.83807L16.3596 6.01206C16.3796 6.02557 16.3968 6.04275 16.4104 6.06268C16.5341 6.3031 16.6516 6.54353 16.7786 6.78079C16.8048 6.81376 16.8228 6.85246 16.831 6.89371C16.8393 6.93496 16.8376 6.97758 16.8262 7.01806C16.8071 7.075 16.9087 7.21736 16.9658 7.249C16.9937 7.26321 17.0169 7.28519 17.0325 7.31227C17.1194 7.49539 17.1926 7.68466 17.2515 7.87854C17.3191 8.04594 17.3432 8.22769 17.3213 8.40684L17.3689 8.3499C17.3689 8.55236 17.48 8.72952 17.4134 8.9225C17.4088 8.9369 17.4088 8.95238 17.4134 8.96678C17.4336 9.00651 17.4505 9.04776 17.4642 9.09016C17.5779 9.65862 17.5854 10.2431 17.4864 10.8143C17.4578 10.9819 17.4324 11.1559 17.4134 11.3268C17.3889 11.5602 17.3486 11.7916 17.2928 12.0196C17.2325 12.2379 17.1499 12.4498 17.0769 12.6523H17.0484C17.0484 12.608 17.0642 12.5669 17.0769 12.5257C17.1341 12.3169 17.1912 12.1082 17.2452 11.893C17.25 11.8754 17.25 11.8569 17.2452 11.8393C17.2452 11.7918 17.2071 11.7444 17.188 11.7001L17.1341 11.7697H17.1118C17.1499 11.6083 17.1848 11.4533 17.2229 11.2825C17.242 11.2034 17.2229 11.1116 17.2832 11.0452C17.2325 10.9756 17.3055 10.9313 17.315 10.8744C17.3245 10.8174 17.315 10.789 17.315 10.7478C17.315 10.6466 17.315 10.5422 17.315 10.4315C17.315 10.4062 17.315 10.3809 17.315 10.3398C17.2825 10.3709 17.2576 10.409 17.2422 10.4513C17.2268 10.4935 17.2213 10.5387 17.2261 10.5833C17.2295 10.7245 17.1991 10.8644 17.1372 10.9914C17.115 11.0768 17.0864 11.1559 17.0706 11.2414C17.0547 11.3268 17.0452 11.428 17.0261 11.5197C16.9658 11.4533 17.0896 11.3616 16.9817 11.3015C17.0865 11.2129 17.0357 11.0895 17.0738 10.9851H17.0484C17.0484 11.0136 17.0198 11.0421 17.0103 11.0705C16.915 11.4407 16.8262 11.8139 16.7246 12.1809C16.6706 12.3739 16.5913 12.5605 16.5246 12.7504C16.4802 12.8737 16.4389 13.0003 16.4008 13.1236C16.4008 13.1616 16.3659 13.1932 16.4008 13.2439C16.4357 13.2945 16.3786 13.3546 16.3532 13.4084C16.2993 13.5191 16.239 13.6235 16.1818 13.7247H16.1628L16.2263 13.4938H16.2104L16.1628 13.5824H16.1025C16.0935 13.6612 16.0754 13.7386 16.0485 13.8133C16.0136 13.8829 15.9755 13.9525 15.9374 14.0221C15.8993 14.0917 15.8739 14.1708 15.7755 14.1866C15.7755 14.1012 15.7755 14.0158 15.8644 13.9778C15.8706 13.98 15.8773 13.98 15.8834 13.9778C15.9279 13.8829 15.9755 13.7911 16.0199 13.6962L16.0707 13.5918C16.0841 13.5623 16.0947 13.5316 16.1025 13.5001C16.1097 13.4418 16.1236 13.3845 16.1437 13.3293L16.2167 13.4179C16.4824 12.7815 16.6793 12.1186 16.804 11.4407H16.7849L16.531 12.4751H16.4865V12.4403H16.4643C16.2035 13.2367 15.8442 13.9976 15.3946 14.7054L15.474 14.5504C15.4549 14.5725 15.4327 14.5915 15.4168 14.6137C15.362 14.6949 15.3026 14.773 15.2391 14.8478C15.1566 14.9395 15.0613 15.0218 14.9693 15.1072C14.8772 15.1926 14.7566 15.3001 14.6519 15.3887C14.4519 15.5406 14.2424 15.6861 14.0393 15.8316L14.017 15.8063L14.0869 15.7494C14.3091 15.569 14.5471 15.4045 14.7535 15.2052C15.009 14.9383 15.2288 14.6395 15.4073 14.3163C15.6265 13.9832 15.8075 13.6267 15.9469 13.2533C15.9628 13.2122 16.0072 13.1806 16.0263 13.1395C16.0453 13.0983 16.0675 13.0129 16.0898 12.9497H16.0644C16.0104 13.0446 15.9501 13.1395 15.9025 13.2407C15.8708 13.3201 15.8443 13.4015 15.8231 13.4843V13.5128C15.7184 13.6646 15.6136 13.8291 15.5057 13.9683C15.547 13.8766 15.5819 13.7817 15.6263 13.6931C15.6708 13.6045 15.7279 13.5096 15.7692 13.4115C15.8898 13.13 16.0041 12.8453 16.1183 12.5637C16.1183 12.5352 16.1183 12.4973 16.1183 12.4656C16.1152 12.4341 16.1152 12.4023 16.1183 12.3707C16.1945 12.0892 16.277 11.8108 16.3437 11.5292C16.3754 11.39 16.3723 11.2445 16.3913 11.1022C16.3913 11.0104 16.4199 10.9187 16.4358 10.8143L16.3723 10.8333C16.3695 10.6877 16.3833 10.5423 16.4135 10.3999C16.4564 10.1072 16.4564 9.80989 16.4135 9.51724C16.4135 9.34957 16.4135 9.17874 16.3913 9.00791C16.3859 8.95787 16.3775 8.90822 16.3659 8.85923C16.3437 8.75483 16.3247 8.65043 16.2993 8.54287C16.2516 8.33092 16.204 8.1158 16.1501 7.91017C16.1342 7.86791 16.1117 7.82841 16.0834 7.79312H16.058C16.0802 7.92282 16.0993 8.05253 16.1279 8.18223C16.1564 8.31194 16.2136 8.45746 16.239 8.59982C16.3146 9.08416 16.3412 9.57487 16.3183 10.0645C16.292 10.8376 16.1486 11.6024 15.893 12.3328C15.8715 12.4026 15.8439 12.4703 15.8104 12.5352L15.8803 12.2189L15.7597 12.5352C15.9131 12.0272 16.0194 11.5062 16.0771 10.9788C16.058 11.0642 16.0453 11.1338 16.0263 11.2002C15.8517 11.7222 15.712 12.2695 15.5343 12.801C15.4619 12.9816 15.3771 13.1571 15.2804 13.3261C15.2769 13.3331 15.2721 13.3392 15.266 13.3442C15.26 13.3491 15.253 13.3526 15.2454 13.3546C15.256 13.337 15.2677 13.3201 15.2804 13.304C15.4357 13.0229 15.5541 12.7231 15.6327 12.4119C15.7089 12.1113 15.8041 11.8139 15.8866 11.5166C15.9288 11.3769 15.9596 11.2341 15.9787 11.0895C16.0295 10.5422 16.0739 9.99176 16.1152 9.44131C16.1152 9.39386 16.0802 9.34324 16.0802 9.29579C16.0802 9.24834 16.1183 9.20405 16.1183 9.15976C16.1109 9.05322 16.095 8.94744 16.0707 8.84341V9.00475C16.0199 8.72319 15.9691 8.41001 15.9025 8.09998C15.8687 7.93214 15.8187 7.76794 15.7533 7.60964C15.5873 7.18633 15.3629 6.78813 15.0867 6.42648C14.8963 6.19554 14.7154 5.95512 14.5281 5.71785C14.5089 5.69087 14.4853 5.66734 14.4583 5.64826C14.2583 5.49957 14.0583 5.34772 13.852 5.2022C13.7123 5.10729 13.5695 5.02188 13.4235 4.93646C13.3684 4.91022 13.311 4.88904 13.2521 4.87319C13.2521 4.87319 13.2172 4.87319 13.2108 4.85421C13.1473 4.76247 13.0426 4.74349 12.9505 4.6992C12.8585 4.65491 12.7982 4.6296 12.7188 4.5948C12.3669 4.4394 11.9952 4.33295 11.6142 4.27845C11.4305 4.252 11.2491 4.21182 11.0714 4.15824L11.3508 4.1361C10.6926 3.98112 10.0059 3.99418 9.35423 4.17406C9.42406 4.08864 9.42406 4.08864 9.70973 4.00639C9.40076 3.99034 9.09155 4.03329 8.79875 4.13293L8.8178 4.07599L8.67179 4.1266C8.44325 4.20569 8.21471 4.27845 7.98934 4.36387C7.60627 4.48074 7.23274 4.62669 6.87204 4.80043C6.68477 4.90799 6.48797 4.99974 6.31022 5.11679C5.90571 5.39984 5.54344 5.73853 5.23418 6.12278C4.77623 6.7021 4.46095 7.38038 4.31368 8.10314C4.21993 8.42909 4.16245 8.76433 4.14228 9.10282C4.11791 9.58479 4.1413 10.068 4.21211 10.5454C4.24403 10.7917 4.29605 11.0351 4.36764 11.273C4.5327 11.7317 4.72632 12.1778 4.90725 12.627C4.91043 12.6373 4.91043 12.6483 4.90725 12.6586C4.67941 12.2356 4.49031 11.7931 4.34225 11.3363C4.34225 11.3837 4.36447 11.4312 4.37399 11.4786C4.38351 11.5261 4.40256 11.5704 4.41843 11.6178L4.46922 11.7633C4.65659 12.286 4.8925 12.7902 5.17388 13.2692C5.43525 13.6855 5.75603 14.0617 6.12612 14.3859C6.37592 14.5962 6.65101 14.7747 6.94505 14.9174C7.04027 14.968 7.12598 15.0312 7.21803 15.0882L7.24977 15.1103C7.45609 15.2021 7.65606 15.3001 7.86238 15.3856C7.92904 15.414 8.00204 15.414 8.07187 15.4362C8.1417 15.4583 8.30041 15.5184 8.41785 15.5437C8.61456 15.5916 8.81378 15.6286 9.01459 15.6545C9.27487 15.6829 9.53515 15.6987 9.79543 15.7051C9.9592 15.7143 10.1235 15.7026 10.2843 15.6703C10.4557 15.626 10.6302 15.6292 10.7985 15.6007C10.9799 15.5761 11.1534 15.5113 11.3063 15.4109C11.3634 15.3802 11.4259 15.3609 11.4904 15.3539L11.9507 15.2748C12.005 15.2729 12.059 15.2829 12.109 15.3043C12.1589 15.3256 12.2035 15.3577 12.2395 15.3982C12.2594 15.4173 12.2846 15.4299 12.3118 15.4344C12.339 15.4389 12.3669 15.4351 12.3919 15.4235C12.4263 15.4154 12.4622 15.4154 12.4966 15.4235L12.2427 15.626L12.4332 15.5912L12.2364 15.7937H12.3919C12.327 15.8332 12.2645 15.8765 12.2046 15.9234C12.1687 15.9505 12.1421 15.9881 12.1284 16.0309C12.1001 16.1257 12.0821 16.2233 12.0745 16.322L12.1951 16.2334C12.1986 16.2632 12.1961 16.2933 12.1877 16.3221C12.1794 16.3509 12.1653 16.3777 12.1464 16.401C12.1274 16.4243 12.104 16.4436 12.0775 16.4577C12.051 16.4719 12.0219 16.4805 11.9919 16.4833C12.0745 16.6794 11.9507 16.7997 11.8332 16.9673L11.9983 16.9895C11.9634 17.0179 11.9412 17.0496 11.9126 17.0686C11.7793 17.1606 11.6311 17.2291 11.4746 17.271C11.3825 17.2963 11.2968 17.3501 11.2048 17.3817C10.7838 17.5117 10.3436 17.5685 9.90335 17.5494C9.68434 17.5494 9.46215 17.5494 9.24313 17.5494C8.92713 17.5321 8.61355 17.4845 8.30676 17.407C8.07661 17.3692 7.84877 17.3185 7.62432 17.2552C7.3323 17.1666 7.0498 17.0559 6.76095 16.9388C6.64985 16.8977 6.53558 16.8566 6.42449 16.8091C6.39245 16.8019 6.36069 16.7934 6.32927 16.7838C6.28483 16.7554 6.23722 16.7332 6.1896 16.7079L6.14834 16.6763C6.11342 16.6541 6.07851 16.6098 6.04677 16.613C6.01503 16.6162 5.94519 16.5687 5.89758 16.5339C5.78331 16.4485 5.65952 16.3726 5.54843 16.2808C5.31354 16.0847 5.0723 15.8949 4.85646 15.6798C4.64062 15.4646 4.38351 15.1609 4.15497 14.8857C4.03955 14.7608 3.93346 14.6275 3.83756 14.4871C3.67568 14.2277 3.52015 13.9557 3.37731 13.6899C3.33922 13.6235 3.30748 13.5507 3.26939 13.4843C3.2313 13.4179 3.16464 13.3229 3.26939 13.2249C3.09798 13.2249 3.11703 13.0888 3.06624 13.0066C3.09481 12.9655 3.16464 12.9402 3.10751 12.8801C3.05037 12.8199 3.06624 12.8611 3.02498 12.8421L2.92658 12.6934C2.92447 12.6338 2.91704 12.5745 2.90436 12.5162C2.8504 12.3296 2.79327 12.1461 2.73296 11.9595H2.7647C2.7647 11.9974 2.79327 12.0386 2.80596 12.0797C2.81866 12.1208 2.82818 12.1651 2.84405 12.2031C2.85992 12.241 2.88532 12.2853 2.90436 12.3264H2.92658C2.90436 12.2537 2.88532 12.1809 2.86627 12.105C2.84723 12.0291 2.79327 11.8582 2.75518 11.7349C2.75518 11.7032 2.75518 11.6494 2.69169 11.6526C2.69169 11.6526 2.66947 11.621 2.6663 11.602C2.6663 11.5261 2.63773 11.4501 2.62504 11.3742C2.61234 11.2983 2.62504 11.2477 2.52346 11.2603C2.52346 11.1939 2.5679 11.1306 2.50124 11.0768C2.50124 11.0768 2.50124 11.0294 2.52346 11.0041C2.54568 10.9788 2.56155 10.944 2.55838 10.9187C2.56238 10.7851 2.54083 10.652 2.4949 10.5264C2.47374 10.4579 2.46725 10.3856 2.47585 10.3144C2.41855 9.66424 2.45382 9.00923 2.5806 8.36888C2.65043 8.05253 2.74248 7.73618 2.82501 7.43881C2.83249 7.40481 2.85021 7.37391 2.87579 7.35023L2.90436 7.57167H2.9361C2.93927 7.52111 2.93927 7.47039 2.9361 7.41983C2.90195 7.29435 2.91788 7.16056 2.98054 7.04653C3.07933 6.86727 3.15708 6.67726 3.21225 6.48026V6.46128C3.31383 6.42964 3.30113 6.32209 3.34874 6.24932C3.36853 6.29657 3.37366 6.34865 3.36348 6.39883C3.3533 6.44901 3.32826 6.49501 3.29161 6.53088C3.26938 6.54629 3.25357 6.56926 3.24714 6.59548C3.24071 6.62169 3.2441 6.64934 3.25669 6.67324C3.39754 6.52485 3.4866 6.33513 3.51062 6.13227L3.46301 6.27463C3.44217 6.24618 3.4294 6.21266 3.42605 6.17759C3.4227 6.14252 3.42889 6.10719 3.44397 6.07533C3.5512 5.83303 3.70178 5.61221 3.88835 5.42365C3.90121 5.41062 3.91625 5.39992 3.93278 5.39201C3.93584 5.41723 3.93584 5.44272 3.93278 5.46794C3.87565 5.56284 3.81852 5.65458 3.75503 5.74316C3.7331 5.76584 3.71862 5.79463 3.71351 5.82572C3.70841 5.8568 3.71293 5.88869 3.72646 5.91715C3.74551 5.88868 3.76455 5.8697 3.77725 5.84756C3.87882 5.70836 3.97722 5.566 4.07562 5.42681C4.10101 5.38885 4.13593 5.35405 4.07562 5.30976L4.01849 5.38568C4.00993 5.37919 4.003 5.37082 3.99823 5.36121C3.99346 5.35161 3.99097 5.34104 3.99097 5.33032C3.99097 5.31961 3.99346 5.30904 3.99823 5.29943C4.003 5.28983 4.00993 5.28146 4.01849 5.27496C4.12958 5.15791 4.24068 5.04086 4.3359 4.92065C4.38034 4.87003 4.41843 4.81625 4.46287 4.76564L4.51683 4.70869L4.56127 4.8384C4.66284 4.81625 4.7041 4.75298 4.7041 4.62644C4.69902 4.59805 4.70463 4.56879 4.71986 4.54427C4.73509 4.51975 4.75887 4.5017 4.78663 4.49357V4.65808L5.07548 4.40183L5.0977 4.4303L5.13261 4.34489H5.08817C5.08817 4.19304 5.13896 4.13609 5.28815 4.11079C5.2602 4.1336 5.23562 4.16022 5.21514 4.18988C5.20038 4.22217 5.18972 4.25618 5.1834 4.29111C5.22828 4.28696 5.27084 4.26931 5.30542 4.2405C5.34001 4.21168 5.36498 4.17306 5.37702 4.12977L5.32624 4.11395V4.00955C5.42463 3.94945 5.53573 3.92098 5.59286 3.81342C5.59286 3.81342 5.59286 3.78811 5.61508 3.78494L5.78649 3.71218C5.76109 3.74698 5.7484 3.77862 5.72618 3.80393C5.69925 3.83399 5.67064 3.86251 5.64048 3.88934H5.72618V3.97476L5.79918 3.93363C5.79918 3.90516 5.76427 3.88301 5.77062 3.8672C5.78266 3.78361 5.813 3.70369 5.85949 3.6331C5.93749 3.57377 6.02421 3.52682 6.1166 3.4939H6.13247L6.06581 3.74382H6.0912C6.12929 3.65208 6.21817 3.57932 6.2023 3.46227C6.20549 3.44343 6.21569 3.42649 6.23087 3.41481C6.27471 3.37477 6.32667 3.34456 6.38323 3.32623C6.49284 3.2852 6.59899 3.23548 6.70064 3.17755L6.90696 3.08581V3.21235C6.96409 3.25031 6.98949 3.19969 7.0244 3.1554ZM5.57382 15.7715C5.5415 15.7206 5.50429 15.6729 5.46272 15.6292C5.37067 15.5437 5.2691 15.4646 5.16753 15.3856C5.04669 15.2604 4.93329 15.1284 4.82789 14.9901C4.51988 14.6453 4.23768 14.2784 3.98357 13.8924C3.89432 13.764 3.81577 13.6286 3.74868 13.4875C3.6852 13.3577 3.64394 13.2217 3.58998 13.0888C3.53602 12.956 3.44397 12.7725 3.39635 12.5858C3.32017 12.3075 3.26304 12.0259 3.20273 11.7444C3.04856 11.1038 2.95399 10.4504 2.92023 9.79246C2.92023 9.76083 2.92023 9.71337 2.92023 9.70388C2.92023 9.69439 2.88214 9.62796 2.88214 9.58683L2.90119 9.27048C2.90119 9.24201 2.90119 9.21354 2.90119 9.18507H2.88214C2.87197 9.20398 2.86449 9.22421 2.85992 9.24517C2.85992 9.43815 2.81866 9.63429 2.82183 9.82726C2.80532 10.1824 2.83197 10.5383 2.90119 10.887C2.93104 11.0332 2.95119 11.1811 2.9615 11.3299C2.96956 11.3621 2.96956 11.3958 2.9615 11.428C2.94579 11.4484 2.93729 11.4734 2.93729 11.4992C2.93729 11.5249 2.94579 11.5499 2.9615 11.5704C2.9648 11.5924 2.9648 11.6148 2.9615 11.6368C2.9615 11.7127 2.97737 11.7886 2.99324 11.8614C3.00911 11.9342 3.0345 11.9721 3.04402 12.0354C3.10162 12.1859 3.13898 12.3433 3.15512 12.5036C3.15512 12.5036 3.15512 12.5321 3.17734 12.5447C3.19956 12.5574 3.2059 12.5985 3.21543 12.627C3.26304 12.763 3.30748 12.899 3.35192 13.0382C3.39635 13.1774 3.41857 13.2565 3.45031 13.3546H3.39001C3.39459 13.3924 3.39459 13.4306 3.39001 13.4685C3.39001 13.5254 3.39001 13.5507 3.44397 13.5792C3.47312 13.5961 3.49638 13.6215 3.51062 13.652C3.54871 13.7405 3.58045 13.8323 3.62172 13.9398C3.65029 13.8639 3.6852 13.8892 3.71377 13.9177C3.73732 13.9413 3.7576 13.9679 3.77408 13.9968C3.88835 14.1961 3.99309 14.4017 4.11689 14.5978C4.2209 14.7494 4.33322 14.8952 4.45334 15.0344C4.46922 15.0566 4.50096 15.0629 4.52635 15.0787C4.5833 15.1057 4.63662 15.1397 4.68506 15.1799C4.84059 15.3381 5.00247 15.4963 5.14213 15.6703C5.16452 15.6907 5.18899 15.7087 5.21514 15.7241L5.23101 15.7082C5.19927 15.6671 5.1707 15.6197 5.13579 15.5817C5.02469 15.4552 4.91042 15.3318 4.79933 15.2084C4.61925 15.0284 4.44968 14.8383 4.29146 14.639C4.10101 14.3732 3.93278 14.0917 3.76455 13.807C3.55229 13.4541 3.39195 13.0727 3.28843 12.6744C3.2313 12.4403 3.17099 12.2031 3.11703 11.969C3.08846 11.8393 3.06942 11.7096 3.04402 11.5798H3.07259C3.04402 11.776 3.2186 11.9215 3.18051 12.1208C3.17808 12.1355 3.17808 12.1504 3.18051 12.1651C3.26621 12.4182 3.34874 12.6713 3.44397 12.9212C3.68184 13.585 4.02125 14.2082 4.45017 14.7687C4.70093 15.085 4.98978 15.3729 5.2564 15.6798C5.52293 15.963 5.84059 16.1938 6.19278 16.3599C6.3864 16.4643 6.59272 16.5497 6.77999 16.6763C6.94646 16.7773 7.13064 16.846 7.32277 16.8787C7.44339 16.8977 7.56083 16.9294 7.68145 16.9483L8.28771 17.0464H8.34802V16.9705C8.46864 16.9705 8.46864 16.9705 8.50673 16.9199L8.21153 16.8851L8.24328 16.9831L8.0433 16.961L8.1544 16.8946C7.63583 16.7833 7.13047 16.6179 6.64668 16.401L6.70699 16.3188C6.62446 16.2967 6.55146 16.2524 6.49115 16.265C6.44311 16.272 6.39413 16.2686 6.34756 16.2549C6.30099 16.2413 6.25793 16.2177 6.22134 16.1859C6.1896 16.1669 6.17056 16.129 6.14199 16.1005C6.11678 16.1048 6.09102 16.1048 6.06581 16.1005C5.94519 16.0183 5.83092 15.9297 5.71348 15.8443L5.65635 15.8854C5.65635 15.7494 5.65635 15.7494 5.57382 15.7715ZM6.12612 3.90199L6.1039 3.88301C6.07216 3.88301 6.02455 3.88301 6.00868 3.92098C5.95789 4.00006 5.9198 4.08548 5.87536 4.16773L5.79601 4.30692H5.76427L5.84362 4.10762L5.77062 4.08548L5.70078 4.28794H5.68491L5.66587 4.21835L5.5643 4.31325H5.58017L5.61508 4.29427C5.61508 4.41132 5.61508 4.40816 5.52621 4.46826C5.43733 4.52837 5.2691 4.63277 5.14213 4.72135C5.10722 4.74349 5.08817 4.8036 5.05643 4.80992C4.91994 4.83523 4.9136 4.99657 4.8025 5.0377C4.77711 5.17689 4.6057 5.20536 4.56761 5.33507C4.56761 5.33507 4.54539 5.33507 4.53587 5.33507C4.51093 5.34669 4.48834 5.36278 4.46922 5.38252C4.40891 5.46794 4.35812 5.55651 4.30416 5.64193C4.30416 5.65775 4.27559 5.68305 4.26607 5.67989C4.18989 5.67989 4.17402 5.74316 4.14228 5.7748C4.11054 5.80643 4.05658 5.93614 3.99627 6.00257C3.92562 6.08719 3.87273 6.18508 3.84073 6.29045C3.83363 6.31749 3.82832 6.34496 3.82486 6.3727C3.85555 6.3469 3.88135 6.31582 3.90104 6.28096C3.92579 6.25797 3.94812 6.23253 3.9677 6.20503C3.9677 6.17656 3.9677 6.13544 4.02166 6.1386L3.97405 6.37586H3.99944C4.03118 6.32525 4.06927 6.27463 4.10101 6.22402C4.27612 5.92062 4.50397 5.65068 4.77393 5.42681C4.78695 5.41515 4.79771 5.40121 4.80568 5.38568C4.85964 5.32874 4.90725 5.26547 4.96438 5.20853C5.02152 5.15158 5.10722 5.08515 5.17388 5.01872C5.34586 4.7976 5.56203 4.61447 5.80871 4.48092C5.83397 4.47737 5.85962 4.47737 5.88489 4.48092L6.10073 4.28478V4.33223C6.17691 4.26264 6.25309 4.19304 6.33244 4.1266C6.41179 4.06017 6.41814 4.06966 6.45623 4.03486C6.49432 4.00006 6.4975 3.97476 6.49115 3.96843C6.4848 3.9621 6.49115 3.91149 6.51337 3.88934C6.53558 3.8672 6.58955 3.81974 6.5578 3.7628L6.46575 3.81974L6.48797 3.67422C6.47866 3.6747 6.46956 3.67721 6.46133 3.68158C6.4531 3.68596 6.44594 3.69208 6.44036 3.69953C6.42381 3.73018 6.39898 3.7556 6.3687 3.77293C6.33841 3.79026 6.30386 3.79881 6.26896 3.7976C6.20865 3.7976 6.18325 3.85454 6.16738 3.91781L6.22134 3.90199C6.22134 4.03486 6.11025 4.04752 6.03407 4.09497H6.0182L6.12612 3.90199ZM3.93913 12.4435H3.95818C3.93913 12.3771 3.91374 12.3138 3.89787 12.2474C3.79312 11.8266 3.69155 11.409 3.58045 10.9819C3.56433 10.9362 3.55576 10.8881 3.55506 10.8396C3.58045 10.577 3.50427 10.3144 3.55506 10.0519C3.57093 9.88563 3.57093 9.71827 3.55506 9.55204C3.55506 9.43499 3.55506 9.3211 3.55506 9.20721C3.55042 9.17469 3.55042 9.14167 3.55506 9.10914C3.61537 8.75167 3.67885 8.39735 3.74234 8.03987C3.74234 8.02089 3.76138 7.98926 3.74234 7.98293C3.72329 7.9766 3.74234 7.89119 3.74234 7.82476L3.77725 7.89435C3.77725 7.86588 3.77725 7.8469 3.80264 7.82792C3.90895 7.44349 4.04806 7.06883 4.21846 6.70803C4.25972 6.6416 4.28829 6.56568 4.33273 6.49924C4.46922 6.29994 4.60888 6.1038 4.74854 5.90766C4.77711 5.86654 4.8025 5.82225 4.82789 5.78112C4.76759 5.82858 4.73267 5.89817 4.67554 5.93614C4.58201 6.00783 4.51233 6.10595 4.47556 6.21769C4.47222 6.23008 4.46686 6.24183 4.45969 6.25249L4.44065 6.27463V6.21136C4.33273 6.34423 4.30416 6.5119 4.19941 6.6416C4.13026 6.76267 4.0698 6.88847 4.01849 7.01806C3.95143 7.12823 3.89813 7.24615 3.85978 7.36921C3.84073 7.44197 3.78043 7.50524 3.76138 7.56851C3.66933 7.85639 3.60267 8.15376 3.52967 8.44797C3.50745 8.53022 3.4884 8.61247 3.46936 8.69789C3.46936 8.69789 3.46936 8.7137 3.46936 8.72003C3.5138 8.79596 3.46936 8.86239 3.45031 8.93515C3.44553 8.96661 3.44553 8.9986 3.45031 9.03006C3.45031 9.11231 3.45031 9.19139 3.47253 9.27048C3.47358 9.27783 3.47358 9.28528 3.47253 9.29263L3.44079 9.25783C3.44079 9.29579 3.44079 9.32743 3.42175 9.35906C3.36892 9.50831 3.35795 9.66909 3.39001 9.8241C3.39637 9.84471 3.39637 9.86676 3.39001 9.88737C3.39001 10.0234 3.36144 10.1626 3.34874 10.3018C3.34874 10.3714 3.34874 10.4378 3.40905 10.4884C3.40905 10.4884 3.40905 10.5264 3.4281 10.5485C3.44714 10.5707 3.4281 10.6719 3.45349 10.732C3.48801 10.8455 3.5114 10.962 3.52332 11.08C3.53968 11.2538 3.57371 11.4255 3.62489 11.5925C3.65981 11.7475 3.70742 11.9089 3.75186 12.0512C3.75186 12.0892 3.77725 12.1271 3.79312 12.1651C3.80899 12.2031 3.85026 12.2853 3.83756 12.2948C3.82486 12.3043 3.81217 12.3707 3.83756 12.4024C3.955 12.7187 4.07562 13.0034 4.20576 13.2976C4.25306 13.4131 4.33957 13.5083 4.45017 13.5665C4.20613 13.1882 4.00996 12.7812 3.86613 12.3549L3.93913 12.4435ZM6.02137 14.9743H6.04359C6.01625 14.9272 5.9832 14.8837 5.94519 14.8446C5.67492 14.5768 5.42157 14.2926 5.18657 13.9936C4.72269 13.4047 4.35818 12.7443 4.10736 12.0386C4.09657 12.0154 4.08383 11.9932 4.06927 11.9721H4.03753L4.21528 12.4751C4.28829 12.6681 4.36764 12.8611 4.44382 13.054C4.46013 13.0794 4.4793 13.1027 4.50096 13.1236C4.52 13.1426 4.54857 13.1521 4.56127 13.1711C4.82773 13.6076 5.13146 14.0204 5.46907 14.4049C5.53768 14.5171 5.63524 14.6088 5.75157 14.6706C5.76892 14.6807 5.78235 14.6963 5.78966 14.7149C5.82458 14.8604 5.93567 14.9174 6.01185 15.0028L6.02137 14.9743ZM3.58045 7.2142C3.5928 7.19514 3.60342 7.17502 3.6122 7.15409C3.64394 7.075 3.6122 6.96428 3.72012 6.91683C3.72012 6.91683 3.72012 6.91683 3.72012 6.89784C3.77187 6.73971 3.78386 6.57133 3.75503 6.4075C3.7323 6.42593 3.71203 6.4472 3.69472 6.47077C3.65663 6.55935 3.62489 6.64793 3.5868 6.73334C3.52961 6.87838 3.4639 7.01992 3.39001 7.15725C3.37212 7.18276 3.36252 7.21313 3.36252 7.24425C3.36252 7.27537 3.37212 7.30574 3.39001 7.33125L3.53602 6.97693H3.56458L3.58045 7.2142ZM7.12598 3.49706C7.09106 3.54135 7.07519 3.60462 7.00218 3.56983V3.38634H6.97362L6.84665 3.64575V3.56034C6.75777 3.58248 6.76095 3.6331 6.79904 3.6932C6.73873 3.7628 6.66255 3.81342 6.65303 3.91465C6.66762 3.91898 6.68293 3.92036 6.69806 3.91871C6.71319 3.91707 6.72784 3.91242 6.74114 3.90506C6.75445 3.89769 6.76614 3.88775 6.77554 3.87581C6.78494 3.86388 6.79185 3.85019 6.79587 3.83556C6.84665 3.71218 6.87522 3.69953 7.01806 3.74066C7.03183 3.70644 7.04883 3.6736 7.06884 3.64259C7.09764 3.58661 7.1376 3.5371 7.18629 3.49706C7.26881 3.44328 7.27516 3.44961 7.21803 3.35787C7.21803 3.33889 7.19581 3.31674 7.18311 3.28511L7.03075 3.49074L7.12598 3.49706ZM15.3788 6.31576C15.4219 6.4344 15.4739 6.54967 15.5343 6.66058C15.6617 6.84434 15.7682 7.0417 15.8517 7.249C15.8676 7.29012 15.912 7.32176 15.9406 7.35972C15.8337 6.96956 15.6382 6.60913 15.3692 6.30627L15.3788 6.31576ZM16.9849 10.8586C17.0826 10.471 17.0902 10.0663 17.0071 9.67541C17.0035 9.68673 17.0035 9.6989 17.0071 9.71021C16.9991 9.8514 16.9991 9.99293 17.0071 10.1341C17.0404 10.3501 17.0404 10.5698 17.0071 10.7858C16.9595 10.7985 16.9722 10.8238 16.9754 10.8491L16.9849 10.8586ZM11.5317 3.14591V3.12377C11.4873 3.12377 11.4396 3.09213 11.392 3.08264L11.0746 3.02254C10.9635 2.99723 10.8524 2.96243 10.7572 2.94661C10.6699 2.95159 10.583 2.93185 10.5064 2.88967C10.4874 2.88967 10.4461 2.88967 10.4176 2.88967C10.4398 2.90865 10.4588 2.94345 10.4811 2.94978L11.5317 3.14591ZM4.28511 11.3521C4.3686 11.8868 4.55276 12.4009 4.82789 12.8674C4.71997 12.6175 4.60253 12.3771 4.51048 12.1271C4.41843 11.8772 4.36129 11.6115 4.28511 11.3521ZM4.1518 8.16009C3.99309 8.47644 3.87882 9.65959 3.98674 9.86839C3.94454 9.29375 4.00035 8.71614 4.1518 8.16009ZM4.18354 13.5381C4.16307 13.5851 4.16191 13.6383 4.1803 13.6862C4.1987 13.7341 4.23518 13.7729 4.28194 13.7943C4.33455 13.8293 4.38254 13.8708 4.42478 13.9177C4.48509 13.981 4.5327 14.0537 4.58983 14.1202C4.64697 14.1866 4.62792 14.155 4.64697 14.1739H4.66601C4.65335 14.1378 4.63741 14.1028 4.6184 14.0695C4.54222 13.9651 4.46287 13.8639 4.38351 13.7532C4.36568 13.7292 4.34151 13.7105 4.31368 13.6994C4.25972 13.6994 4.22481 13.6646 4.22798 13.6013C4.23115 13.5381 4.20259 13.5634 4.18354 13.5381ZM3.12973 8.19805C3.2351 7.93193 3.31068 7.65502 3.35509 7.37237C3.33019 7.38445 3.31007 7.4045 3.29796 7.42932C3.25987 7.55902 3.22495 7.68556 3.19321 7.81526C3.18845 7.87605 3.17454 7.93577 3.15194 7.99242C3.13198 8.02241 3.11954 8.05675 3.11568 8.09254C3.11181 8.12832 3.11663 8.16451 3.12973 8.19805ZM3.04085 9.8241H3.01863C3.01709 9.83353 3.01709 9.84314 3.01863 9.85257V9.89686C3.03768 10.0835 3.05355 10.2733 3.07576 10.46C3.0837 10.4963 3.09651 10.5314 3.11385 10.5644H3.1329C3.1359 10.5423 3.1359 10.52 3.1329 10.4979C3.1329 10.3271 3.1329 10.1563 3.10751 9.98544C3.09341 9.92867 3.07095 9.8743 3.04085 9.8241ZM3.08211 8.9225C3.08058 8.93722 3.08058 8.95206 3.08211 8.96678C3.09745 9.17844 3.08464 9.39118 3.04402 9.59949C3.03754 9.64248 3.03754 9.6862 3.04402 9.72919C3.04811 9.7598 3.05666 9.78964 3.06942 9.81777C3.1528 9.52461 3.15718 9.21472 3.08211 8.91933V8.9225ZM6.71016 4.76247L7.79572 4.25631C7.40681 4.36007 7.03932 4.53141 6.71016 4.76247ZM8.65592 2.96243H8.67496L8.69401 3.01937L8.72257 3.07315L8.77336 3.03203C8.78923 3.01305 8.8051 2.97825 8.82415 2.97508C8.9035 2.97508 8.90667 2.90865 8.91302 2.83273L8.82097 2.91814L8.78288 2.86436C8.72845 2.89594 8.67229 2.92446 8.61465 2.94978C8.54482 2.97192 8.55434 3.0257 8.55117 3.07315C8.54799 3.12061 8.58608 3.11428 8.61465 3.14275L8.65592 2.96243ZM4.12958 11.1876C4.19695 11.7055 4.35488 12.2077 4.59618 12.6713C4.38394 12.1962 4.22737 11.6984 4.12958 11.1876ZM10.9603 3.52237V3.49706L9.90335 3.42747V3.45278C10.2525 3.51605 10.608 3.49706 10.9603 3.52237ZM4.76441 14.6168C4.82789 14.4523 4.71045 14.3669 4.62792 14.2562L4.52 14.3163C4.53587 14.3479 4.5454 14.3827 4.56761 14.3985C4.58983 14.4144 4.66601 14.4428 4.70093 14.4776C4.72718 14.5216 4.74847 14.5682 4.76441 14.6168ZM7.9703 3.67106C7.8149 3.67274 7.66269 3.7153 7.52909 3.79444L7.51005 3.87985L7.59892 3.84505C7.61948 3.83685 7.64072 3.8305 7.66241 3.82607C7.69097 3.82607 7.72589 3.82607 7.74493 3.79127C7.7543 3.7746 7.76987 3.76227 7.78828 3.75694C7.80669 3.75161 7.82647 3.75372 7.84333 3.7628C7.85566 3.76893 7.86924 3.77212 7.88301 3.77212C7.89678 3.77212 7.91036 3.76893 7.92269 3.7628C7.94479 3.73586 7.96101 3.70461 7.9703 3.67106ZM9.84939 2.83273C9.82718 2.83273 9.80178 2.81058 9.78274 2.83273C9.74576 2.84249 9.71119 2.85972 9.68117 2.88334C9.68117 2.88334 9.68117 2.92447 9.68117 2.94345H9.73513C9.77626 2.93877 9.81779 2.93877 9.85892 2.94345C9.89279 2.95179 9.92575 2.96345 9.95732 2.97825C9.95732 2.91181 10.0049 2.84538 9.93192 2.80109C9.92557 2.77578 9.88114 2.81375 9.84939 2.83273ZM9.74147 3.44328V3.41165C9.51008 3.38919 9.27658 3.40307 9.04951 3.45278V3.47176L9.74147 3.44328ZM8.11948 3.12693L8.18932 3.16806L8.25915 3.07632L8.28137 3.14908L8.31946 3.06683C8.39564 3.03835 8.45912 3.01937 8.51943 2.99407C8.51943 2.99407 8.51943 2.96876 8.51943 2.9561C8.51943 2.94345 8.48769 2.9561 8.47499 2.9561C8.46229 2.9561 8.37659 3.00672 8.3258 3.03203C8.30093 3.03923 8.2745 3.03923 8.24962 3.03203C8.16075 3.00356 8.14805 3.00988 8.11948 3.12377V3.12693ZM17.3785 11.1085H17.3563C17.3118 11.2856 17.2642 11.4596 17.2198 11.6368C17.2198 11.6368 17.2198 11.6558 17.242 11.6684C17.3482 11.5019 17.3961 11.305 17.3785 11.1085ZM12.3601 3.93047L12.376 3.90516C12.3414 3.87586 12.3016 3.85333 12.2586 3.83872C12.1316 3.81025 12.0015 3.78811 11.8745 3.76596H11.8205V3.78494L12.3601 3.93047ZM4.03436 11.8899H4.06292C3.97722 11.6969 4.00579 11.4723 3.89469 11.2856C3.88838 11.3052 3.88838 11.3262 3.89469 11.3457C3.92009 11.4913 3.94231 11.64 3.97405 11.7855C3.98943 11.8228 4.00971 11.8579 4.03436 11.8899ZM3.05672 8.43215C2.9615 8.55869 3.01546 8.70421 2.99641 8.84024C3.03428 8.7801 3.0592 8.71276 3.06958 8.64251C3.07996 8.57226 3.07558 8.50063 3.05672 8.43215ZM2.68217 8.25816H2.71074C2.72661 8.12213 2.85675 8.00508 2.74565 7.85006L2.68217 8.25816ZM16.0326 11.6937C16.1304 11.4486 16.1851 11.1886 16.1945 10.925L16.0326 11.6937ZM7.46244 3.78494C7.40586 3.81953 7.34639 3.84917 7.28468 3.87352C7.25398 3.88253 7.2271 3.90134 7.20818 3.92706C7.18925 3.95279 7.17933 3.98399 7.17994 4.01588C7.30055 3.95577 7.41482 3.92414 7.46878 3.77862L7.46244 3.78494ZM7.91634 15.9993V15.9645L7.36404 15.781V15.8095L7.91634 15.9993ZM6.56733 15.3919L6.16104 15.0755C6.25772 15.2228 6.40057 15.334 6.56733 15.3919ZM7.20216 16.0246C7.23746 16.0728 7.28723 16.1086 7.34429 16.1268C7.40135 16.145 7.46273 16.1447 7.51957 16.1258C7.41901 16.0683 7.30779 16.0317 7.19263 16.0183L7.20216 16.0246ZM3.2059 11.2255H3.22812L3.15512 10.8174H3.1329L3.2059 11.2255ZM5.39924 4.1614L5.42781 4.18038C5.4532 4.16457 5.49446 4.15191 5.49764 4.12977C5.51043 4.08532 5.51043 4.03818 5.49764 3.99374C5.49764 3.95894 5.43733 3.9621 5.42463 3.99374C5.41194 4.02537 5.40876 4.11079 5.39924 4.1614ZM4.447 12.472C4.48542 12.6509 4.56838 12.8173 4.68823 12.956L4.447 12.472ZM9.10347 2.84538C9.02412 2.84538 9.01142 2.89283 9.02412 2.93712C9.03681 2.98141 9.0749 3.00988 9.09077 3.00356C9.10224 2.99977 9.11278 2.99361 9.12169 2.98548C9.13061 2.97735 9.13769 2.96743 9.14249 2.95638C9.14728 2.94532 9.14968 2.93338 9.14952 2.92134C9.14936 2.9093 9.14665 2.89743 9.14156 2.88651C9.13839 2.86436 9.10982 2.86436 9.10347 2.84538ZM7.17994 3.728L7.34499 3.57615L7.32912 3.54768L7.11963 3.63942L7.17994 3.728ZM7.54496 3.24082C7.418 3.27878 7.38626 3.35471 7.43387 3.48441L7.54496 3.24082ZM4.98025 6.28412C5.07148 6.21201 5.13165 6.10791 5.14848 5.99308L4.98025 6.28412ZM6.01185 3.67106L5.92615 3.63942C5.90322 3.67003 5.89084 3.7072 5.89084 3.7454C5.89084 3.7836 5.90322 3.82077 5.92615 3.85138L6.01185 3.67106ZM3.53602 6.10697H3.57093C3.60099 6.07297 3.62404 6.03339 3.63874 5.99051C3.65345 5.94763 3.65953 5.90227 3.65663 5.85705H3.62807L3.53602 6.10697ZM4.02166 10.7194H4.0534L3.9804 10.3239L4.02166 10.7194ZM5.29132 5.2718C5.41829 5.23067 5.47225 5.14842 5.42463 5.06617L5.29132 5.2718ZM3.22178 11.3552L3.32335 11.7222C3.33147 11.592 3.29572 11.4629 3.22178 11.3552ZM3.15512 6.79345H3.12655L3.09164 7.0054C3.19956 6.92948 3.20908 6.88519 3.15512 6.79345ZM9.62403 2.78844C9.50659 2.86436 9.50659 2.86753 9.57959 2.94978C9.67482 2.86436 9.67482 2.86436 9.62403 2.78844ZM2.64091 10.7352L2.59647 10.403H2.5679L2.64091 10.7352ZM6.88792 4.04752L6.70699 4.25947C6.75861 4.25388 6.80613 4.2288 6.83978 4.18938C6.87343 4.14996 6.89065 4.0992 6.88792 4.04752ZM3.28208 8.0462H3.25987V8.30245H3.28208C3.30348 8.26311 3.31468 8.21907 3.31468 8.17432C3.31468 8.12958 3.30348 8.08554 3.28208 8.0462ZM4.89455 5.71153L4.93582 5.73683L5.085 5.46477H5.06278L4.89455 5.71153ZM5.05961 13.4179H5.08183L4.8882 13.1015H4.86916L5.05961 13.4179ZM3.95183 6.38219H3.92326L3.82804 6.64476H3.8566L3.95183 6.38219ZM10.3001 2.95927C10.3001 2.86753 10.2747 2.86436 10.1541 2.9308L10.3001 2.95927ZM2.92341 9.38437H2.95197L2.96784 9.11863H2.93928L2.92341 9.38437ZM7.11011 4.05068L7.09106 4.01588L6.92918 4.12344L6.94505 4.14875L7.11011 4.05068ZM7.71954 2.94661V2.91498C7.69097 2.91498 7.65606 2.91498 7.63701 2.91498C7.61797 2.91498 7.60845 2.96559 7.59258 2.99407H7.61479L7.71954 2.94661ZM8.90985 3.46227V3.44328C8.87587 3.43571 8.84051 3.43698 8.80715 3.44695C8.7738 3.45692 8.74359 3.47527 8.7194 3.50023L8.90985 3.46227ZM16.9817 9.22936C16.9712 9.24217 16.9637 9.2571 16.9595 9.27311C16.9554 9.28913 16.9549 9.30584 16.9579 9.3221C16.9609 9.33835 16.9674 9.35376 16.977 9.36724C16.9866 9.38073 16.9991 9.39197 17.0134 9.40019L16.9817 9.22936ZM3.18369 10.2638H3.21543V10.0519H3.18369V10.2638ZM8.90667 16.1511V16.1163C8.87185 16.1235 8.83783 16.1341 8.8051 16.148C8.8051 16.148 8.8051 16.1828 8.8051 16.2176L8.90667 16.1511ZM8.1544 3.62361L8.13536 3.58564L8.00522 3.65524L8.02426 3.6932L8.1544 3.62361ZM6.32927 4.47776L6.34831 4.4999L6.51019 4.37969L6.49115 4.35438L6.32927 4.47776ZM3.82169 10.6434H3.78995L3.82804 10.9282H3.85026L3.82169 10.6434ZM8.35437 3.5635V3.5983L8.5226 3.53186V3.50339L8.35437 3.5635ZM8.08774 3.37685V3.399L8.21471 3.3642V3.32307C8.15123 3.28511 8.12583 3.34838 8.08774 3.37685ZM7.59892 16.1923L7.75763 16.2207C7.71319 16.1511 7.6751 16.1227 7.59892 16.1923ZM3.51062 6.5372H3.47253V6.69854H3.51062V6.5372ZM4.87233 14.5978L4.84376 14.6232L4.93899 14.7275L4.96438 14.7054L4.87233 14.5978ZM2.62504 8.55869H2.6536L2.68217 8.36888H2.65043L2.62504 8.55869ZM9.31614 16.2492V16.2112H9.22726V16.2524L9.31614 16.2492ZM5.94837 4.78145L6.08168 4.68971C6.01185 4.66124 5.97059 4.70869 5.94837 4.78145ZM4.01849 9.80512H4.03753V9.56469L4.01849 9.80512ZM3.28526 8.75167H3.25352V8.95729H3.27574L3.28526 8.75167ZM2.86627 7.63811H2.8377L2.79644 7.78996H2.82818L2.86627 7.63811ZM3.5011 12.415H3.53602L3.50427 12.3201H3.46936C3.47253 12.3549 3.47253 12.3834 3.49475 12.415H3.5011ZM9.23996 2.92447L9.31931 2.78844C9.21139 2.83273 9.20822 2.83905 9.23361 2.9308L9.23996 2.92447ZM9.48754 2.76629L9.46532 2.75047L9.39549 2.81058V2.83273C9.41454 2.83273 9.4431 2.83273 9.45263 2.83273C9.46522 2.81429 9.47485 2.79401 9.48119 2.77262L9.48754 2.76629ZM4.18989 11.0452H4.21211L4.15497 10.8396H4.13593L4.18989 11.0452ZM16.9881 11.1338H16.9627L16.9341 11.3204H16.9563L16.9881 11.1338ZM16.9881 9.61214H17.0103V9.49826H16.9817C16.95 9.53305 16.9785 9.57418 16.9976 9.61214H16.9881ZM3.11385 12.6902H3.08846L3.16147 12.8927H3.17734L3.11385 12.6902Z"
    fill="black" />
  <path
    d="M14.9247 13.2644C14.8813 13.354 14.8409 13.4436 14.7918 13.5303C14.7012 13.7017 14.6049 13.8693 14.5028 14.033C14.3328 14.3028 14.1166 14.5404 13.8641 14.7351C13.8216 14.7665 13.7761 14.7936 13.7283 14.816L13.7109 14.79C13.8121 14.6918 13.9074 14.5849 14.0144 14.5011C14.1336 14.3922 14.2376 14.2678 14.3236 14.1312C14.4218 13.9926 14.5288 13.8596 14.6299 13.721L14.6501 13.695L14.8322 13.3511C14.8524 13.3165 14.8756 13.2818 14.8987 13.25L14.9247 13.2644Z"
    fill="black" />
  <path
    d="M15.6929 11.1556C15.6929 11.1354 15.6669 11.1094 15.6727 11.092C15.6929 11.0169 15.6554 10.9187 15.7334 10.8638H15.7681L15.7305 11.1527L15.6929 11.1556Z"
    fill="black" />
  <path d="M15.3438 11.04L15.4218 10.5142H15.4391C15.4408 10.6939 15.4084 10.8723 15.3438 11.04Z"
    fill="black" />
  <path d="M15.9877 12.713C15.9675 12.5772 16.0426 12.3923 16.1149 12.3981L15.9877 12.713Z"
    fill="black" />
  <path
    d="M14.6881 14.0884C14.6649 14.2357 14.5493 14.2849 14.4453 14.3426C14.48 14.2993 14.5176 14.256 14.5551 14.2155C14.5927 14.1751 14.636 14.1346 14.6881 14.0884Z"
    fill="black" />
  <path
    d="M15.4297 13.8162C15.4297 13.7931 15.4297 13.7613 15.4297 13.744C15.4784 13.6531 15.5355 13.567 15.6002 13.4868L15.4557 13.822L15.4297 13.8162Z"
    fill="black" />
  <path
    d="M15.7115 11.1904C15.7318 11.2656 15.7462 11.3291 15.6913 11.3869C15.6508 11.332 15.6537 11.2684 15.7115 11.1904Z"
    fill="black" />
  <path d="M11.0948 3.21052L10.8867 3.17874C10.9185 3.12962 10.9792 3.1354 11.0948 3.21052Z"
    fill="black" />
  <path d="M14.6627 13.2705L14.5095 13.5594H14.4922L14.6425 13.2705H14.6627Z" fill="black" />
  <path d="M16.2085 12.0684L16.1247 12.3573H16.1016L16.1854 12.0684H16.2085Z" fill="black" />
  <path
    d="M15.665 11.5366C15.665 11.5741 15.665 11.6117 15.6448 11.6464C15.6245 11.681 15.6072 11.6464 15.6043 11.6464C15.5783 11.5973 15.6043 11.5655 15.639 11.5337L15.665 11.5366Z"
    fill="black" />
  <path d="M10.4064 14.9872L10.2734 15.0334C10.311 14.9467 10.3312 14.9409 10.4064 14.9872Z"
    fill="black" />
  <path d="M14.9141 14.6458L15.0065 14.4897L15.0297 14.5042L14.9401 14.6602L14.9141 14.6458Z"
    fill="black" />
  <path d="M13.8984 14.8425L14.0343 14.7559C14.0256 14.831 13.9822 14.8599 13.8984 14.8425Z"
    fill="black" />
  <path
    d="M13.7231 15.5214L13.6133 15.5416C13.6133 15.5127 13.6335 15.4809 13.6422 15.478C13.6696 15.4813 13.6967 15.4871 13.7231 15.4954V15.5214Z"
    fill="black" />
  <path d="M13.1367 15.481L13.2436 15.4116C13.2436 15.4954 13.2263 15.5041 13.1367 15.481Z"
    fill="black" />
  <path
    d="M5.46284 5.40886C5.41082 5.47242 5.36169 5.53888 5.30678 5.60244C5.30678 5.60244 5.26632 5.60244 5.24609 5.60244V5.58222L5.44839 5.38574L5.46284 5.40886Z"
    fill="black" />
  <path
    d="M28.4973 16.5213H26.4223C25.6161 16.5213 24.96 15.981 24.96 15.3136V8.73461H27.272C27.7318 8.73461 28.1729 8.55197 28.498 8.22686C28.8232 7.90175 29.0059 7.4608 29.0059 7.00103C29.0059 6.54125 28.8232 6.10031 28.498 5.7752C28.1729 5.45009 27.7318 5.26744 27.272 5.26744H24.96V3.70722C24.96 3.24744 24.7774 2.8065 24.4522 2.48139C24.127 2.15628 23.686 1.97363 23.2261 1.97363C22.7663 1.97363 22.3252 2.15628 22 2.48139C21.6749 2.8065 21.4922 3.24744 21.4922 3.70722V15.3251C21.4922 17.9024 23.7058 20 26.4223 20H28.4973C28.9571 20 29.3982 19.8174 29.7233 19.4923C30.0485 19.1672 30.2312 18.7262 30.2312 18.2664C30.2312 17.8067 30.0485 17.3657 29.7233 17.0406C29.3982 16.7155 28.9571 16.5329 28.4973 16.5329V16.5213Z"
    fill="black" />
  <path
    d="M37.627 19.9995C36.0723 19.9998 34.5283 19.7421 33.0581 19.2368C32.8414 19.1717 32.6407 19.0622 32.4688 18.9151C32.297 18.768 32.1578 18.5866 32.0601 18.3826C31.9624 18.1786 31.9085 17.9565 31.9017 17.7304C31.8949 17.5043 31.9354 17.2793 32.0206 17.0698C32.0918 16.8619 32.2049 16.6708 32.353 16.5085C32.5011 16.3461 32.681 16.2159 32.8815 16.126C33.0821 16.036 33.299 15.9882 33.5187 15.9856C33.7385 15.9829 33.9565 16.0255 34.1591 16.1105C35.5202 16.6467 36.9814 16.8813 38.4419 16.7982C38.8773 16.7832 39.3071 16.6953 39.7135 16.5382C39.8883 16.4726 40.0491 16.3746 40.1874 16.2492C40.2978 16.148 40.3819 16.0215 40.4323 15.8806C40.4828 15.7396 40.4982 15.5885 40.4771 15.4402C40.4561 15.292 40.3992 15.1511 40.3115 15.0298C40.2237 14.9085 40.1077 14.8103 39.9736 14.7439C39.4691 14.504 38.9279 14.3507 38.3726 14.2903C37.2166 14.0967 36.026 13.984 34.9047 13.6431C34.0845 13.4376 33.3304 13.0258 32.7142 12.4469C31.8472 11.5801 31.6247 10.4822 31.7518 9.31489C31.9397 7.5553 33.0234 6.47181 34.5753 5.78704C35.8706 5.26063 37.2649 5.02206 38.6615 5.08783C39.8673 5.1049 41.0655 5.28173 42.2248 5.61368C42.4367 5.66881 42.6354 5.76608 42.8089 5.89967C42.9824 6.03326 43.1272 6.20043 43.2346 6.39121C43.342 6.58199 43.4099 6.79247 43.4342 7.01006C43.4585 7.22766 43.4387 7.44791 43.3759 7.65768C43.3132 7.86744 43.2088 8.06241 43.069 8.23095C42.9292 8.39949 42.7569 8.53813 42.5623 8.63861C42.3678 8.73908 42.1549 8.79932 41.9366 8.81573C41.7182 8.83215 41.4987 8.8044 41.2913 8.73414C40.2068 8.36287 39.0603 8.20682 37.916 8.27474C37.3693 8.2824 36.8316 8.41482 36.3439 8.6619C36.1248 8.76135 35.9472 8.93404 35.8417 9.15025C35.7362 9.36647 35.7094 9.61268 35.7659 9.84652C35.8069 9.97856 35.8751 10.1005 35.9662 10.2046C36.0573 10.3086 36.1692 10.3923 36.2947 10.4504C36.8117 10.6991 37.3664 10.8602 37.9362 10.9271C39.0772 11.0769 40.2082 11.295 41.3231 11.5801C42.0951 11.7798 42.8091 12.1589 43.4067 12.6867C44.2737 13.5073 44.5454 14.5532 44.4558 15.7003C44.3199 17.4107 43.2998 18.4913 41.8231 19.1963C40.5969 19.736 39.2702 20.0098 37.9304 19.9995H37.627Z"
    fill="black" />
  <path
    d="M52.9767 19.9996C51.1188 19.9973 49.3376 19.2583 48.0239 17.9448C46.7101 16.6314 45.971 14.8505 45.9688 12.993V6.95722C45.9688 6.49744 46.1514 6.0565 46.4766 5.73139C46.8018 5.40628 47.2428 5.22363 47.7027 5.22363C48.1625 5.22363 48.6036 5.40628 48.9288 5.73139C49.2539 6.0565 49.4366 6.49744 49.4366 6.95722V12.993C49.4231 13.4661 49.5046 13.9371 49.6764 14.3782C49.8481 14.8193 50.1066 15.2214 50.4365 15.5608C50.7665 15.9003 51.1611 16.1701 51.5972 16.3543C52.0333 16.5386 52.5019 16.6335 52.9753 16.6335C53.4487 16.6335 53.9173 16.5386 54.3533 16.3543C54.7894 16.1701 55.1841 15.9003 55.514 15.5608C55.8439 15.2214 56.1024 14.8193 56.2742 14.3782C56.4459 13.9371 56.5275 13.4661 56.5139 12.993V6.95722C56.5139 6.49744 56.6966 6.0565 57.0218 5.73139C57.347 5.40628 57.788 5.22363 58.2479 5.22363C58.7077 5.22363 59.1488 5.40628 59.4739 5.73139C59.7991 6.0565 59.9818 6.49744 59.9818 6.95722V12.993C59.9795 14.85 59.2408 16.6304 57.9277 17.9438C56.6146 19.2572 54.8341 19.9965 52.9767 19.9996Z"
    fill="black" />
</svg>
  