<svg width="112" height="112" viewBox="0 0 112 112" fill="none" xmlns="http://www.w3.org/2000/svg">
<path d="M30.3793 26.7725C30.3793 27.3225 30.1366 27.5004 29.5703 27.5975C29.5743 27.3827 29.6603 27.1776 29.8107 27.0241C29.9612 26.8707 30.1646 26.7807 30.3793 26.7725Z" fill="white"/>
<path d="M74.4073 89.4265L74.0837 89.7662H73.9219V89.2485H74.3749L74.4073 89.4265Z" fill="white"/>
<path d="M56 0C44.9256 1.84867e-06 34.0999 3.28287 24.8914 9.43358C15.683 15.5843 8.50532 24.3266 4.26586 34.5554C0.0264081 44.7841 -1.08447 56.0399 1.07368 66.8998C3.23183 77.7597 8.5621 87.736 16.3906 95.5675C24.2191 103.399 34.1943 108.734 45.0551 110.898C55.9159 113.062 67.1746 111.958 77.4079 107.725C87.6411 103.492 96.3893 96.3212 102.547 87.1181C108.704 77.915 111.994 67.0934 112 56.0212C112.004 48.6659 110.559 41.3819 107.747 34.5853C104.934 27.7886 100.81 21.6127 95.6094 16.4102C90.4089 11.2077 84.2341 7.08071 77.4377 4.26499C70.6414 1.44926 63.3567 -1.22808e-06 56 0ZM55.547 93.9726C48.0476 93.8864 40.7414 91.5839 34.5481 87.3549C28.3549 83.126 23.5515 77.1596 20.7426 70.207C17.9337 63.2544 17.245 55.6264 18.7631 48.2832C20.2812 40.9401 23.9383 34.2102 29.274 28.9407C34.6096 23.6712 41.3853 20.0978 48.748 18.6702C56.1107 17.2427 63.7312 18.0249 70.6502 20.9184C77.5692 23.8118 83.4773 28.6872 87.6307 34.9307C91.7841 41.1742 93.9972 48.5067 93.9913 56.005C93.9895 61.0301 92.9905 66.0049 91.052 70.6412C89.1135 75.2775 86.2742 79.4831 82.6985 83.0145C79.1227 86.5459 74.8817 89.3328 70.221 91.2138C65.5603 93.0948 60.5727 94.0325 55.547 93.9726Z" fill="white"/>
<path d="M39.3037 17.6668C38.9305 17.4188 38.966 17.2594 39.4636 16.976V17.6668C39.5803 17.709 39.7042 17.7278 39.8282 17.7221C39.9522 17.7165 40.0738 17.6864 40.1861 17.6338C40.2984 17.5811 40.3992 17.5068 40.4826 17.4152C40.566 17.3236 40.6304 17.2165 40.6721 17.1H40.3167C40.3167 16.4623 40.9565 16.8343 41.2408 16.5332V17.1354C41.5963 17.2417 41.7207 17.1354 41.7384 16.7457C41.7562 16.3561 41.7384 16.1967 42.2005 16.2144L42.0583 16.9937H42.2538C42.2538 16.728 42.396 16.4623 42.4849 16.1967C42.5114 16.0732 42.5683 15.9583 42.6505 15.8623C42.7327 15.7662 42.8375 15.692 42.9556 15.6463C43.0737 15.6007 43.2013 15.585 43.327 15.6006C43.4526 15.6163 43.5724 15.6629 43.6756 15.7361L45.1506 15.1339C45.1506 15.4882 45.1506 15.7007 44.8841 15.8601C44.7274 16.0098 44.5955 16.1831 44.4931 16.3738L44.3687 16.1967C44.3181 16.3715 44.2766 16.5489 44.2443 16.728C44.2271 16.9932 44.1125 17.2427 43.9223 17.429C43.7322 17.6152 43.4798 17.7251 43.2135 17.7376C43.0711 17.7499 42.9345 17.8 42.8181 17.8827C42.7017 17.9655 42.6096 18.0778 42.5515 18.208C42.4935 18.3382 42.4715 18.4816 42.4879 18.6232C42.5043 18.7647 42.5585 18.8993 42.6448 19.0129L42.8581 18.4993C43.1069 18.6587 43.2668 18.5878 43.3735 18.3044C43.4114 18.2459 43.4644 18.1987 43.5269 18.1675C43.5894 18.1364 43.6592 18.1225 43.7289 18.1273C43.8422 18.1905 43.9673 18.2297 44.0965 18.2424C44.2257 18.2551 44.3562 18.2411 44.4797 18.2012C44.6031 18.1613 44.717 18.0963 44.8141 18.0105C44.9113 17.9246 44.9895 17.8197 45.044 17.7022C45.044 17.5782 45.1862 17.4188 45.2928 17.1885L44.2976 16.976C44.0666 16.5332 44.7419 16.5686 44.8841 16.2498V16.8697C45.3067 16.3287 45.5822 15.6881 45.6838 15.0099C46.7323 14.8151 47.7098 14.6203 48.6872 14.4608C48.9535 14.4438 49.2207 14.4438 49.487 14.4608C49.8588 14.3589 50.2397 14.2936 50.6244 14.266C51.2997 14.266 51.975 14.266 52.6681 14.266C53.5755 14.2893 54.4834 14.2597 55.3872 14.1775C55.3872 14.8151 55.5827 14.9214 56.0448 14.6557L55.6894 14.266V14.142C56.201 14.1621 56.7112 14.2094 57.2177 14.2837C57.3244 14.2837 57.4132 14.514 57.5376 14.6557C57.8042 14.1066 58.3551 14.4431 58.7817 14.39C59.2082 14.3369 59.297 14.39 59.3326 13.9826C59.3496 13.8719 59.4064 13.7712 59.4925 13.6992C59.6169 14.4963 59.6347 14.4608 60.47 14.6025C61.5896 14.8151 62.7092 15.0985 63.8289 15.311C64.1062 15.3457 64.3868 15.3457 64.6641 15.311C64.8801 15.2578 65.1058 15.2578 65.3217 15.311C66.3555 15.6249 67.3509 16.0526 68.2896 16.5863C68.5337 16.787 68.8271 16.919 69.1395 16.9688C69.452 17.0186 69.7721 16.9844 70.0668 16.8697L70.1912 17.4897L70.5289 17.0469C71.1864 17.4188 71.8262 17.8085 72.5015 18.1273C73.1769 18.4461 73.7633 18.641 74.4031 18.8889C74.5808 18.8889 74.7941 19.0129 74.9718 19.1015L78.4196 20.8727C78.7047 21.0063 78.9731 21.1728 79.2193 21.3687C81.1919 22.6622 83.042 24.1325 84.7464 25.7613C85.2973 26.399 86.0437 26.8595 86.6302 27.5326C87.2166 28.2056 88.2119 29.3038 88.9938 30.1009C89.3649 30.5257 89.6704 31.0032 89.9002 31.5178C90.0424 31.8189 90.3978 31.9961 90.6999 32.2795V32.9348L91.1264 32.6869L91.5707 33.661C91.6827 33.7367 91.7792 33.8328 91.8551 33.9444C92.5482 35.2906 93.2058 36.6367 93.9166 37.9651C94.0634 38.1497 94.1641 38.3664 94.2104 38.5974C94.2568 38.8283 94.2474 39.0669 94.1832 39.2936C94.0766 39.6124 94.6453 40.4094 94.9652 40.5866C95.1214 40.6662 95.251 40.7892 95.3384 40.9408C95.8249 41.9661 96.2348 43.0258 96.5646 44.1113C96.9433 45.0486 97.0779 46.0662 96.9556 47.0693L97.2222 46.7505C97.2222 47.884 97.8442 48.8759 97.471 49.9564C97.4452 50.037 97.4452 50.1237 97.471 50.2044C97.584 50.4268 97.6791 50.6577 97.7554 50.8951C98.392 54.0779 98.4342 57.3504 97.8798 60.5484C97.7198 61.4871 97.5776 62.4613 97.471 63.4178C97.3339 64.7245 97.1083 66.0204 96.7957 67.2968C96.458 68.5189 95.9959 69.7057 95.5872 70.8392H95.4272C95.4272 70.5913 95.5161 70.361 95.5872 70.1308C95.9071 68.9617 96.227 67.7927 96.5291 66.5883C96.5563 66.4897 96.5563 66.3857 96.5291 66.2872C96.5291 66.0215 96.3158 65.7558 96.2092 65.5078L95.9071 65.8975H95.7827C95.9959 64.9942 96.1914 64.1263 96.4047 63.1698C96.5113 62.727 96.4047 62.2133 96.7424 61.8414C96.458 61.4517 96.8668 61.2037 96.9201 60.8849C96.9734 60.5661 96.9201 60.4067 96.9201 60.1764C96.9201 59.6096 96.9201 59.0251 96.9201 58.4052C96.9201 58.2635 96.9201 58.1218 96.9201 57.8915C96.7382 58.0659 96.5987 58.2795 96.5125 58.5159C96.4262 58.7523 96.3954 59.0053 96.4225 59.2554C96.4417 60.0456 96.2711 60.829 95.9249 61.5403C95.8005 62.0185 95.6405 62.4613 95.5517 62.9395C95.4628 63.4178 95.4095 63.9846 95.3028 64.4982C94.9652 64.1263 95.6583 63.6126 95.054 63.2761C95.6405 62.7801 95.3562 62.0893 95.5694 61.5048H95.4272C95.4272 61.6642 95.2673 61.8237 95.214 61.9831C94.6808 64.0554 94.1832 66.1455 93.6145 68.2001C93.3124 69.2806 92.8681 70.3256 92.4949 71.3883C92.2461 72.0791 92.015 72.7876 91.8018 73.4784C91.8018 73.6909 91.6063 73.8681 91.8018 74.1515C91.9973 74.4349 91.6774 74.7714 91.5352 75.0725C91.2331 75.6924 90.8954 76.2769 90.5755 76.8437H90.4689L90.8243 75.5507H90.7355L90.4689 76.0467H90.1312C90.0809 76.4879 89.9795 76.9217 89.8291 77.3397C89.6336 77.7294 89.4204 78.119 89.2071 78.5087C88.9938 78.8984 88.8517 79.3412 88.3007 79.4297C88.3007 78.9515 88.3007 78.4733 88.7983 78.2607C88.8328 78.2729 88.8705 78.2729 88.905 78.2607C89.1538 77.7294 89.4203 77.2157 89.6692 76.6843L89.9535 76.0998C90.0285 75.9344 90.088 75.7625 90.1312 75.5862C90.1719 75.2597 90.2494 74.9388 90.3623 74.6297L90.771 75.1256C92.2585 71.5625 93.3607 67.8514 94.0588 64.0554H93.9522L92.5304 69.8474H92.2816V69.6525H92.1572C90.6971 74.1114 88.6852 78.3715 86.1681 82.3346L86.6124 81.4667C86.5058 81.5906 86.3814 81.6969 86.2925 81.8209C85.9851 82.2757 85.6529 82.7132 85.2973 83.1316C84.8352 83.6453 84.3021 84.1058 83.7867 84.584C83.2713 85.0623 82.596 85.6645 82.0095 86.1604C80.8899 87.0106 79.7169 87.8254 78.5795 88.6402L78.4551 88.4985L78.8461 88.1796C80.0901 87.17 81.423 86.249 82.5782 85.1331C84.0091 83.6386 85.2397 81.9656 86.2392 80.1559C87.4665 78.291 88.4799 76.2948 89.2604 74.2046C89.3493 73.9743 89.5981 73.7972 89.7047 73.5669C89.8113 73.3367 89.9357 72.8585 90.0601 72.5042H89.918C89.6158 73.0356 89.2782 73.5669 89.0116 74.1337C88.8343 74.5784 88.6859 75.034 88.5673 75.4976V75.657C87.9808 76.5072 87.3944 77.4282 86.7901 78.2076C87.0212 77.6939 87.2166 77.1626 87.4655 76.6666C87.7143 76.1707 88.0341 75.6393 88.2652 75.0902C88.9405 73.5138 89.5803 71.9197 90.2201 70.3433C90.2201 70.1839 90.2201 69.9713 90.2201 69.7942C90.2027 69.6175 90.2027 69.4395 90.2201 69.2628C90.6466 67.6864 91.1087 66.1278 91.4819 64.5514C91.6596 63.772 91.6418 62.9573 91.7485 62.1602C91.7485 61.6465 91.9084 61.1329 91.9973 60.5484L91.6418 60.6546C91.6263 59.8397 91.7038 59.0256 91.8729 58.2281C92.1128 56.5895 92.1128 54.9249 91.8729 53.2863C91.8729 52.3476 91.8729 51.3911 91.7485 50.4346C91.7184 50.1545 91.6709 49.8764 91.6063 49.6021C91.4819 49.0176 91.3753 48.4331 91.2331 47.8309C90.9665 46.6442 90.6999 45.4397 90.3978 44.2884C90.3087 44.0518 90.1827 43.8307 90.0246 43.6331H89.8824C90.0068 44.3593 90.1135 45.0855 90.2734 45.8117C90.4333 46.5379 90.7533 47.3527 90.8954 48.1497C91.3192 50.8616 91.4681 53.609 91.3397 56.3505C91.1926 60.6792 90.3897 64.9609 88.9583 69.0503C88.8382 69.441 88.6836 69.8204 88.4962 70.1839L88.8872 68.4127L88.2119 70.1839C89.0711 67.3395 89.666 64.4224 89.9891 61.4694C89.8824 61.9477 89.8113 62.3373 89.7047 62.7093C88.7272 65.6318 87.9453 68.6961 86.9501 71.6717C86.5448 72.6833 86.0698 73.6658 85.5283 74.612C85.5092 74.651 85.4818 74.6855 85.4481 74.713C85.4143 74.7405 85.375 74.7604 85.3328 74.7714C85.3919 74.6729 85.4572 74.5783 85.5283 74.488C86.398 72.9142 87.061 71.2355 87.501 69.4931C87.9275 67.8104 88.4607 66.1455 88.9227 64.4805C89.1592 63.6987 89.3315 62.899 89.4381 62.0893C89.7225 59.0251 89.9713 55.9432 90.2023 52.8612C90.2023 52.5955 90.0068 52.3121 90.0068 52.0465C90.0068 51.7808 90.2201 51.5328 90.2201 51.2848C90.1784 50.6883 90.0892 50.096 89.9535 49.5136V50.4169C89.6692 48.8405 89.3848 47.087 89.0116 45.3512C88.8221 44.4115 88.5424 43.4921 88.1763 42.6058C87.2467 40.2357 85.9907 38.0062 84.4442 35.9813C83.3779 34.6883 82.3649 33.3422 81.3164 32.0138C81.2092 31.8627 81.077 31.7309 80.9254 31.6241C79.8058 30.7916 78.6861 29.9414 77.531 29.1267C76.749 28.5953 75.9493 28.1171 75.1318 27.6388C74.8234 27.4919 74.5021 27.3733 74.1721 27.2846C74.1721 27.2846 73.9766 27.2846 73.9411 27.1783C73.5856 26.6647 72.9992 26.5584 72.4838 26.3104C71.9684 26.0624 71.6307 25.9207 71.1864 25.7259C69.2161 24.8558 67.1351 24.2598 65.0018 23.9547C63.9733 23.8066 62.9575 23.5816 61.9628 23.2816L63.5267 23.1576C59.842 22.2899 55.9971 22.363 52.3482 23.3702C52.7392 22.8919 52.7392 22.8919 54.3387 22.4314C52.6088 22.3416 50.8775 22.582 49.2382 23.1399L49.3448 22.8211L48.5273 23.1045C47.2477 23.5473 45.9681 23.9547 44.7063 24.4329C42.5615 25.0872 40.4702 25.9044 38.4506 26.8772C37.4021 27.4794 36.3003 27.9931 35.305 28.6484C33.0402 30.2332 31.0119 32.1295 29.2804 34.281C26.7163 37.5245 24.9511 41.3222 24.1265 45.3689C23.6016 47.1939 23.2798 49.0709 23.1668 50.966C23.0304 53.6645 23.1614 56.3699 23.5578 59.0428C23.7366 60.4221 24.0278 61.7846 24.4286 63.1167C25.3528 65.685 26.4369 68.1824 27.4499 70.6975C27.4677 70.7553 27.4677 70.817 27.4499 70.8747C26.1742 68.5065 25.1155 66.0286 24.2865 63.4709C24.2865 63.7366 24.4109 64.0023 24.4642 64.268C24.5175 64.5336 24.6241 64.7816 24.713 65.0473L24.9973 65.8621C26.0464 68.7886 27.3673 71.6112 28.9427 74.2932C30.4061 76.624 32.2021 78.7303 34.2743 80.5456C35.6729 81.7232 37.2131 82.7228 38.8594 83.5213C39.3926 83.8047 39.8724 84.1589 40.3878 84.4778L40.5655 84.6017C41.7207 85.1154 42.8403 85.6645 43.9955 86.1427C44.3687 86.3021 44.7774 86.3021 45.1684 86.4261C45.5594 86.5501 46.448 86.8866 47.1055 87.0283C48.2069 87.2963 49.3223 87.5033 50.4467 87.6483C51.9039 87.8077 53.3612 87.8962 54.8185 87.9317C55.7354 87.9835 56.6552 87.918 57.5554 87.7368C58.5151 87.4889 59.4925 87.5066 60.4344 87.3472C61.4502 87.2097 62.422 86.8465 63.2779 86.2844C63.5976 86.1127 63.9477 86.0044 64.3087 85.9656L66.8856 85.5228C67.1896 85.5119 67.4923 85.5681 67.7719 85.6876C68.0515 85.807 68.3011 85.9866 68.5029 86.2136C68.6141 86.3203 68.7551 86.391 68.9073 86.4163C69.0596 86.4415 69.216 86.4203 69.3559 86.3553C69.5488 86.31 69.7495 86.31 69.9424 86.3553L68.5206 87.4889L69.587 87.294L68.4851 88.4276H69.3559C68.9926 88.6492 68.6425 88.8917 68.3074 89.1538C68.1064 89.306 67.9575 89.5163 67.8809 89.756C67.7225 90.287 67.6212 90.8333 67.5787 91.3856L68.2541 90.8896C68.2737 91.0563 68.2598 91.2252 68.2129 91.3864C68.1661 91.5476 68.0873 91.6978 67.9814 91.8282C67.8754 91.9586 67.7442 92.0666 67.5957 92.1457C67.4472 92.2248 67.2843 92.2735 67.1167 92.2889C67.5787 93.3871 66.8856 94.0601 66.2281 94.9989L67.1522 95.1229C66.9567 95.2823 66.8323 95.4594 66.6724 95.5657C65.9262 96.081 65.0966 96.4645 64.2198 96.6993C63.7045 96.841 63.2246 97.1421 62.7092 97.3192C60.3526 98.0471 57.8877 98.3647 55.4228 98.258C54.1965 98.258 52.9525 98.258 51.7262 98.258C49.957 98.1613 48.2012 97.8943 46.4835 97.4609C45.1949 97.249 43.9193 96.9651 42.6626 96.6107C41.0276 96.1148 39.4459 95.4948 37.8286 94.8395C37.2066 94.6092 36.5668 94.379 35.9448 94.1133C35.7654 94.0725 35.5876 94.0252 35.4117 93.9716C35.1629 93.8122 34.8963 93.6882 34.6297 93.5465L34.3987 93.3694C34.2032 93.2454 34.0077 92.9974 33.83 93.0151C33.6522 93.0328 33.2613 92.7671 32.9947 92.5723C32.3549 92.0941 31.6618 91.669 31.0398 91.1553C29.7247 90.0571 28.374 88.9944 27.1655 87.79C25.957 86.5855 24.5175 84.8851 23.2379 83.3442C22.5917 82.6445 21.9977 81.8986 21.4607 81.1124C20.5544 79.66 19.6836 78.1367 18.8838 76.6489C18.6706 76.2769 18.4928 75.8696 18.2796 75.4976C18.0663 75.1256 17.6931 74.5943 18.2796 74.0452C17.3199 74.0452 17.4265 73.2836 17.1422 72.823C17.3021 72.5928 17.6931 72.4511 17.3732 72.1145C17.0533 71.778 17.1422 72.0083 16.9111 71.902L16.3602 71.0695C16.3484 70.7358 16.3068 70.4039 16.2358 70.0776C15.9337 69.0326 15.6138 68.0053 15.2761 66.9602H15.4539C15.4539 67.1728 15.6138 67.4031 15.6849 67.6333C15.756 67.8636 15.8093 68.1115 15.8981 68.3241C15.987 68.5366 16.1292 68.7846 16.2358 69.0149H16.3602C16.2358 68.6075 16.1292 68.2001 16.0226 67.775C15.9159 67.3499 15.6138 66.3935 15.4005 65.7027C15.4005 65.5255 15.4005 65.2244 15.0451 65.2421C15.0451 65.2421 14.9207 65.065 14.9029 64.9587C14.9029 64.5336 14.743 64.1086 14.6719 63.6835C14.6008 63.2584 14.6719 62.975 14.1032 63.0458C14.1032 62.6739 14.352 62.3196 13.9788 62.0185C13.9788 62.0185 13.9788 61.7528 14.1032 61.6111C14.2276 61.4694 14.3165 61.2746 14.2987 61.1329C14.3211 60.3849 14.2004 59.6396 13.9432 58.9366C13.8248 58.5528 13.7885 58.1485 13.8366 57.7498C13.5158 54.1094 13.7133 50.442 14.4231 46.8567C14.8141 45.0855 15.3294 43.3143 15.7915 41.6493C15.8334 41.459 15.9326 41.2859 16.0759 41.1534L16.2358 42.3932H16.4135C16.4313 42.1101 16.4313 41.8261 16.4135 41.543C16.2223 40.8405 16.3115 40.0914 16.6623 39.453C17.2155 38.4493 17.6508 37.3854 17.9597 36.2825V36.1762C18.5284 35.9991 18.4573 35.3968 18.7239 34.9895C18.8347 35.254 18.8634 35.5456 18.8064 35.8265C18.7494 36.1075 18.6092 36.365 18.404 36.5659C18.2795 36.6521 18.191 36.7808 18.155 36.9275C18.119 37.0743 18.138 37.2291 18.2085 37.3629C18.9971 36.5321 19.4957 35.4699 19.6302 34.3341L19.3637 35.1312C19.247 34.9718 19.1755 34.7842 19.1567 34.5878C19.138 34.3914 19.1726 34.1937 19.257 34.0153C19.8574 32.6587 20.7005 31.4223 21.7451 30.3665C21.8171 30.2936 21.9013 30.2337 21.9939 30.1894C22.011 30.3306 22.011 30.4733 21.9939 30.6145C21.674 31.1459 21.3541 31.6595 20.9987 32.1555C20.8759 32.2824 20.7948 32.4437 20.7662 32.6177C20.7376 32.7917 20.7629 32.9703 20.8387 33.1297C20.9454 32.9703 21.052 32.864 21.1231 32.74C21.6918 31.9606 22.2427 31.1636 22.7936 30.3842C22.9358 30.1717 23.1313 29.9769 22.7936 29.7289L22.4737 30.154C22.4259 30.1176 22.387 30.0707 22.3603 30.017C22.3336 29.9632 22.3197 29.904 22.3197 29.844C22.3197 29.784 22.3336 29.7248 22.3603 29.6711C22.387 29.6173 22.4259 29.5704 22.4737 29.5341C23.0958 28.8787 23.7178 28.2233 24.2509 27.5503C24.4997 27.2669 24.713 26.9658 24.9618 26.6824L25.2639 26.3635L25.5127 27.0898C26.0814 26.9658 26.3125 26.6115 26.3125 25.903C26.284 25.7441 26.3154 25.5802 26.4007 25.443C26.486 25.3057 26.6191 25.2046 26.7745 25.1591V26.0801L28.3918 24.6454L28.5162 24.8049L28.7117 24.3266H28.4629C28.4629 23.4764 28.7472 23.1576 29.5825 23.0159C29.426 23.1436 29.2884 23.2927 29.1737 23.4587C29.0911 23.6396 29.0314 23.83 28.996 24.0255C29.2473 24.0023 29.4856 23.9035 29.6792 23.7421C29.8729 23.5808 30.0127 23.3646 30.0801 23.1222L29.7957 23.0336V22.4491C30.3467 22.1126 30.9687 21.9532 31.2886 21.351C31.2886 21.351 31.2886 21.2093 31.413 21.1915L32.3727 20.7842C32.2305 20.979 32.1594 21.1561 32.035 21.2978C31.8843 21.4661 31.724 21.6258 31.5552 21.776H32.035V22.2543L32.4438 22.024C32.4438 21.8646 32.2483 21.7406 32.2838 21.6521C32.3512 21.1841 32.5211 20.7366 32.7814 20.3413C33.2181 20.0092 33.7037 19.7463 34.2209 19.562H34.3098L33.9366 20.9613H34.0788C34.292 20.4476 34.7896 20.0402 34.7008 19.3849C34.7187 19.2794 34.7758 19.1845 34.8607 19.1192C35.1062 18.895 35.3971 18.7259 35.7138 18.6233C36.3275 18.3935 36.9218 18.1151 37.491 17.7908L38.6461 17.2771V17.9856C38.966 18.1982 39.1082 17.9148 39.3037 17.6668ZM31.182 88.3036C31.001 88.0185 30.7927 87.7515 30.5599 87.5066C30.0446 87.0283 29.4759 86.5855 28.9072 86.1427C28.2306 85.4422 27.5957 84.7029 27.0056 83.9287C25.281 81.998 23.701 79.9437 22.2782 77.7825C21.7786 77.0638 21.3387 76.3055 20.9631 75.5153C20.6077 74.7891 20.3767 74.0275 20.0745 73.2836C19.7724 72.5396 19.257 71.5123 18.9905 70.4673C18.5639 68.9086 18.244 67.3322 17.9064 65.7558C17.0432 62.1692 16.5137 58.5108 16.3247 54.8273C16.3247 54.6502 16.3247 54.3845 16.3247 54.3313C16.3247 54.2782 16.1114 53.9062 16.1114 53.676L16.218 51.9048C16.218 51.7453 16.218 51.5859 16.218 51.4265H16.1114C16.0545 51.5324 16.0126 51.6457 15.987 51.763C15.987 52.8435 15.756 53.9417 15.7737 55.0221C15.6813 57.0106 15.8305 59.003 16.218 60.9558C16.3852 61.774 16.498 62.6024 16.5557 63.4355C16.6009 63.6157 16.6009 63.8043 16.5557 63.9846C16.4678 64.0989 16.4202 64.239 16.4202 64.3831C16.4202 64.5272 16.4678 64.6672 16.5557 64.7816C16.5742 64.9049 16.5742 65.0303 16.5557 65.1536C16.5557 65.5787 16.6446 66.0038 16.7334 66.4112C16.8223 66.8185 16.9645 67.0311 17.0178 67.3853C17.3403 68.228 17.5494 69.1094 17.6398 70.0068C17.6398 70.0068 17.6398 70.1662 17.7642 70.237C17.8886 70.3079 17.9241 70.5381 17.9775 70.6975C18.244 71.4592 18.4928 72.2208 18.7416 73.0002C18.9905 73.7795 19.1149 74.2223 19.2926 74.7714H18.9549C18.9806 74.9832 18.9806 75.1973 18.9549 75.409C18.9549 75.7279 18.9549 75.8696 19.257 76.029C19.4203 76.1236 19.5505 76.2657 19.6302 76.4363C19.8435 76.9323 20.0212 77.4459 20.2523 78.0482C20.4122 77.6231 20.6077 77.7648 20.7676 77.9242C20.8995 78.0561 21.013 78.2051 21.1053 78.367C21.7451 79.4829 22.3316 80.6342 23.0247 81.7323C23.607 82.581 24.2359 83.397 24.9085 84.1766C24.9973 84.3006 25.1751 84.3361 25.3172 84.4246C25.6361 84.5757 25.9346 84.7661 26.2058 84.9914C27.0767 85.877 27.983 86.7626 28.765 87.7368C28.8903 87.8511 29.0273 87.9521 29.1737 88.0379L29.2626 87.9494C29.0849 87.7191 28.9249 87.4534 28.7294 87.2409C28.1074 86.5324 27.4676 85.8416 26.8456 85.1508C25.8374 84.1432 24.888 83.0787 24.0021 81.9626C22.9358 80.4748 21.9939 78.8984 21.052 77.3043C19.8635 75.3286 18.9658 73.1931 18.3862 70.9632C18.0663 69.6525 17.7287 68.3241 17.4265 67.0134C17.2666 66.2872 17.16 65.561 17.0178 64.8348H17.1777C17.0178 65.9329 17.9952 66.7477 17.782 67.8636C17.7684 67.9457 17.7684 68.0294 17.782 68.1115C18.2618 69.5285 18.7239 70.9455 19.257 72.3448C20.5889 76.0615 22.4892 79.5507 24.8907 82.6888C26.2947 84.46 27.9119 86.0719 29.4048 87.79C30.897 89.376 32.6756 90.6679 34.6475 91.5981C35.7316 92.1826 36.8867 92.6609 37.9353 93.3694C38.8673 93.9352 39.8985 94.3198 40.9742 94.5029C41.6496 94.6092 42.3071 94.7863 42.9825 94.8926L46.3769 95.4417H46.7146V95.0166C47.3899 95.0166 47.3899 95.0166 47.6032 94.7332L45.9504 94.5384L46.1281 95.0874L45.0085 94.9635L45.6305 94.5915C42.727 93.9685 39.8975 93.0424 37.1888 91.8284L37.5265 91.3679C37.0644 91.2439 36.6557 90.9959 36.318 91.0667C36.0491 91.1059 35.7748 91.0866 35.5141 91.0102C35.2533 90.9338 35.0122 90.802 34.8074 90.6239C34.6297 90.5177 34.5231 90.3051 34.3631 90.1457C34.222 90.1698 34.0777 90.1698 33.9366 90.1457C33.2613 89.6852 32.6215 89.1892 31.9639 88.711L31.644 88.9413C31.644 88.1796 31.644 88.1796 31.182 88.3036ZM34.2743 21.8469L34.1499 21.7406C33.9721 21.7406 33.7056 21.7406 33.6167 21.9532C33.3323 22.396 33.1191 22.8742 32.8703 23.3347L32.426 24.1141H32.2483L32.6926 22.9982L32.2838 22.8742L31.8928 24.0078H31.804L31.6973 23.6181L31.1286 24.1495H31.2175L31.413 24.0432C31.413 24.6986 31.413 24.6809 30.9154 25.0174C30.4178 25.3539 29.4759 25.9385 28.765 26.4344C28.5695 26.5584 28.4629 26.8949 28.2851 26.9303C27.5209 27.072 27.4854 27.9754 26.8634 28.2056C26.7212 28.985 25.7615 29.1444 25.5483 29.8706C25.5483 29.8706 25.4239 29.8706 25.3706 29.8706C25.2309 29.9357 25.1044 30.0257 24.9973 30.1363C24.6597 30.6145 24.3753 31.1105 24.0732 31.5887C24.0732 31.6773 23.9133 31.8189 23.8599 31.8012C23.4334 31.8012 23.3446 32.1555 23.1668 32.3326C22.9891 32.5097 22.687 33.2359 22.3493 33.6079C21.9538 34.0817 21.6576 34.6298 21.4785 35.2197C21.4387 35.3711 21.409 35.5249 21.3897 35.6802C21.5614 35.5358 21.7059 35.3618 21.8162 35.1666C21.9547 35.0379 22.0798 34.8954 22.1894 34.7415C22.1894 34.5821 22.1894 34.3518 22.4915 34.3695L22.2249 35.698H22.3671C22.5448 35.4146 22.7581 35.1312 22.9358 34.8478C23.9162 33.149 25.192 31.6377 26.7034 30.3842C26.7763 30.319 26.8366 30.2409 26.8812 30.154C27.1833 29.8352 27.4499 29.4809 27.7698 29.1621C28.0896 28.8433 28.5695 28.4713 28.9427 28.0994C29.9057 26.8613 31.116 25.836 32.4971 25.0883C32.6385 25.0684 32.7821 25.0684 32.9236 25.0883L34.1321 23.9901V24.2558C34.5586 23.8661 34.9851 23.4764 35.4294 23.1045C35.8737 22.7325 35.9093 22.7857 36.1225 22.5908C36.3358 22.396 36.3536 22.2543 36.318 22.2189C36.2825 22.1834 36.318 21.9 36.4424 21.776C36.5668 21.6521 36.8689 21.3864 36.6912 21.0676L36.1758 21.3864L36.3002 20.5716C36.2481 20.5743 36.1972 20.5883 36.1511 20.6128C36.105 20.6373 36.0649 20.6716 36.0337 20.7133C35.941 20.8849 35.802 21.0273 35.6324 21.1243C35.4628 21.2213 35.2694 21.2692 35.074 21.2624C34.7363 21.2624 34.5942 21.5812 34.5053 21.9355L34.8074 21.8469C34.8074 22.5908 34.1854 22.6617 33.7589 22.9274H33.67L34.2743 21.8469ZM22.0294 69.6702H22.1361C22.0294 69.2983 21.8873 68.944 21.7984 68.5721C21.2119 66.2163 20.6432 63.8783 20.0212 61.4871C19.931 61.2308 19.8829 60.9617 19.879 60.6901C20.0212 59.2199 19.5947 57.7498 19.879 56.2797C19.9679 55.349 19.9679 54.4119 19.879 53.4811C19.879 52.8258 19.879 52.1881 19.879 51.5505C19.853 51.3684 19.853 51.1835 19.879 51.0014C20.2167 48.9999 20.5722 47.0161 20.9276 45.0146C20.9276 44.9084 21.0342 44.7312 20.9276 44.6958C20.821 44.6604 20.9276 44.1822 20.9276 43.8102L21.1231 44.1999C21.1231 44.0405 21.1231 43.9342 21.2653 43.8279C21.8605 41.6755 22.6393 39.5778 23.5934 37.5577C23.8244 37.1858 23.9843 36.7607 24.2332 36.3887C24.9973 35.2729 25.7793 34.1747 26.5613 33.0765C26.7212 32.8463 26.8634 32.5983 27.0056 32.368C26.6679 32.6337 26.4724 33.0234 26.1525 33.2359C25.6289 33.6374 25.2387 34.1867 25.0329 34.8123C25.0142 34.8817 24.9842 34.9475 24.944 35.0072L24.8374 35.1312V34.7769C24.2332 35.5208 24.0732 36.4596 23.4867 37.1858C23.0995 37.8636 22.761 38.568 22.4737 39.2936C22.0983 39.9104 21.7999 40.5706 21.5851 41.2596C21.4785 41.667 21.1408 42.0213 21.0342 42.3755C20.5188 43.9873 20.1456 45.6523 19.7369 47.2995C19.6125 47.7601 19.5058 48.2206 19.3992 48.6988C19.3992 48.6988 19.3992 48.7874 19.3992 48.8228C19.648 49.2479 19.3992 49.6199 19.2926 50.0272C19.2658 50.2034 19.2658 50.3825 19.2926 50.5586C19.2926 51.0191 19.2926 51.4619 19.417 51.9048C19.4228 51.9459 19.4228 51.9876 19.417 52.0287L19.2393 51.8339C19.2393 52.0464 19.2393 52.2236 19.1326 52.4007C18.8369 53.2363 18.7754 54.1366 18.9549 55.0044C18.9905 55.1198 18.9905 55.2432 18.9549 55.3587C18.9549 56.1203 18.795 56.8996 18.7239 57.679C18.7239 58.0686 18.7239 58.4406 19.0615 58.724C19.0615 58.724 19.0615 58.9366 19.1682 59.0605C19.2748 59.1845 19.1682 59.7513 19.3103 60.0879C19.5036 60.7232 19.6346 61.3757 19.7013 62.0362C19.7929 63.0094 19.9835 63.9708 20.27 64.9056C20.4655 65.7735 20.7321 66.6768 20.9809 67.4739C20.9809 67.6865 21.1231 67.899 21.2119 68.1115C21.3008 68.3241 21.5318 68.7846 21.4607 68.8378C21.3897 68.8909 21.3186 69.2629 21.4607 69.44C22.1183 71.2112 22.7936 72.8053 23.5223 74.4526C23.7871 75.0989 24.2715 75.6318 24.8907 75.9581C23.5244 73.8398 22.426 71.5612 21.6207 69.1743L22.0294 69.6702ZM33.6878 83.8401H33.8122C33.6591 83.5765 33.474 83.3326 33.2613 83.1139C31.748 81.6147 30.3295 80.0234 29.0138 78.3493C26.4165 75.0518 24.3757 71.3546 22.9714 67.4031C22.9109 67.2733 22.8396 67.1489 22.7581 67.0311H22.5804L23.5756 69.8474C23.9843 70.9278 24.4286 72.0083 24.8552 73.0887C24.9465 73.2304 25.0538 73.3611 25.1751 73.4784C25.2817 73.5847 25.4416 73.6378 25.5127 73.7441C27.0046 76.188 28.7052 78.4991 30.5955 80.6519C30.9796 81.28 31.5258 81.7938 32.1772 82.1397C32.2743 82.196 32.3495 82.2834 32.3904 82.3877C32.5859 83.2025 33.2079 83.5213 33.6345 83.9995L33.6878 83.8401ZM20.0212 40.3917C20.0904 40.285 20.1498 40.1724 20.1989 40.0552C20.3767 39.6124 20.1989 38.9924 20.8032 38.7268C20.8032 38.7268 20.8032 38.7268 20.8032 38.6205C21.093 37.7351 21.1601 36.7924 20.9987 35.8751C20.8714 35.9783 20.7579 36.0973 20.661 36.2293C20.4477 36.7253 20.27 37.2212 20.0568 37.6994C19.7366 38.5115 19.3686 39.304 18.9549 40.0729C18.8547 40.2157 18.801 40.3857 18.801 40.56C18.801 40.7342 18.8547 40.9043 18.9549 41.0471L19.7724 39.0633H19.9324L20.0212 40.3917ZM39.8724 19.5797C39.6769 19.8277 39.588 20.1819 39.1793 19.9871V18.9598H39.0193L38.3085 20.4122V19.934C37.8109 20.058 37.8286 20.3413 38.0419 20.6779C37.7042 21.0676 37.2777 21.351 37.2244 21.9177C37.3061 21.942 37.3918 21.9497 37.4765 21.9405C37.5612 21.9313 37.6432 21.9053 37.7177 21.864C37.7922 21.8228 37.8577 21.7671 37.9103 21.7003C37.9629 21.6335 38.0016 21.5569 38.0241 21.4749C38.3085 20.7842 38.4684 20.7133 39.2682 20.9436C39.3453 20.752 39.4405 20.5681 39.5525 20.3945C39.7137 20.0811 39.9375 19.8038 40.2101 19.5797C40.6721 19.2786 40.7077 19.314 40.3878 18.8004C40.3878 18.6941 40.2634 18.5701 40.1923 18.393L39.3392 19.5443L39.8724 19.5797ZM86.0792 35.3614C86.3208 36.0257 86.6119 36.6711 86.9501 37.2921C87.6636 38.3209 88.2597 39.4259 88.7272 40.5866C88.8161 40.8168 89.0649 40.9939 89.2249 41.2065C88.6262 39.022 87.5317 37.004 86.0259 35.3083L86.0792 35.3614ZM95.0718 60.7963C95.6191 58.6265 95.6617 56.3607 95.1962 54.1719C95.1758 54.2353 95.1758 54.3034 95.1962 54.3668C95.1516 55.1573 95.1516 55.9497 95.1962 56.7402C95.3827 57.9494 95.3827 59.1798 95.1962 60.389C94.9296 60.4598 95.0007 60.6015 95.0185 60.7432L95.0718 60.7963ZM64.5397 17.6136V17.4897C64.2909 17.4897 64.0244 17.3125 63.7578 17.2594L61.9806 16.9229C61.3586 16.7812 60.7366 16.5863 60.2034 16.4978C59.7146 16.5256 59.2279 16.4151 58.7994 16.1789C58.6928 16.1789 58.4618 16.1789 58.3018 16.1789C58.4262 16.2852 58.5329 16.4801 58.6573 16.5155L64.5397 17.6136ZM23.9666 63.5595C24.434 66.5532 25.4651 69.4318 27.0056 72.0437C26.4013 70.6444 25.7438 69.2983 25.2284 67.899C24.713 66.4997 24.3931 65.0119 23.9666 63.5595ZM23.2202 45.6877C22.3316 47.459 21.6918 54.0834 22.296 55.2524C22.0597 52.035 22.3722 48.801 23.2202 45.6877ZM23.3979 75.7987C23.2833 76.0622 23.2768 76.3599 23.3797 76.628C23.4827 76.8962 23.687 77.1135 23.9488 77.2334C24.2433 77.4294 24.512 77.6615 24.7485 77.9242C25.0862 78.2784 25.3528 78.6858 25.6727 79.0578C25.9926 79.4297 25.8859 79.2526 25.9926 79.3589H26.0992C26.0283 79.1564 25.9391 78.9608 25.8326 78.7744C25.4061 78.1899 24.9618 77.6231 24.5175 77.0031C24.4177 76.8686 24.2823 76.7644 24.1265 76.702C23.8244 76.702 23.6289 76.5072 23.6467 76.153C23.6645 75.7987 23.5045 75.9404 23.3979 75.7987ZM17.4976 45.9003C18.0876 44.4103 18.5108 42.8599 18.7594 41.2773C18.62 41.345 18.5074 41.4572 18.4395 41.5962C18.2263 42.3224 18.0308 43.0309 17.8531 43.7571C17.8264 44.0974 17.7485 44.4318 17.622 44.749C17.5102 44.9169 17.4406 45.1091 17.419 45.3095C17.3973 45.5099 17.4243 45.7125 17.4976 45.9003ZM17 55.0044H16.8756C16.867 55.0572 16.867 55.111 16.8756 55.1638V55.4118C16.9822 56.4568 17.0711 57.5196 17.1955 58.5646C17.2399 58.7681 17.3117 58.9647 17.4088 59.1491H17.5154C17.5322 59.0257 17.5322 58.9006 17.5154 58.7771C17.5154 57.8207 17.5154 56.8642 17.3732 55.9077C17.2943 55.5899 17.1685 55.2855 17 55.0044ZM17.231 49.9564C17.2225 50.0388 17.2225 50.1219 17.231 50.2044C17.3169 51.3894 17.2452 52.5805 17.0178 53.7468C16.9815 53.9876 16.9815 54.2323 17.0178 54.473C17.0406 54.6444 17.0885 54.8115 17.16 54.969C17.6268 53.3276 17.6513 51.5925 17.231 49.9387V49.9564ZM37.5443 26.6647L43.6223 23.8307C41.4448 24.4116 39.3872 25.371 37.5443 26.6647ZM48.4384 16.5863H48.5451L48.6517 16.9052L48.8116 17.2063L49.096 16.976C49.1849 16.8697 49.2737 16.6749 49.3803 16.6572C49.8246 16.6572 49.8424 16.2852 49.878 15.8601L49.3626 16.3384L49.1493 16.0372C48.8446 16.2141 48.5301 16.3737 48.2074 16.5155C47.8164 16.6395 47.8697 16.9406 47.852 17.2063C47.8342 17.4719 48.0475 17.4365 48.2074 17.5959L48.4384 16.5863ZM23.0958 62.6384C23.473 65.5383 24.3572 68.3499 25.7082 70.9455C24.5199 68.2858 23.6433 65.4983 23.0958 62.6384ZM61.3408 19.7214V19.5797L55.4228 19.19V19.3317C57.3777 19.686 59.3681 19.5797 61.3408 19.7214ZM26.6501 81.8386C27.0056 80.9176 26.348 80.4393 25.8859 79.8194L25.2817 80.1559C25.3706 80.3331 25.4239 80.5279 25.5483 80.6165C25.6727 80.705 26.0992 80.8644 26.2947 81.0593C26.4417 81.3052 26.5609 81.5666 26.6501 81.8386ZM44.5997 20.5539C43.7296 20.5633 42.8774 20.8016 42.1294 21.2447L42.0228 21.7229L42.5204 21.5281C42.6355 21.4822 42.7544 21.4466 42.8758 21.4218C43.0358 21.4218 43.2313 21.4218 43.3379 21.227C43.3903 21.1336 43.4775 21.0646 43.5806 21.0348C43.6837 21.0049 43.7944 21.0167 43.8888 21.0676C43.9578 21.1019 44.0339 21.1197 44.111 21.1197C44.1881 21.1197 44.2641 21.1019 44.3331 21.0676C44.4569 20.9167 44.5477 20.7417 44.5997 20.5539ZM55.1207 15.8601C54.9963 15.8601 54.8541 15.7361 54.7474 15.8601C54.5404 15.9148 54.3468 16.0112 54.1787 16.1435C54.1787 16.1435 54.1787 16.3738 54.1787 16.4801H54.4809C54.7112 16.4539 54.9437 16.4539 55.174 16.4801C55.3636 16.5268 55.5481 16.592 55.7249 16.6749C55.7249 16.3029 55.9915 15.931 55.5827 15.683C55.5472 15.5413 55.2984 15.7538 55.1207 15.8601ZM54.5164 19.2786V19.1015C53.2209 18.9758 51.9135 19.0535 50.6421 19.3317V19.438L54.5164 19.2786ZM45.435 17.5074L45.826 17.7376L46.2169 17.224L46.3414 17.6314L46.5546 17.1708C46.9811 17.0114 47.3366 16.9052 47.6742 16.7635C47.6742 16.7635 47.6742 16.6218 47.6742 16.5509C47.6742 16.4801 47.4965 16.5509 47.4254 16.5509C47.3544 16.5509 46.8745 16.8343 46.5902 16.976C46.4509 17.0163 46.3029 17.0163 46.1636 16.976C45.666 16.8166 45.5949 16.852 45.435 17.4897V17.5074ZM97.2755 62.1956H97.1511C96.9023 63.1875 96.6357 64.1617 96.3869 65.1536C96.3869 65.1536 96.3869 65.2599 96.5113 65.3307C97.1058 64.3982 97.3744 63.296 97.2755 62.1956ZM69.1782 22.0063L69.2671 21.8646C69.0732 21.7006 68.8502 21.5744 68.6095 21.4927C67.8986 21.3332 67.17 21.2093 66.4591 21.0853H66.157V21.1915L69.1782 22.0063ZM22.5626 66.5706H22.7225C22.2427 65.4901 22.4027 64.2325 21.7806 63.1875C21.7453 63.2969 21.7453 63.4146 21.7806 63.5241C21.9228 64.3388 22.0472 65.1713 22.2249 65.9861C22.311 66.1949 22.4246 66.3915 22.5626 66.5706ZM17.0889 47.211C16.5557 47.9195 16.8578 48.7342 16.7512 49.4959C16.9632 49.1591 17.1027 48.7821 17.1609 48.3888C17.219 47.9954 17.1945 47.5944 17.0889 47.211ZM14.9918 46.2368H15.1517C15.2406 45.4752 15.9692 44.8198 15.3472 43.9519L14.9918 46.2368ZM89.7402 65.4724C90.2874 64.1 90.594 62.6441 90.6466 61.1683L89.7402 65.4724ZM41.7562 21.1915C41.4395 21.3852 41.1065 21.5511 40.761 21.6875C40.5891 21.7379 40.4386 21.8432 40.3326 21.9873C40.2267 22.1313 40.1711 22.306 40.1745 22.4845C40.8498 22.148 41.4896 21.9709 41.7918 21.1561L41.7562 21.1915ZM44.2976 89.5789V89.3841L41.2053 88.3568V88.5162L44.2976 89.5789ZM36.7445 86.1781L34.4697 84.4069C35.0111 85.2314 35.8109 85.8541 36.7445 86.1781ZM40.2989 89.7206C40.4966 89.9907 40.7753 90.1911 41.0947 90.293C41.4142 90.3949 41.7578 90.3929 42.0761 90.2874C41.5131 89.9653 40.8904 89.7605 40.2456 89.6852L40.2989 89.7206ZM17.9241 62.851H18.0485L17.6398 60.5661H17.5154L17.9241 62.851ZM30.2045 23.2993L30.3644 23.4056C30.5066 23.317 30.7377 23.2462 30.7554 23.1222C30.827 22.8733 30.827 22.6094 30.7554 22.3606C30.7554 22.1657 30.4178 22.1834 30.3467 22.3606C30.2756 22.5377 30.2578 23.0159 30.2045 23.2993ZM24.8729 69.8296C25.0881 70.8315 25.5525 71.7634 26.2236 72.5396L24.8729 69.8296ZM50.9443 15.931C50.5 15.931 50.4289 16.1967 50.5 16.4446C50.5711 16.6926 50.7843 16.852 50.8732 16.8166C50.9374 16.7954 50.9964 16.7609 51.0463 16.7154C51.0962 16.6698 51.1359 16.6143 51.1627 16.5524C51.1896 16.4905 51.203 16.4237 51.2021 16.3563C51.2012 16.2889 51.186 16.2224 51.1575 16.1612C51.1398 16.0372 50.9798 16.0372 50.9443 15.931ZM40.1745 20.8727L41.0987 20.0225L41.0098 19.8631L39.8369 20.3768L40.1745 20.8727ZM42.2183 18.145C41.5074 18.3576 41.3297 18.7827 41.5963 19.5089L42.2183 18.145ZM27.8586 35.1843C28.3694 34.7805 28.7063 34.1977 28.8005 33.5548L27.8586 35.1843ZM33.6345 20.5539L33.1546 20.3768C33.0263 20.5481 32.9569 20.7563 32.9569 20.9701C32.9569 21.184 33.0263 21.3921 33.1546 21.5635L33.6345 20.5539ZM19.7724 34.1924H19.9679C20.1362 34.002 20.2652 33.7805 20.3476 33.5404C20.4299 33.3003 20.4639 33.0463 20.4477 32.7931H20.2878L19.7724 34.1924ZM22.4915 60.017H22.6692L22.2605 57.803L22.4915 60.017ZM29.6003 29.5163C30.3111 29.2861 30.6133 28.8256 30.3467 28.365L29.6003 29.5163ZM18.013 63.5772L18.5817 65.6318C18.6272 64.9029 18.427 64.1798 18.013 63.5772ZM17.6398 38.036H17.4798L17.2844 39.2227C17.8886 38.7976 17.9419 38.5496 17.6398 38.036ZM53.8589 15.6122C53.2013 16.0372 53.2013 16.055 53.6101 16.5155C54.1432 16.0372 54.1432 16.0372 53.8589 15.6122ZM14.7607 60.1056L14.5119 58.2458H14.352L14.7607 60.1056ZM38.5395 22.6617L37.5265 23.8484C37.8156 23.8171 38.0816 23.6767 38.27 23.456C38.4584 23.2353 38.5548 22.951 38.5395 22.6617ZM18.3507 45.0501H18.2263V46.4848H18.3507C18.4704 46.2645 18.5332 46.0179 18.5332 45.7674C18.5332 45.5169 18.4704 45.2703 18.3507 45.0501ZM27.3788 31.9784L27.6098 32.1201L28.4451 30.5968H28.3207L27.3788 31.9784ZM28.3029 75.1256H28.4273L27.3432 73.3544H27.2366L28.3029 75.1256ZM22.1005 35.7334H21.9406L21.4074 37.2035H21.5674L22.1005 35.7334ZM57.6443 16.5686C57.6443 16.055 57.5021 16.0372 56.8268 16.4092L57.6443 16.5686ZM16.3424 52.5424H16.5024L16.5913 51.0546H16.4313L16.3424 52.5424ZM39.7835 22.6794L39.6769 22.4845L38.7705 23.0868L38.8594 23.2285L39.7835 22.6794ZM43.1957 16.4978V16.3206C43.0358 16.3206 42.8403 16.3206 42.7337 16.3206C42.627 16.3206 42.5737 16.604 42.4849 16.7635H42.6093L43.1957 16.4978ZM49.8602 19.3849V19.2786C49.6699 19.2362 49.4719 19.2433 49.2852 19.2991C49.0985 19.3549 48.9293 19.4577 48.7939 19.5974L49.8602 19.3849ZM95.054 51.6745C94.9953 51.7462 94.953 51.8298 94.9299 51.9195C94.9069 52.0091 94.9037 52.1027 94.9206 52.1937C94.9375 52.2848 94.9741 52.371 95.0279 52.4465C95.0816 52.522 95.1512 52.585 95.2318 52.631L95.054 51.6745ZM17.7997 57.4664H17.9775V56.2797H17.7997V57.4664ZM49.8424 90.4291V90.2343C49.6475 90.2745 49.457 90.3338 49.2737 90.4114C49.2737 90.4114 49.2737 90.6062 49.2737 90.8011L49.8424 90.4291ZM45.6305 20.2882L45.5238 20.0757L44.7952 20.4653L44.9018 20.6779L45.6305 20.2882ZM35.4117 25.0705L35.5183 25.1945L36.4247 24.5215L36.318 24.3798L35.4117 25.0705ZM21.3719 59.5919H21.1942L21.4074 61.186H21.5318L21.3719 59.5919ZM46.7501 19.9517V20.1465L47.692 19.7746V19.6151L46.7501 19.9517ZM45.2573 18.9066V19.0306L45.9681 18.8358V18.6055C45.6127 18.393 45.4705 18.7472 45.2573 18.9066ZM42.5204 90.6594L43.409 90.8188C43.1602 90.4291 42.9469 90.2697 42.5204 90.6594ZM19.6302 36.6013H19.417V37.5046H19.6302V36.6013ZM27.2544 81.7323L27.0944 81.874L27.6276 82.4585L27.7698 82.3346L27.2544 81.7323ZM14.6719 47.9195H14.8318L14.9918 46.8567H14.8141L14.6719 47.9195ZM52.135 90.9782V90.7656H51.6374V90.9959L52.135 90.9782ZM33.279 26.7709L34.0254 26.2573C33.6345 26.0979 33.4034 26.3635 33.279 26.7709ZM22.4737 54.8981H22.5804V53.552L22.4737 54.8981ZM18.3684 48.9999H18.1907V50.1512H18.3151L18.3684 48.9999ZM16.0226 42.7652H15.8626L15.6316 43.6154H15.8093L16.0226 42.7652ZM19.5769 69.5108H19.7724L19.5947 68.9795H19.3992C19.417 69.1743 19.417 69.3337 19.5414 69.5108H19.5769ZM51.7085 16.3738L52.1528 15.6122C51.5485 15.8601 51.5307 15.8955 51.6729 16.4092L51.7085 16.3738ZM53.0947 15.4882L52.9703 15.3996L52.5793 15.7361V15.8601C52.6859 15.8601 52.8459 15.8601 52.8992 15.8601C52.9697 15.7569 53.0236 15.6434 53.0591 15.5236L53.0947 15.4882ZM23.4334 61.8414H23.5578L23.2379 60.6901H23.1313L23.4334 61.8414ZM95.0896 62.3373H94.9474L94.7875 63.3823H94.9119L95.0896 62.3373ZM95.0896 53.8177H95.214V53.18H95.054C94.8763 53.3749 95.0363 53.6051 95.1429 53.8177H95.0896ZM17.4088 71.0518H17.2666L17.6753 72.1854H17.7642L17.4088 71.0518Z" fill="white"/>
<path d="M83.5613 74.2689C83.3186 74.7704 83.0921 75.2719 82.8171 75.7572C82.3101 76.717 81.7707 77.6553 81.199 78.572C80.2476 80.0824 79.0371 81.4131 77.6232 82.503C77.3852 82.6786 77.1305 82.8303 76.8627 82.956L76.7656 82.8104C77.3319 82.2603 77.8659 81.6618 78.4646 81.1927C79.132 80.5833 79.7144 79.8868 80.1958 79.122C80.746 78.3455 81.3446 77.6014 81.911 76.8249L82.0242 76.6793L83.0436 74.7542C83.1568 74.5601 83.2863 74.3659 83.4157 74.188L83.5613 74.2689Z" fill="white"/>
<path d="M87.8601 62.4588C87.8601 62.3456 87.7145 62.2 87.7469 62.1029C87.8601 61.6823 87.6498 61.1323 88.0867 60.825H88.2808L88.0705 62.4427L87.8601 62.4588Z" fill="white"/>
<path d="M85.9062 61.8119L86.3431 58.8677H86.4402C86.4496 59.874 86.2684 60.873 85.9062 61.8119Z" fill="white"/>
<path d="M89.5109 71.1801C89.3977 70.4197 89.8183 69.3844 90.2229 69.4168L89.5109 71.1801Z" fill="white"/>
<path d="M82.2341 78.8806C82.1047 79.7056 81.4575 79.9807 80.875 80.3042C81.0692 80.0615 81.2795 79.8189 81.4899 79.5924C81.7002 79.3659 81.9429 79.1394 82.2341 78.8806Z" fill="white"/>
<path d="M86.3906 77.3581C86.3906 77.2287 86.3906 77.0507 86.3906 76.9537C86.6632 76.445 86.9828 75.963 87.3453 75.5139L86.5362 77.3905L86.3906 77.3581Z" fill="white"/>
<path d="M87.9689 62.6538C88.0822 63.0744 88.1631 63.4303 87.8557 63.7538C87.6291 63.4465 87.6453 63.0906 87.9689 62.6538Z" fill="white"/>
<path d="M62.0947 17.9725L60.9297 17.7946C61.1077 17.5196 61.4475 17.5519 62.0947 17.9725Z" fill="white"/>
<path d="M82.0953 74.3015L81.2377 75.9192H81.1406L81.982 74.3015H82.0953Z" fill="white"/>
<path d="M90.7471 67.5708L90.2779 69.1885H90.1484L90.6177 67.5708H90.7471Z" fill="white"/>
<path d="M87.7036 64.5948C87.7036 64.8051 87.7036 65.0154 87.5904 65.2095C87.4771 65.4036 87.38 65.2095 87.3638 65.2095C87.2182 64.9345 87.3638 64.7566 87.558 64.5786L87.7036 64.5948Z" fill="white"/>
<path d="M58.2677 83.9085L57.5234 84.1674C57.7338 83.682 57.847 83.6497 58.2677 83.9085Z" fill="white"/>
<path d="M83.5 82.0027L84.0178 81.1292L84.1472 81.21L83.6456 82.0836L83.5 82.0027Z" fill="white"/>
<path d="M77.8125 83.1018L78.573 82.6165C78.5244 83.0371 78.2817 83.1988 77.8125 83.1018Z" fill="white"/>
<path d="M76.8102 86.9023L76.1953 87.0156C76.1953 86.8538 76.3086 86.6758 76.3571 86.6597C76.5108 86.6782 76.6624 86.7106 76.8102 86.7567V86.9023Z" fill="white"/>
<path d="M73.5703 86.6776L74.169 86.2893C74.169 86.7584 74.0719 86.807 73.5703 86.6776Z" fill="white"/>
<path d="M30.6041 30.2835C30.3129 30.6394 30.0378 31.0114 29.7304 31.3673C29.7304 31.3673 29.5039 31.3673 29.3906 31.3673V31.2541L30.5232 30.1541L30.6041 30.2835Z" fill="white"/>
</svg>
