<svg width="73" height="73" viewBox="0 0 73 73" fill="none" xmlns="http://www.w3.org/2000/svg">
  <path
    d="M23.5854 4.38086C12.9934 4.38086 4.38086 12.9934 4.38086 23.5854V50.1763C4.38086 60.7684 12.9934 69.3809 23.5854 69.3809H50.1763C60.7684 69.3809 69.3809 60.7684 69.3809 50.1763V23.5854C69.3809 12.9934 60.7684 4.38086 50.1763 4.38086H23.5854ZM54.6081 16.199C56.2331 16.199 57.5627 17.5286 57.5627 19.1536C57.5627 20.7786 56.2331 22.1081 54.6081 22.1081C52.9831 22.1081 51.6536 20.7786 51.6536 19.1536C51.6536 17.5286 52.9831 16.199 54.6081 16.199ZM36.8809 20.6309C45.8479 20.6309 53.1309 27.9138 53.1309 36.8809C53.1309 45.8479 45.8479 53.1309 36.8809 53.1309C27.9138 53.1309 20.6309 45.8479 20.6309 36.8809C20.6309 27.9138 27.9138 20.6309 36.8809 20.6309ZM36.8809 23.5854C29.5536 23.5854 23.5854 29.5536 23.5854 36.8809C23.5854 44.2081 29.5536 50.1763 36.8809 50.1763C44.2081 50.1763 50.1763 44.2081 50.1763 36.8809C50.1763 29.5536 44.2081 23.5854 36.8809 23.5854Z"
    fill="black" />
</svg>
  