<svg width="74" height="74" viewBox="0 0 74 74" fill="none" xmlns="http://www.w3.org/2000/svg">
  <path
    d="M23.2045 5C12.6162 5 4 13.6162 4 24.2045V50.7955C4 61.3838 12.6162 70 23.2045 70H49.7955C60.3838 70 69 61.3838 69 50.7955V24.2045C69 13.6162 60.3838 5 49.7955 5H23.2045ZM23.2045 7.95455H49.7955C58.7869 7.95455 66.0455 15.2131 66.0455 24.2045V50.7955C66.0455 59.7869 58.7869 67.0455 49.7955 67.0455H23.2045C14.2131 67.0455 6.95455 59.7869 6.95455 50.7955V24.2045C6.95455 15.2131 14.2131 7.95455 23.2045 7.95455ZM54.2273 16.8182C53.4437 16.8182 52.6922 17.1295 52.1381 17.6835C51.584 18.2376 51.2727 18.9891 51.2727 19.7727C51.2727 20.5563 51.584 21.3078 52.1381 21.8619C52.6922 22.416 53.4437 22.7273 54.2273 22.7273C55.0109 22.7273 55.7624 22.416 56.3165 21.8619C56.8705 21.3078 57.1818 20.5563 57.1818 19.7727C57.1818 18.9891 56.8705 18.2376 56.3165 17.6835C55.7624 17.1295 55.0109 16.8182 54.2273 16.8182ZM36.5 21.25C27.5429 21.25 20.25 28.5429 20.25 37.5C20.25 46.4571 27.5429 53.75 36.5 53.75C45.4571 53.75 52.75 46.4571 52.75 37.5C52.75 28.5429 45.4571 21.25 36.5 21.25ZM36.5 24.2045C43.8604 24.2045 49.7955 30.1396 49.7955 37.5C49.7955 44.8604 43.8604 50.7955 36.5 50.7955C29.1396 50.7955 23.2045 44.8604 23.2045 37.5C23.2045 30.1396 29.1396 24.2045 36.5 24.2045Z"
    fill="black" />
</svg>
  