<svg width="60" height="20" viewBox="0 0 60 20" fill="none" xmlns="http://www.w3.org/2000/svg">
  <path
    d="M5.42574 4.78174C5.42574 4.87997 5.3824 4.91176 5.28125 4.92909C5.28196 4.89073 5.29732 4.85409 5.32419 4.82669C5.35106 4.79929 5.38739 4.78321 5.42574 4.78174Z"
    fill="white" />
  <path d="M13.2898 15.9722L13.232 16.0329H13.2031V15.9404H13.284L13.2898 15.9722Z" fill="white" />
  <path
    d="M10.0019 0C8.02395 3.30182e-07 6.09042 0.586338 4.44574 1.68489C2.80106 2.78343 1.51909 4.34486 0.761905 6.17177C0.00471663 7.99867 -0.193691 10.009 0.191766 11.9487C0.577222 13.8883 1.52924 15.6701 2.92745 17.0688C4.32566 18.4676 6.10728 19.4204 8.04708 19.8069C9.98687 20.1934 11.9977 19.9962 13.8254 19.2403C15.6531 18.4843 17.2156 17.2035 18.3153 15.5597C19.4151 13.916 20.0026 11.9832 20.0038 10.0057C20.0045 8.69198 19.7464 7.39102 19.2441 6.1771C18.7418 4.96319 18.0052 3.86013 17.0763 2.93094C16.1475 2.00176 15.0446 1.26465 13.8308 0.761749C12.6169 0.258846 11.3158 -2.19341e-07 10.0019 0ZM9.92097 16.784C8.58155 16.7686 7.27662 16.3574 6.17048 15.602C5.06433 14.8467 4.20641 13.7811 3.70474 12.5393C3.20306 11.2976 3.08005 9.93515 3.35119 8.62363C3.62234 7.31211 4.27551 6.11011 5.22849 5.16895C6.18146 4.2278 7.39163 3.58956 8.70665 3.3346C10.0217 3.07964 11.3827 3.21934 12.6185 3.73613C13.8543 4.25292 14.9095 5.12368 15.6513 6.2388C16.3931 7.35392 16.7884 8.66354 16.7873 10.0028C16.787 10.9003 16.6086 11.7888 16.2624 12.6169C15.9161 13.4449 15.409 14.1961 14.7704 14.8268C14.1317 15.4575 13.3743 15.9553 12.5418 16.2913C11.7094 16.6272 10.8186 16.7947 9.92097 16.784Z"
    fill="white" />
  <path
    d="M7.0205 3.1554C6.95384 3.11112 6.96019 3.08264 7.04907 3.03203V3.1554C7.0699 3.16294 7.09203 3.1663 7.11417 3.16529C7.13632 3.16428 7.15804 3.15892 7.1781 3.14951C7.19816 3.1401 7.21615 3.12684 7.23105 3.11048C7.24595 3.09411 7.25745 3.07498 7.26491 3.05417H7.20142C7.20142 2.94029 7.31569 3.00672 7.36648 2.95294V3.0605C7.42996 3.07948 7.45218 3.0605 7.45536 2.9909C7.45853 2.9213 7.45536 2.89283 7.53788 2.896L7.51249 3.03519H7.54741C7.54741 2.98774 7.5728 2.94029 7.58867 2.89283C7.59341 2.87079 7.60358 2.85026 7.61826 2.83311C7.63293 2.81595 7.65166 2.8027 7.67275 2.79454C7.69383 2.78639 7.71663 2.78358 7.73907 2.78638C7.76152 2.78918 7.78292 2.7975 7.80134 2.81058L8.06479 2.70302C8.06479 2.76629 8.06479 2.80425 8.01718 2.83273C7.9892 2.85945 7.96564 2.89042 7.94735 2.92447L7.92513 2.89283C7.9161 2.92407 7.90868 2.95575 7.90291 2.98774C7.89984 3.0351 7.87937 3.07967 7.84541 3.11293C7.81144 3.1462 7.76637 3.16582 7.71881 3.16806C7.69337 3.17025 7.66898 3.1792 7.64818 3.19398C7.62739 3.20875 7.61095 3.22881 7.60058 3.25207C7.59021 3.27533 7.58628 3.30093 7.58921 3.32622C7.59214 3.3515 7.60182 3.37554 7.61724 3.39583L7.65533 3.30409C7.69977 3.33256 7.72833 3.31991 7.74738 3.26929C7.75416 3.25884 7.76362 3.2504 7.77479 3.24484C7.78595 3.23927 7.79841 3.23679 7.81086 3.23766C7.83109 3.24895 7.85345 3.25595 7.87652 3.25822C7.8996 3.26049 7.92289 3.25798 7.94495 3.25085C7.96701 3.24372 7.98735 3.23212 8.00469 3.21679C8.02204 3.20145 8.03602 3.18271 8.04575 3.16173C8.04575 3.13959 8.07114 3.11112 8.09018 3.06999L7.91243 3.03203C7.87117 2.95294 7.99179 2.95927 8.01718 2.90232V3.01305C8.09267 2.91641 8.14187 2.802 8.16002 2.68088C8.34729 2.64608 8.52187 2.61128 8.69645 2.58281C8.74401 2.57977 8.79172 2.57977 8.83928 2.58281C8.90569 2.5646 8.97373 2.55295 9.04243 2.54801C9.16305 2.54801 9.28366 2.54801 9.40746 2.54801C9.56951 2.55217 9.73167 2.54689 9.8931 2.53219C9.8931 2.64608 9.92802 2.66506 10.0105 2.61761L9.94706 2.54801V2.52587C10.0384 2.52944 10.1296 2.53789 10.22 2.55117C10.2391 2.55117 10.255 2.5923 10.2772 2.61761C10.3248 2.51954 10.4232 2.57964 10.4994 2.57015C10.5755 2.56066 10.5914 2.57015 10.5978 2.49739C10.6008 2.47762 10.6109 2.45963 10.6263 2.44678C10.6485 2.58914 10.6517 2.58281 10.8009 2.60812C11.0009 2.64608 11.2008 2.6967 11.4008 2.73466C11.4504 2.74084 11.5005 2.74084 11.55 2.73466C11.5886 2.72514 11.6289 2.72514 11.6674 2.73466C11.8521 2.79071 12.0299 2.86711 12.1975 2.96243C12.2411 2.99826 12.2935 3.02185 12.3493 3.03075C12.4051 3.03964 12.4623 3.03353 12.5149 3.01305L12.5372 3.12377L12.5975 3.04468C12.7149 3.11112 12.8292 3.18071 12.9498 3.23766C13.0704 3.2946 13.1752 3.3294 13.2894 3.37369C13.3212 3.37369 13.3593 3.39583 13.391 3.41165L14.0068 3.728C14.0577 3.75187 14.1057 3.7816 14.1496 3.81658C14.502 4.04761 14.8324 4.31022 15.1368 4.60113C15.2352 4.71502 15.3685 4.79727 15.4733 4.91748C15.578 5.0377 15.7558 5.23384 15.8954 5.37619C15.9617 5.45207 16.0163 5.53737 16.0573 5.62927C16.0827 5.68305 16.1462 5.71469 16.2001 5.76531V5.88236L16.2763 5.83807L16.3557 6.01206C16.3757 6.02557 16.3929 6.04275 16.4064 6.06268C16.5302 6.3031 16.6477 6.54353 16.7747 6.78079C16.8009 6.81376 16.8188 6.85246 16.8271 6.89371C16.8354 6.93496 16.8337 6.97758 16.8223 7.01806C16.8032 7.075 16.9048 7.21736 16.9619 7.249C16.9898 7.26321 17.013 7.28519 17.0286 7.31227C17.1155 7.49539 17.1887 7.68466 17.2476 7.87854C17.3152 8.04594 17.3393 8.22769 17.3174 8.40684L17.365 8.3499C17.365 8.55236 17.4761 8.72952 17.4095 8.9225C17.4049 8.9369 17.4049 8.95238 17.4095 8.96678C17.4297 9.00651 17.4466 9.04776 17.4603 9.09016C17.574 9.65862 17.5815 10.2431 17.4825 10.8143C17.4539 10.9819 17.4285 11.1559 17.4095 11.3268C17.385 11.5602 17.3447 11.7916 17.2889 12.0196C17.2286 12.2379 17.146 12.4498 17.073 12.6523H17.0445C17.0445 12.608 17.0603 12.5669 17.073 12.5257C17.1302 12.3169 17.1873 12.1082 17.2413 11.893C17.2461 11.8754 17.2461 11.8569 17.2413 11.8393C17.2413 11.7918 17.2032 11.7444 17.1841 11.7001L17.1302 11.7697H17.1079C17.146 11.6083 17.1809 11.4533 17.219 11.2825C17.2381 11.2034 17.219 11.1116 17.2793 11.0452C17.2286 10.9756 17.3016 10.9313 17.3111 10.8744C17.3206 10.8174 17.3111 10.789 17.3111 10.7478C17.3111 10.6466 17.3111 10.5422 17.3111 10.4315C17.3111 10.4062 17.3111 10.3809 17.3111 10.3398C17.2786 10.3709 17.2537 10.409 17.2383 10.4513C17.2229 10.4935 17.2174 10.5387 17.2222 10.5833C17.2256 10.7245 17.1952 10.8644 17.1333 10.9914C17.1111 11.0768 17.0825 11.1559 17.0667 11.2414C17.0508 11.3268 17.0413 11.428 17.0222 11.5197C16.9619 11.4533 17.0857 11.3616 16.9778 11.3015C17.0825 11.2129 17.0318 11.0895 17.0698 10.9851H17.0445C17.0445 11.0136 17.0159 11.0421 17.0064 11.0705C16.9111 11.4407 16.8223 11.8139 16.7207 12.1809C16.6667 12.3739 16.5874 12.5605 16.5207 12.7504C16.4763 12.8737 16.435 13.0003 16.3969 13.1236C16.3969 13.1616 16.362 13.1932 16.3969 13.2439C16.4318 13.2945 16.3747 13.3546 16.3493 13.4084C16.2954 13.5191 16.235 13.6235 16.1779 13.7247H16.1589L16.2224 13.4938H16.2065L16.1589 13.5824H16.0986C16.0896 13.6612 16.0715 13.7386 16.0446 13.8133C16.0097 13.8829 15.9716 13.9525 15.9335 14.0221C15.8954 14.0917 15.87 14.1708 15.7716 14.1866C15.7716 14.1012 15.7716 14.0158 15.8605 13.9778C15.8667 13.98 15.8734 13.98 15.8795 13.9778C15.924 13.8829 15.9716 13.7911 16.016 13.6962L16.0668 13.5918C16.0802 13.5623 16.0908 13.5316 16.0986 13.5001C16.1058 13.4418 16.1197 13.3845 16.1398 13.3293L16.2128 13.4179C16.4785 12.7815 16.6754 12.1186 16.8 11.4407H16.781L16.5271 12.4751H16.4826V12.4403H16.4604C16.1996 13.2367 15.8403 13.9976 15.3907 14.7054L15.4701 14.5504C15.451 14.5725 15.4288 14.5915 15.4129 14.6137C15.358 14.6949 15.2987 14.773 15.2352 14.8478C15.1527 14.9395 15.0574 15.0218 14.9654 15.1072C14.8733 15.1926 14.7527 15.3001 14.648 15.3887C14.448 15.5406 14.2385 15.6861 14.0354 15.8316L14.0131 15.8063L14.083 15.7494C14.3052 15.569 14.5432 15.4045 14.7495 15.2052C15.0051 14.9383 15.2249 14.6395 15.4034 14.3163C15.6226 13.9832 15.8036 13.6267 15.943 13.2533C15.9589 13.2122 16.0033 13.1806 16.0224 13.1395C16.0414 13.0983 16.0636 13.0129 16.0859 12.9497H16.0605C16.0065 13.0446 15.9462 13.1395 15.8986 13.2407C15.8669 13.3201 15.8404 13.4015 15.8192 13.4843V13.5128C15.7145 13.6646 15.6097 13.8291 15.5018 13.9683C15.5431 13.8766 15.578 13.7817 15.6224 13.6931C15.6669 13.6045 15.724 13.5096 15.7653 13.4115C15.8859 13.13 16.0002 12.8453 16.1144 12.5637C16.1144 12.5352 16.1144 12.4973 16.1144 12.4656C16.1113 12.4341 16.1113 12.4023 16.1144 12.3707C16.1906 12.0892 16.2731 11.8108 16.3398 11.5292C16.3715 11.39 16.3684 11.2445 16.3874 11.1022C16.3874 11.0104 16.416 10.9187 16.4318 10.8143L16.3684 10.8333C16.3656 10.6877 16.3794 10.5423 16.4096 10.3999C16.4525 10.1072 16.4525 9.80989 16.4096 9.51724C16.4096 9.34957 16.4096 9.17874 16.3874 9.00791C16.382 8.95787 16.3736 8.90822 16.362 8.85923C16.3398 8.75483 16.3207 8.65043 16.2954 8.54287C16.2477 8.33092 16.2001 8.1158 16.1462 7.91017C16.1302 7.86791 16.1078 7.82841 16.0795 7.79312H16.0541C16.0763 7.92282 16.0954 8.05253 16.124 8.18223C16.1525 8.31194 16.2097 8.45746 16.235 8.59982C16.3107 9.08416 16.3373 9.57487 16.3144 10.0645C16.2881 10.8376 16.1447 11.6024 15.8891 12.3328C15.8676 12.4026 15.84 12.4703 15.8065 12.5352L15.8764 12.2189L15.7557 12.5352C15.9092 12.0272 16.0155 11.5062 16.0732 10.9788C16.0541 11.0642 16.0414 11.1338 16.0224 11.2002C15.8478 11.7222 15.7081 12.2695 15.5304 12.801C15.458 12.9816 15.3732 13.1571 15.2765 13.3261C15.273 13.3331 15.2682 13.3392 15.2621 13.3442C15.2561 13.3491 15.2491 13.3526 15.2415 13.3546C15.2521 13.337 15.2638 13.3201 15.2765 13.304C15.4318 13.0229 15.5502 12.7231 15.6288 12.4119C15.705 12.1113 15.8002 11.8139 15.8827 11.5166C15.9249 11.3769 15.9557 11.2341 15.9748 11.0895C16.0256 10.5422 16.07 9.99176 16.1113 9.44131C16.1113 9.39386 16.0763 9.34324 16.0763 9.29579C16.0763 9.24834 16.1144 9.20405 16.1144 9.15976C16.107 9.05322 16.0911 8.94744 16.0668 8.84341V9.00475C16.016 8.72319 15.9652 8.41001 15.8986 8.09998C15.8647 7.93214 15.8148 7.76794 15.7494 7.60964C15.5834 7.18633 15.359 6.78813 15.0828 6.42648C14.8924 6.19554 14.7115 5.95512 14.5242 5.71785C14.505 5.69087 14.4814 5.66734 14.4543 5.64826C14.2544 5.49957 14.0544 5.34772 13.8481 5.2022C13.7084 5.10729 13.5656 5.02188 13.4196 4.93646C13.3645 4.91022 13.3071 4.88904 13.2482 4.87319C13.2482 4.87319 13.2133 4.87319 13.2069 4.85421C13.1434 4.76247 13.0387 4.74349 12.9466 4.6992C12.8546 4.65491 12.7943 4.6296 12.7149 4.5948C12.363 4.4394 11.9913 4.33295 11.6103 4.27845C11.4266 4.252 11.2452 4.21182 11.0675 4.15824L11.3469 4.1361C10.6887 3.98112 10.002 3.99418 9.35032 4.17406C9.42015 4.08864 9.42015 4.08864 9.70583 4.00639C9.39685 3.99034 9.08764 4.03329 8.79485 4.13293L8.81389 4.07599L8.66788 4.1266C8.43934 4.20569 8.2108 4.27845 7.98544 4.36387C7.60236 4.48074 7.22884 4.62669 6.86814 4.80043C6.68086 4.90799 6.48407 4.99974 6.30631 5.11679C5.9018 5.39984 5.53953 5.73853 5.23028 6.12278C4.77232 6.7021 4.45705 7.38038 4.30978 8.10314C4.21602 8.42909 4.15854 8.76433 4.13837 9.10282C4.11401 9.58479 4.1374 10.068 4.2082 10.5454C4.24013 10.7917 4.29214 11.0351 4.36374 11.273C4.52879 11.7317 4.72242 12.1778 4.90334 12.627C4.90652 12.6373 4.90652 12.6483 4.90334 12.6586C4.67551 12.2356 4.48641 11.7931 4.33834 11.3363C4.33834 11.3837 4.36056 11.4312 4.37008 11.4786C4.37961 11.5261 4.39865 11.5704 4.41452 11.6178L4.46531 11.7633C4.65268 12.286 4.88859 12.7902 5.16997 13.2692C5.43135 13.6855 5.75212 14.0617 6.12221 14.3859C6.37202 14.5962 6.64711 14.7747 6.94114 14.9174C7.03637 14.968 7.12207 15.0312 7.21412 15.0882L7.24586 15.1103C7.45218 15.2021 7.65215 15.3001 7.85847 15.3856C7.92513 15.414 7.99813 15.414 8.06797 15.4362C8.1378 15.4583 8.2965 15.5184 8.41395 15.5437C8.61066 15.5916 8.80988 15.6286 9.01069 15.6545C9.27097 15.6829 9.53125 15.6987 9.79153 15.7051C9.95529 15.7143 10.1196 15.7026 10.2803 15.6703C10.4517 15.626 10.6263 15.6292 10.7946 15.6007C10.976 15.5761 11.1495 15.5113 11.3024 15.4109C11.3595 15.3802 11.422 15.3609 11.4865 15.3539L11.9468 15.2748C12.0011 15.2729 12.0551 15.2829 12.1051 15.3043C12.155 15.3256 12.1996 15.3577 12.2356 15.3982C12.2555 15.4173 12.2807 15.4299 12.3079 15.4344C12.3351 15.4389 12.363 15.4351 12.388 15.4235C12.4224 15.4154 12.4583 15.4154 12.4927 15.4235L12.2388 15.626L12.4292 15.5912L12.2324 15.7937H12.388C12.3231 15.8332 12.2606 15.8765 12.2007 15.9234C12.1648 15.9505 12.1382 15.9881 12.1245 16.0309C12.0962 16.1257 12.0781 16.2233 12.0706 16.322L12.1912 16.2334C12.1947 16.2632 12.1922 16.2933 12.1838 16.3221C12.1755 16.3509 12.1614 16.3777 12.1425 16.401C12.1235 16.4243 12.1001 16.4436 12.0736 16.4577C12.0471 16.4719 12.018 16.4805 11.988 16.4833C12.0706 16.6794 11.9468 16.7997 11.8293 16.9673L11.9944 16.9895C11.9595 17.0179 11.9373 17.0496 11.9087 17.0686C11.7754 17.1606 11.6272 17.2291 11.4707 17.271C11.3786 17.2963 11.2929 17.3501 11.2008 17.3817C10.7799 17.5117 10.3397 17.5685 9.89945 17.5494C9.68043 17.5494 9.45824 17.5494 9.23923 17.5494C8.92323 17.5321 8.60964 17.4845 8.30285 17.407C8.0727 17.3692 7.84486 17.3185 7.62041 17.2552C7.32839 17.1666 7.04589 17.0559 6.75704 16.9388C6.64595 16.8977 6.53168 16.8566 6.42058 16.8091C6.38855 16.8019 6.35678 16.7934 6.32536 16.7838C6.28092 16.7554 6.23331 16.7332 6.1857 16.7079L6.14443 16.6763C6.10952 16.6541 6.0746 16.6098 6.04286 16.613C6.01112 16.6162 5.94129 16.5687 5.89368 16.5339C5.77941 16.4485 5.65561 16.3726 5.54452 16.2808C5.30963 16.0847 5.0684 15.8949 4.85256 15.6798C4.63671 15.4646 4.37961 15.1609 4.15107 14.8857C4.03564 14.7608 3.92956 14.6275 3.83365 14.4871C3.67177 14.2277 3.51624 13.9557 3.3734 13.6899C3.33531 13.6235 3.30357 13.5507 3.26548 13.4843C3.22739 13.4179 3.16073 13.3229 3.26548 13.2249C3.09408 13.2249 3.11312 13.0888 3.06234 13.0066C3.0909 12.9655 3.16073 12.9402 3.1036 12.8801C3.04647 12.8199 3.06234 12.8611 3.02107 12.8421L2.92267 12.6934C2.92057 12.6338 2.91313 12.5745 2.90045 12.5162C2.84649 12.3296 2.78936 12.1461 2.72905 11.9595H2.76079C2.76079 11.9974 2.78936 12.0386 2.80206 12.0797C2.81475 12.1208 2.82428 12.1651 2.84015 12.2031C2.85602 12.241 2.88141 12.2853 2.90045 12.3264H2.92267C2.90045 12.2537 2.88141 12.1809 2.86236 12.105C2.84332 12.0291 2.78936 11.8582 2.75127 11.7349C2.75127 11.7032 2.75127 11.6494 2.68779 11.6526C2.68779 11.6526 2.66557 11.621 2.66239 11.602C2.66239 11.5261 2.63383 11.4501 2.62113 11.3742C2.60843 11.2983 2.62113 11.2477 2.51956 11.2603C2.51956 11.1939 2.56399 11.1306 2.49734 11.0768C2.49734 11.0768 2.49734 11.0294 2.51956 11.0041C2.54178 10.9788 2.55765 10.944 2.55447 10.9187C2.55847 10.7851 2.53693 10.652 2.49099 10.5264C2.46983 10.4579 2.46334 10.3856 2.47194 10.3144C2.41465 9.66424 2.44991 9.00923 2.57669 8.36888C2.64652 8.05253 2.73857 7.73618 2.8211 7.43881C2.82858 7.40481 2.8463 7.37391 2.87189 7.35023L2.90045 7.57167H2.9322C2.93537 7.52111 2.93537 7.47039 2.9322 7.41983C2.89805 7.29435 2.91397 7.16056 2.97663 7.04653C3.07543 6.86727 3.15318 6.67726 3.20835 6.48026V6.46128C3.30992 6.42964 3.29722 6.32209 3.34484 6.24932C3.36462 6.29657 3.36976 6.34865 3.35957 6.39883C3.34939 6.44901 3.32436 6.49501 3.2877 6.53088C3.26547 6.54629 3.24966 6.56926 3.24323 6.59548C3.2368 6.62169 3.2402 6.64934 3.25278 6.67324C3.39363 6.52485 3.48269 6.33513 3.50672 6.13227L3.4591 6.27463C3.43826 6.24618 3.4255 6.21266 3.42215 6.17759C3.4188 6.14252 3.42498 6.10719 3.44006 6.07533C3.5473 5.83303 3.69788 5.61221 3.88444 5.42365C3.89731 5.41062 3.91234 5.39992 3.92888 5.39201C3.93194 5.41723 3.93194 5.44272 3.92888 5.46794C3.87174 5.56284 3.81461 5.65458 3.75113 5.74316C3.72919 5.76584 3.71471 5.79463 3.70961 5.82572C3.7045 5.8568 3.70902 5.88869 3.72256 5.91715C3.7416 5.88868 3.76065 5.8697 3.77334 5.84756C3.87492 5.70836 3.97332 5.566 4.07171 5.42681C4.09711 5.38885 4.13202 5.35405 4.07171 5.30976L4.01458 5.38568C4.00603 5.37919 3.99909 5.37082 3.99432 5.36121C3.98955 5.35161 3.98707 5.34104 3.98707 5.33032C3.98707 5.31961 3.98955 5.30904 3.99432 5.29943C3.99909 5.28983 4.00603 5.28146 4.01458 5.27496C4.12568 5.15791 4.23677 5.04086 4.33199 4.92065C4.37643 4.87003 4.41452 4.81625 4.45896 4.76564L4.51292 4.70869L4.55736 4.8384C4.65893 4.81625 4.7002 4.75298 4.7002 4.62644C4.69511 4.59805 4.70073 4.56879 4.71596 4.54427C4.73119 4.51975 4.75496 4.5017 4.78272 4.49357V4.65808L5.07157 4.40183L5.09379 4.4303L5.12871 4.34489H5.08427C5.08427 4.19304 5.13505 4.13609 5.28424 4.11079C5.25629 4.1336 5.23172 4.16022 5.21123 4.18988C5.19647 4.22217 5.18581 4.25618 5.17949 4.29111C5.22438 4.28696 5.26694 4.26931 5.30152 4.2405C5.3361 4.21168 5.36107 4.17306 5.37312 4.12977L5.32233 4.11395V4.00955C5.42073 3.94945 5.53182 3.92098 5.58896 3.81342C5.58896 3.81342 5.58896 3.78811 5.61118 3.78494L5.78258 3.71218C5.75719 3.74698 5.74449 3.77862 5.72227 3.80393C5.69535 3.83399 5.66673 3.86251 5.63657 3.88934H5.72227V3.97476L5.79528 3.93363C5.79528 3.90516 5.76036 3.88301 5.76671 3.8672C5.77875 3.78361 5.80909 3.70369 5.85559 3.6331C5.93358 3.57377 6.02031 3.52682 6.11269 3.4939H6.12856L6.06191 3.74382H6.0873C6.12539 3.65208 6.21426 3.57932 6.19839 3.46227C6.20159 3.44343 6.21179 3.42649 6.22696 3.41481C6.27081 3.37477 6.32276 3.34456 6.37932 3.32623C6.48894 3.2852 6.59508 3.23548 6.69673 3.17755L6.90305 3.08581V3.21235C6.96019 3.25031 6.98558 3.19969 7.0205 3.1554ZM5.56991 15.7715C5.5376 15.7206 5.50039 15.6729 5.45882 15.6292C5.36677 15.5437 5.26519 15.4646 5.16362 15.3856C5.04279 15.2604 4.92938 15.1284 4.82399 14.9901C4.51597 14.6453 4.23377 14.2784 3.97966 13.8924C3.89042 13.764 3.81186 13.6286 3.74478 13.4875C3.68129 13.3577 3.64003 13.2217 3.58607 13.0888C3.53211 12.956 3.44006 12.7725 3.39245 12.5858C3.31627 12.3075 3.25913 12.0259 3.19882 11.7444C3.04465 11.1038 2.95009 10.4504 2.91633 9.79246C2.91633 9.76083 2.91633 9.71337 2.91633 9.70388C2.91633 9.69439 2.87824 9.62796 2.87824 9.58683L2.89728 9.27048C2.89728 9.24201 2.89728 9.21354 2.89728 9.18507H2.87824C2.86806 9.20398 2.86059 9.22421 2.85602 9.24517C2.85602 9.43815 2.81475 9.63429 2.81793 9.82726C2.80142 10.1824 2.82806 10.5383 2.89728 10.887C2.92713 11.0332 2.94728 11.1811 2.95759 11.3299C2.96565 11.3621 2.96565 11.3958 2.95759 11.428C2.94189 11.4484 2.93338 11.4734 2.93338 11.4992C2.93338 11.5249 2.94189 11.5499 2.95759 11.5704C2.96089 11.5924 2.96089 11.6148 2.95759 11.6368C2.95759 11.7127 2.97346 11.7886 2.98933 11.8614C3.0052 11.9342 3.03059 11.9721 3.04012 12.0354C3.09771 12.1859 3.13507 12.3433 3.15121 12.5036C3.15121 12.5036 3.15121 12.5321 3.17343 12.5447C3.19565 12.5574 3.202 12.5985 3.21152 12.627C3.25913 12.763 3.30357 12.899 3.34801 13.0382C3.39245 13.1774 3.41467 13.2565 3.44641 13.3546H3.3861C3.39069 13.3924 3.39069 13.4306 3.3861 13.4685C3.3861 13.5254 3.3861 13.5507 3.44006 13.5792C3.46922 13.5961 3.49248 13.6215 3.50672 13.652C3.54481 13.7405 3.57655 13.8323 3.61781 13.9398C3.64638 13.8639 3.68129 13.8892 3.70986 13.9177C3.73341 13.9413 3.75369 13.9679 3.77017 13.9968C3.88444 14.1961 3.98919 14.4017 4.11298 14.5978C4.21699 14.7494 4.32931 14.8952 4.44944 15.0344C4.46531 15.0566 4.49705 15.0629 4.52244 15.0787C4.57939 15.1057 4.63271 15.1397 4.68115 15.1799C4.83668 15.3381 4.99857 15.4963 5.13823 15.6703C5.16061 15.6907 5.18508 15.7087 5.21123 15.7241L5.2271 15.7082C5.19536 15.6671 5.1668 15.6197 5.13188 15.5817C5.02078 15.4552 4.90652 15.3318 4.79542 15.2084C4.61534 15.0284 4.44578 14.8383 4.28756 14.639C4.09711 14.3732 3.92888 14.0917 3.76065 13.807C3.54839 13.4541 3.38804 13.0727 3.28453 12.6744C3.22739 12.4403 3.16708 12.2031 3.11312 11.969C3.08456 11.8393 3.06551 11.7096 3.04012 11.5798H3.06868C3.04012 11.776 3.2147 11.9215 3.17661 12.1208C3.17418 12.1355 3.17418 12.1504 3.17661 12.1651C3.26231 12.4182 3.34484 12.6713 3.44006 12.9212C3.67793 13.585 4.01734 14.2082 4.44626 14.7687C4.69702 15.085 4.98587 15.3729 5.2525 15.6798C5.51903 15.963 5.83668 16.1938 6.18887 16.3599C6.38249 16.4643 6.58881 16.5497 6.77609 16.6763C6.94256 16.7773 7.12673 16.846 7.31887 16.8787C7.43948 16.8977 7.55693 16.9294 7.67755 16.9483L8.28381 17.0464H8.34412V16.9705C8.46473 16.9705 8.46473 16.9705 8.50282 16.9199L8.20763 16.8851L8.23937 16.9831L8.0394 16.961L8.15049 16.8946C7.63192 16.7833 7.12656 16.6179 6.64277 16.401L6.70308 16.3188C6.62055 16.2967 6.54755 16.2524 6.48724 16.265C6.43921 16.272 6.39022 16.2686 6.34365 16.2549C6.29708 16.2413 6.25402 16.2177 6.21744 16.1859C6.1857 16.1669 6.16665 16.129 6.13808 16.1005C6.11288 16.1048 6.08711 16.1048 6.06191 16.1005C5.94129 16.0183 5.82702 15.9297 5.70957 15.8443L5.65244 15.8854C5.65244 15.7494 5.65244 15.7494 5.56991 15.7715ZM6.12221 3.90199L6.1 3.88301C6.06825 3.88301 6.02064 3.88301 6.00477 3.92098C5.95398 4.00006 5.91589 4.08548 5.87146 4.16773L5.7921 4.30692H5.76036L5.83971 4.10762L5.76671 4.08548L5.69688 4.28794H5.68101L5.66196 4.21835L5.56039 4.31325H5.57626L5.61118 4.29427C5.61118 4.41132 5.61118 4.40816 5.5223 4.46826C5.43342 4.52837 5.26519 4.63277 5.13823 4.72135C5.10331 4.74349 5.08427 4.8036 5.05253 4.80992C4.91604 4.83523 4.90969 4.99657 4.79859 5.0377C4.7732 5.17689 4.6018 5.20536 4.56371 5.33507C4.56371 5.33507 4.54149 5.33507 4.53197 5.33507C4.50703 5.34669 4.48443 5.36278 4.46531 5.38252C4.405 5.46794 4.35421 5.55651 4.30025 5.64193C4.30025 5.65775 4.27169 5.68305 4.26216 5.67989C4.18598 5.67989 4.17011 5.74316 4.13837 5.7748C4.10663 5.80643 4.05267 5.93614 3.99236 6.00257C3.92171 6.08719 3.86882 6.18508 3.83683 6.29045C3.82972 6.31749 3.82442 6.34496 3.82096 6.3727C3.85164 6.3469 3.87744 6.31582 3.89714 6.28096C3.92188 6.25797 3.94422 6.23253 3.96379 6.20503C3.96379 6.17656 3.96379 6.13544 4.01775 6.1386L3.97014 6.37586H3.99554C4.02728 6.32525 4.06537 6.27463 4.09711 6.22402C4.27221 5.92062 4.50007 5.65068 4.77003 5.42681C4.78305 5.41515 4.79381 5.40121 4.80177 5.38568C4.85573 5.32874 4.90334 5.26547 4.96048 5.20853C5.01761 5.15158 5.10331 5.08515 5.16997 5.01872C5.34196 4.7976 5.55813 4.61447 5.8048 4.48092C5.83007 4.47737 5.85571 4.47737 5.88098 4.48092L6.09682 4.28478V4.33223C6.173 4.26264 6.24918 4.19304 6.32853 4.1266C6.40789 4.06017 6.41424 4.06966 6.45232 4.03486C6.49041 4.00006 6.49359 3.97476 6.48724 3.96843C6.48089 3.9621 6.48724 3.91149 6.50946 3.88934C6.53168 3.8672 6.58564 3.81974 6.5539 3.7628L6.46185 3.81974L6.48407 3.67422C6.47475 3.6747 6.46566 3.67721 6.45743 3.68158C6.4492 3.68596 6.44204 3.69208 6.43645 3.69953C6.4199 3.73018 6.39508 3.7556 6.36479 3.77293C6.3345 3.79026 6.29995 3.79881 6.26505 3.7976C6.20474 3.7976 6.17935 3.85454 6.16348 3.91781L6.21744 3.90199C6.21744 4.03486 6.10634 4.04752 6.03016 4.09497H6.01429L6.12221 3.90199ZM3.93523 12.4435H3.95427C3.93523 12.3771 3.90983 12.3138 3.89396 12.2474C3.78922 11.8266 3.68764 11.409 3.57655 10.9819C3.56043 10.9362 3.55185 10.8881 3.55115 10.8396C3.57655 10.577 3.50037 10.3144 3.55115 10.0519C3.56703 9.88563 3.56703 9.71827 3.55115 9.55204C3.55115 9.43499 3.55115 9.3211 3.55115 9.20721C3.54651 9.17469 3.54651 9.14167 3.55115 9.10914C3.61146 8.75167 3.67495 8.39735 3.73843 8.03987C3.73843 8.02089 3.75747 7.98926 3.73843 7.98293C3.71938 7.9766 3.73843 7.89119 3.73843 7.82476L3.77334 7.89435C3.77334 7.86588 3.77334 7.8469 3.79874 7.82792C3.90504 7.44349 4.04416 7.06883 4.21455 6.70803C4.25582 6.6416 4.28438 6.56568 4.32882 6.49924C4.46531 6.29994 4.60497 6.1038 4.74463 5.90766C4.7732 5.86654 4.79859 5.82225 4.82399 5.78112C4.76368 5.82858 4.72876 5.89817 4.67163 5.93614C4.5781 6.00783 4.50842 6.10595 4.47166 6.21769C4.46832 6.23008 4.46295 6.24183 4.45579 6.25249L4.43674 6.27463V6.21136C4.32882 6.34423 4.30025 6.5119 4.19551 6.6416C4.12635 6.76267 4.06589 6.88847 4.01458 7.01806C3.94752 7.12823 3.89423 7.24615 3.85587 7.36921C3.83683 7.44197 3.77652 7.50524 3.75747 7.56851C3.66542 7.85639 3.59877 8.15376 3.52576 8.44797C3.50354 8.53022 3.4845 8.61247 3.46545 8.69789C3.46545 8.69789 3.46545 8.7137 3.46545 8.72003C3.50989 8.79596 3.46545 8.86239 3.44641 8.93515C3.44162 8.96661 3.44162 8.9986 3.44641 9.03006C3.44641 9.11231 3.44641 9.19139 3.46863 9.27048C3.46967 9.27783 3.46967 9.28528 3.46863 9.29263L3.43689 9.25783C3.43689 9.29579 3.43689 9.32743 3.41784 9.35906C3.36502 9.50831 3.35404 9.66909 3.3861 9.8241C3.39246 9.84471 3.39246 9.86676 3.3861 9.88737C3.3861 10.0234 3.35753 10.1626 3.34484 10.3018C3.34484 10.3714 3.34484 10.4378 3.40514 10.4884C3.40514 10.4884 3.40514 10.5264 3.42419 10.5485C3.44323 10.5707 3.42419 10.6719 3.44958 10.732C3.48411 10.8455 3.50749 10.962 3.51941 11.08C3.53577 11.2538 3.56981 11.4255 3.62099 11.5925C3.6559 11.7475 3.70351 11.9089 3.74795 12.0512C3.74795 12.0892 3.77335 12.1271 3.78922 12.1651C3.80509 12.2031 3.84635 12.2853 3.83365 12.2948C3.82096 12.3043 3.80826 12.3707 3.83365 12.4024C3.9511 12.7187 4.07171 13.0034 4.20185 13.2976C4.24915 13.4131 4.33567 13.5083 4.44626 13.5665C4.20223 13.1882 4.00606 12.7812 3.86222 12.3549L3.93523 12.4435ZM6.01747 14.9743H6.03969C6.01234 14.9272 5.97929 14.8837 5.94129 14.8446C5.67102 14.5768 5.41766 14.2926 5.18267 13.9936C4.71878 13.4047 4.35427 12.7443 4.10346 12.0386C4.09266 12.0154 4.07992 11.9932 4.06537 11.9721H4.03363L4.21138 12.4751C4.28438 12.6681 4.36374 12.8611 4.43992 13.054C4.45622 13.0794 4.47539 13.1027 4.49705 13.1236C4.5161 13.1426 4.54466 13.1521 4.55736 13.1711C4.82382 13.6076 5.12755 14.0204 5.46517 14.4049C5.53377 14.5171 5.63133 14.6088 5.74766 14.6706C5.76501 14.6807 5.77844 14.6963 5.78575 14.7149C5.82067 14.8604 5.93177 14.9174 6.00794 15.0028L6.01747 14.9743ZM3.57655 7.2142C3.58889 7.19514 3.59952 7.17502 3.60829 7.15409C3.64003 7.075 3.60829 6.96428 3.71621 6.91683C3.71621 6.91683 3.71621 6.91683 3.71621 6.89784C3.76797 6.73971 3.77996 6.57133 3.75113 6.4075C3.72839 6.42593 3.70812 6.4472 3.69082 6.47077C3.65273 6.55935 3.62099 6.64793 3.5829 6.73334C3.52571 6.87838 3.46 7.01992 3.3861 7.15725C3.36821 7.18276 3.35862 7.21313 3.35862 7.24425C3.35862 7.27537 3.36821 7.30574 3.3861 7.33125L3.53211 6.97693H3.56068L3.57655 7.2142ZM7.12207 3.49706C7.08715 3.54135 7.07128 3.60462 6.99828 3.56983V3.38634H6.96971L6.84274 3.64575V3.56034C6.75387 3.58248 6.75704 3.6331 6.79513 3.6932C6.73482 3.7628 6.65864 3.81342 6.64912 3.91465C6.66371 3.91898 6.67902 3.92036 6.69415 3.91871C6.70928 3.91707 6.72393 3.91242 6.73724 3.90506C6.75054 3.89769 6.76224 3.88775 6.77163 3.87581C6.78103 3.86388 6.78794 3.85019 6.79196 3.83556C6.84274 3.71218 6.87131 3.69953 7.01415 3.74066C7.02792 3.70644 7.04493 3.6736 7.06494 3.64259C7.09373 3.58661 7.1337 3.5371 7.18238 3.49706C7.26491 3.44328 7.27126 3.44961 7.21412 3.35787C7.21412 3.33889 7.1919 3.31674 7.1792 3.28511L7.02685 3.49074L7.12207 3.49706ZM15.3749 6.31576C15.418 6.4344 15.47 6.54967 15.5304 6.66058C15.6578 6.84434 15.7643 7.0417 15.8478 7.249C15.8637 7.29012 15.9081 7.32176 15.9367 7.35972C15.8298 6.96956 15.6343 6.60913 15.3653 6.30627L15.3749 6.31576ZM16.981 10.8586C17.0787 10.471 17.0863 10.0663 17.0032 9.67541C16.9995 9.68673 16.9995 9.6989 17.0032 9.71021C16.9952 9.8514 16.9952 9.99293 17.0032 10.1341C17.0365 10.3501 17.0365 10.5698 17.0032 10.7858C16.9556 10.7985 16.9683 10.8238 16.9714 10.8491L16.981 10.8586ZM11.5278 3.14591V3.12377C11.4833 3.12377 11.4357 3.09213 11.3881 3.08264L11.0707 3.02254C10.9596 2.99723 10.8485 2.96243 10.7533 2.94661C10.666 2.95159 10.5791 2.93185 10.5025 2.88967C10.4835 2.88967 10.4422 2.88967 10.4137 2.88967C10.4359 2.90865 10.4549 2.94345 10.4771 2.94978L11.5278 3.14591ZM4.28121 11.3521C4.36469 11.8868 4.54885 12.4009 4.82399 12.8674C4.71607 12.6175 4.59862 12.3771 4.50657 12.1271C4.41452 11.8772 4.35739 11.6115 4.28121 11.3521ZM4.14789 8.16009C3.98919 8.47644 3.87492 9.65959 3.98284 9.86839C3.94063 9.29375 3.99644 8.71614 4.14789 8.16009ZM4.17964 13.5381C4.15917 13.5851 4.15801 13.6383 4.1764 13.6862C4.19479 13.7341 4.23128 13.7729 4.27803 13.7943C4.33064 13.8293 4.37863 13.8708 4.42087 13.9177C4.48118 13.981 4.52879 14.0537 4.58593 14.1202C4.64306 14.1866 4.62402 14.155 4.64306 14.1739H4.66211C4.64944 14.1378 4.6335 14.1028 4.61449 14.0695C4.53831 13.9651 4.45896 13.8639 4.37961 13.7532C4.36178 13.7292 4.3376 13.7105 4.30978 13.6994C4.25582 13.6994 4.2209 13.6646 4.22407 13.6013C4.22725 13.5381 4.19868 13.5634 4.17964 13.5381ZM3.12582 8.19805C3.23119 7.93193 3.30677 7.65502 3.35118 7.37237C3.32628 7.38445 3.30617 7.4045 3.29405 7.42932C3.25596 7.55902 3.22104 7.68556 3.1893 7.81526C3.18455 7.87605 3.17064 7.93577 3.14804 7.99242C3.12807 8.02241 3.11564 8.05675 3.11177 8.09254C3.1079 8.12832 3.11272 8.16451 3.12582 8.19805ZM3.03694 9.8241H3.01472C3.01318 9.83353 3.01318 9.84314 3.01472 9.85257V9.89686C3.03377 10.0835 3.04964 10.2733 3.07186 10.46C3.0798 10.4963 3.09261 10.5314 3.10995 10.5644H3.12899C3.132 10.5423 3.132 10.52 3.12899 10.4979C3.12899 10.3271 3.12899 10.1563 3.1036 9.98544C3.0895 9.92867 3.06704 9.8743 3.03694 9.8241ZM3.07821 8.9225C3.07668 8.93722 3.07668 8.95206 3.07821 8.96678C3.09354 9.17844 3.08074 9.39118 3.04012 9.59949C3.03364 9.64248 3.03364 9.6862 3.04012 9.72919C3.0442 9.7598 3.05275 9.78964 3.06551 9.81777C3.14889 9.52461 3.15327 9.21472 3.07821 8.91933V8.9225ZM6.70626 4.76247L7.79182 4.25631C7.4029 4.36007 7.03541 4.53141 6.70626 4.76247ZM8.65201 2.96243H8.67105L8.6901 3.01937L8.71867 3.07315L8.76945 3.03203C8.78532 3.01305 8.80119 2.97825 8.82024 2.97508C8.89959 2.97508 8.90277 2.90865 8.90911 2.83273L8.81706 2.91814L8.77897 2.86436C8.72454 2.89594 8.66838 2.92446 8.61075 2.94978C8.54091 2.97192 8.55044 3.0257 8.54726 3.07315C8.54409 3.12061 8.58218 3.11428 8.61075 3.14275L8.65201 2.96243ZM4.12568 11.1876C4.19305 11.7055 4.35097 12.2077 4.59228 12.6713C4.38003 12.1962 4.22346 11.6984 4.12568 11.1876ZM10.9564 3.52237V3.49706L9.89945 3.42747V3.45278C10.2486 3.51605 10.6041 3.49706 10.9564 3.52237ZM4.7605 14.6168C4.82399 14.4523 4.70654 14.3669 4.62402 14.2562L4.5161 14.3163C4.53197 14.3479 4.54149 14.3827 4.56371 14.3985C4.58593 14.4144 4.66211 14.4428 4.69702 14.4776C4.72327 14.5216 4.74456 14.5682 4.7605 14.6168ZM7.96639 3.67106C7.81099 3.67274 7.65879 3.7153 7.52519 3.79444L7.50614 3.87985L7.59502 3.84505C7.61557 3.83685 7.63682 3.8305 7.6585 3.82607C7.68707 3.82607 7.72198 3.82607 7.74103 3.79127C7.75039 3.7746 7.76596 3.76227 7.78437 3.75694C7.80279 3.75161 7.82256 3.75372 7.83943 3.7628C7.85175 3.76893 7.86533 3.77212 7.8791 3.77212C7.89288 3.77212 7.90646 3.76893 7.91878 3.7628C7.94089 3.73586 7.95711 3.70461 7.96639 3.67106ZM9.84549 2.83273C9.82327 2.83273 9.79788 2.81058 9.77883 2.83273C9.74185 2.84249 9.70728 2.85972 9.67726 2.88334C9.67726 2.88334 9.67726 2.92447 9.67726 2.94345H9.73122C9.77235 2.93877 9.81388 2.93877 9.85501 2.94345C9.88888 2.95179 9.92184 2.96345 9.95341 2.97825C9.95341 2.91181 10.001 2.84538 9.92802 2.80109C9.92167 2.77578 9.87723 2.81375 9.84549 2.83273ZM9.73757 3.44328V3.41165C9.50617 3.38919 9.27268 3.40307 9.0456 3.45278V3.47176L9.73757 3.44328ZM8.11558 3.12693L8.18541 3.16806L8.25524 3.07632L8.27746 3.14908L8.31555 3.06683C8.39173 3.03835 8.45521 3.01937 8.51552 2.99407C8.51552 2.99407 8.51552 2.96876 8.51552 2.9561C8.51552 2.94345 8.48378 2.9561 8.47108 2.9561C8.45839 2.9561 8.37268 3.00672 8.3219 3.03203C8.29702 3.03923 8.2706 3.03923 8.24572 3.03203C8.15684 3.00356 8.14415 3.00988 8.11558 3.12377V3.12693ZM17.3746 11.1085H17.3523C17.3079 11.2856 17.2603 11.4596 17.2159 11.6368C17.2159 11.6368 17.2159 11.6558 17.2381 11.6684C17.3442 11.5019 17.3922 11.305 17.3746 11.1085ZM12.3562 3.93047L12.3721 3.90516C12.3375 3.87586 12.2976 3.85333 12.2547 3.83872C12.1277 3.81025 11.9976 3.78811 11.8706 3.76596H11.8166V3.78494L12.3562 3.93047ZM4.03045 11.8899H4.05902C3.97332 11.6969 4.00188 11.4723 3.89079 11.2856C3.88448 11.3052 3.88448 11.3262 3.89079 11.3457C3.91618 11.4913 3.9384 11.64 3.97014 11.7855C3.98552 11.8228 4.0058 11.8579 4.03045 11.8899ZM3.05281 8.43215C2.95759 8.55869 3.01155 8.70421 2.9925 8.84024C3.03038 8.7801 3.05529 8.71276 3.06567 8.64251C3.07606 8.57226 3.07168 8.50063 3.05281 8.43215ZM2.67826 8.25816H2.70683C2.7227 8.12213 2.85284 8.00508 2.74175 7.85006L2.67826 8.25816ZM16.0287 11.6937C16.1265 11.4486 16.1812 11.1886 16.1906 10.925L16.0287 11.6937ZM7.45853 3.78494C7.40196 3.81953 7.34248 3.84917 7.28078 3.87352C7.25008 3.88253 7.2232 3.90134 7.20427 3.92706C7.18535 3.95279 7.17542 3.98399 7.17603 4.01588C7.29665 3.95577 7.41092 3.92414 7.46488 3.77862L7.45853 3.78494ZM7.91243 15.9993V15.9645L7.36013 15.781V15.8095L7.91243 15.9993ZM6.56342 15.3919L6.15713 15.0755C6.25381 15.2228 6.39667 15.334 6.56342 15.3919ZM7.19825 16.0246C7.23355 16.0728 7.28333 16.1086 7.34038 16.1268C7.39744 16.145 7.45882 16.1447 7.51566 16.1258C7.41511 16.0683 7.30388 16.0317 7.18873 16.0183L7.19825 16.0246ZM3.202 11.2255H3.22422L3.15121 10.8174H3.12899L3.202 11.2255ZM5.39533 4.1614L5.4239 4.18038C5.44929 4.16457 5.49056 4.15191 5.49373 4.12977C5.50652 4.08532 5.50652 4.03818 5.49373 3.99374C5.49373 3.95894 5.43342 3.9621 5.42073 3.99374C5.40803 4.02537 5.40486 4.11079 5.39533 4.1614ZM4.44309 12.472C4.48152 12.6509 4.56447 12.8173 4.68433 12.956L4.44309 12.472ZM9.09956 2.84538C9.02021 2.84538 9.00751 2.89283 9.02021 2.93712C9.03291 2.98141 9.071 3.00988 9.08687 3.00356C9.09834 2.99977 9.10887 2.99361 9.11779 2.98548C9.1267 2.97735 9.13379 2.96743 9.13858 2.95638C9.14338 2.94532 9.14577 2.93338 9.14561 2.92134C9.14545 2.9093 9.14274 2.89743 9.13765 2.88651C9.13448 2.86436 9.10591 2.86436 9.09956 2.84538ZM7.17603 3.728L7.34109 3.57615L7.32522 3.54768L7.11572 3.63942L7.17603 3.728ZM7.54106 3.24082C7.41409 3.27878 7.38235 3.35471 7.42996 3.48441L7.54106 3.24082ZM4.97635 6.28412C5.06757 6.21201 5.12774 6.10791 5.14458 5.99308L4.97635 6.28412ZM6.00794 3.67106L5.92224 3.63942C5.89932 3.67003 5.88693 3.7072 5.88693 3.7454C5.88693 3.7836 5.89932 3.82077 5.92224 3.85138L6.00794 3.67106ZM3.53211 6.10697H3.56703C3.59709 6.07297 3.62013 6.03339 3.63484 5.99051C3.64954 5.94763 3.65562 5.90227 3.65273 5.85705H3.62416L3.53211 6.10697ZM4.01775 10.7194H4.0495L3.97649 10.3239L4.01775 10.7194ZM5.28741 5.2718C5.41438 5.23067 5.46834 5.14842 5.42073 5.06617L5.28741 5.2718ZM3.21787 11.3552L3.31944 11.7222C3.32756 11.592 3.29181 11.4629 3.21787 11.3552ZM3.15121 6.79345H3.12264L3.08773 7.0054C3.19565 6.92948 3.20517 6.88519 3.15121 6.79345ZM9.62012 2.78844C9.50268 2.86436 9.50268 2.86753 9.57569 2.94978C9.67091 2.86436 9.67091 2.86436 9.62012 2.78844ZM2.637 10.7352L2.59256 10.403H2.56399L2.637 10.7352ZM6.88401 4.04752L6.70308 4.25947C6.75471 4.25388 6.80223 4.2288 6.83587 4.18938C6.86952 4.14996 6.88675 4.0992 6.88401 4.04752ZM3.27818 8.0462H3.25596V8.30245H3.27818C3.29957 8.26311 3.31077 8.21907 3.31077 8.17432C3.31077 8.12958 3.29957 8.08554 3.27818 8.0462ZM4.89064 5.71153L4.93191 5.73683L5.08109 5.46477H5.05887L4.89064 5.71153ZM5.0557 13.4179H5.07792L4.8843 13.1015H4.86525L5.0557 13.4179ZM3.94792 6.38219H3.91936L3.82413 6.64476H3.8527L3.94792 6.38219ZM10.2962 2.95927C10.2962 2.86753 10.2708 2.86436 10.1502 2.9308L10.2962 2.95927ZM2.9195 9.38437H2.94807L2.96394 9.11863H2.93537L2.9195 9.38437ZM7.1062 4.05068L7.08715 4.01588L6.92527 4.12344L6.94114 4.14875L7.1062 4.05068ZM7.71564 2.94661V2.91498C7.68707 2.91498 7.65215 2.91498 7.63311 2.91498C7.61406 2.91498 7.60454 2.96559 7.58867 2.99407H7.61089L7.71564 2.94661ZM8.90594 3.46227V3.44328C8.87196 3.43571 8.8366 3.43698 8.80325 3.44695C8.7699 3.45692 8.73968 3.47527 8.71549 3.50023L8.90594 3.46227ZM16.9778 9.22936C16.9673 9.24217 16.9597 9.2571 16.9556 9.27311C16.9515 9.28913 16.9509 9.30584 16.954 9.3221C16.957 9.33835 16.9635 9.35376 16.9731 9.36724C16.9827 9.38073 16.9951 9.39197 17.0095 9.40019L16.9778 9.22936ZM3.17978 10.2638H3.21152V10.0519H3.17978V10.2638ZM8.90277 16.1511V16.1163C8.86795 16.1235 8.83392 16.1341 8.80119 16.148C8.80119 16.148 8.80119 16.1828 8.80119 16.2176L8.90277 16.1511ZM8.15049 3.62361L8.13145 3.58564L8.00131 3.65524L8.02035 3.6932L8.15049 3.62361ZM6.32536 4.47776L6.3444 4.4999L6.50629 4.37969L6.48724 4.35438L6.32536 4.47776ZM3.81778 10.6434H3.78604L3.82413 10.9282H3.84635L3.81778 10.6434ZM8.35046 3.5635V3.5983L8.51869 3.53186V3.50339L8.35046 3.5635ZM8.08384 3.37685V3.399L8.2108 3.3642V3.32307C8.14732 3.28511 8.12193 3.34838 8.08384 3.37685ZM7.59502 16.1923L7.75373 16.2207C7.70929 16.1511 7.6712 16.1227 7.59502 16.1923ZM3.50672 6.5372H3.46863V6.69854H3.50672V6.5372ZM4.86843 14.5978L4.83986 14.6232L4.93508 14.7275L4.96048 14.7054L4.86843 14.5978ZM2.62113 8.55869H2.6497L2.67826 8.36888H2.64652L2.62113 8.55869ZM9.31223 16.2492V16.2112H9.22336V16.2524L9.31223 16.2492ZM5.94446 4.78145L6.07778 4.68971C6.00794 4.66124 5.96668 4.70869 5.94446 4.78145ZM4.01458 9.80512H4.03363V9.56469L4.01458 9.80512ZM3.28135 8.75167H3.24961V8.95729H3.27183L3.28135 8.75167ZM2.86236 7.63811H2.8338L2.79253 7.78996H2.82428L2.86236 7.63811ZM3.49719 12.415H3.53211L3.50037 12.3201H3.46545C3.46863 12.3549 3.46863 12.3834 3.49085 12.415H3.49719ZM9.23605 2.92447L9.3154 2.78844C9.20748 2.83273 9.20431 2.83905 9.2297 2.9308L9.23605 2.92447ZM9.48364 2.76629L9.46142 2.75047L9.39159 2.81058V2.83273C9.41063 2.83273 9.4392 2.83273 9.44872 2.83273C9.46131 2.81429 9.47095 2.79401 9.47729 2.77262L9.48364 2.76629ZM4.18598 11.0452H4.2082L4.15107 10.8396H4.13202L4.18598 11.0452ZM16.9841 11.1338H16.9588L16.9302 11.3204H16.9524L16.9841 11.1338ZM16.9841 9.61214H17.0064V9.49826H16.9778C16.9461 9.53305 16.9746 9.57418 16.9937 9.61214H16.9841ZM3.10995 12.6902H3.08456L3.15756 12.8927H3.17343L3.10995 12.6902Z"
    fill="white" />
  <path
    d="M14.9247 13.2644C14.8813 13.354 14.8409 13.4436 14.7918 13.5303C14.7012 13.7017 14.6049 13.8693 14.5028 14.033C14.3328 14.3028 14.1166 14.5404 13.8641 14.7351C13.8216 14.7665 13.7761 14.7936 13.7283 14.816L13.7109 14.79C13.8121 14.6918 13.9074 14.5849 14.0144 14.5011C14.1336 14.3922 14.2376 14.2678 14.3236 14.1312C14.4218 13.9926 14.5288 13.8596 14.6299 13.721L14.6501 13.695L14.8322 13.3511C14.8524 13.3165 14.8756 13.2818 14.8987 13.25L14.9247 13.2644Z"
    fill="white" />
  <path
    d="M15.6929 11.1556C15.6929 11.1354 15.6669 11.1094 15.6727 11.092C15.6929 11.0169 15.6554 10.9187 15.7334 10.8638H15.7681L15.7305 11.1527L15.6929 11.1556Z"
    fill="white" />
  <path d="M15.3438 11.04L15.4218 10.5142H15.4391C15.4408 10.6939 15.4084 10.8723 15.3438 11.04Z"
    fill="white" />
  <path d="M15.9877 12.713C15.9675 12.5772 16.0426 12.3923 16.1149 12.3981L15.9877 12.713Z"
    fill="white" />
  <path
    d="M14.6881 14.0884C14.6649 14.2357 14.5493 14.2849 14.4453 14.3426C14.48 14.2993 14.5176 14.256 14.5551 14.2155C14.5927 14.1751 14.636 14.1346 14.6881 14.0884Z"
    fill="white" />
  <path
    d="M15.4297 13.8162C15.4297 13.7931 15.4297 13.7613 15.4297 13.744C15.4784 13.6531 15.5355 13.567 15.6002 13.4868L15.4557 13.822L15.4297 13.8162Z"
    fill="white" />
  <path
    d="M15.7115 11.1904C15.7318 11.2656 15.7462 11.3291 15.6913 11.3869C15.6508 11.332 15.6537 11.2684 15.7115 11.1904Z"
    fill="white" />
  <path d="M11.0909 3.21052L10.8828 3.17874C10.9146 3.12962 10.9753 3.1354 11.0909 3.21052Z"
    fill="white" />
  <path d="M14.6627 13.2705L14.5095 13.5594H14.4922L14.6425 13.2705H14.6627Z" fill="white" />
  <path d="M16.2085 12.0684L16.1247 12.3573H16.1016L16.1854 12.0684H16.2085Z" fill="white" />
  <path
    d="M15.665 11.5366C15.665 11.5741 15.665 11.6117 15.6448 11.6464C15.6245 11.681 15.6072 11.6464 15.6043 11.6464C15.5783 11.5973 15.6043 11.5655 15.639 11.5337L15.665 11.5366Z"
    fill="white" />
  <path d="M10.4064 14.9872L10.2734 15.0334C10.311 14.9467 10.3312 14.9409 10.4064 14.9872Z"
    fill="white" />
  <path d="M14.9141 14.6458L15.0065 14.4897L15.0297 14.5042L14.9401 14.6602L14.9141 14.6458Z"
    fill="white" />
  <path d="M13.8984 14.8425L14.0343 14.7559C14.0256 14.831 13.9822 14.8599 13.8984 14.8425Z"
    fill="white" />
  <path
    d="M13.7192 15.5214L13.6094 15.5416C13.6094 15.5127 13.6296 15.4809 13.6383 15.478C13.6657 15.4813 13.6928 15.4871 13.7192 15.4954V15.5214Z"
    fill="white" />
  <path d="M13.1406 15.481L13.2476 15.4116C13.2476 15.4954 13.2302 15.5041 13.1406 15.481Z"
    fill="white" />
  <path
    d="M5.46674 5.40886C5.41472 5.47242 5.3656 5.53888 5.31069 5.60244C5.31069 5.60244 5.27023 5.60244 5.25 5.60244V5.58222L5.45229 5.38574L5.46674 5.40886Z"
    fill="white" />
  <path
    d="M28.4973 16.5213H26.4223C25.6161 16.5213 24.96 15.981 24.96 15.3136V8.73461H27.272C27.7318 8.73461 28.1729 8.55197 28.498 8.22686C28.8232 7.90175 29.0059 7.4608 29.0059 7.00103C29.0059 6.54125 28.8232 6.10031 28.498 5.7752C28.1729 5.45009 27.7318 5.26744 27.272 5.26744H24.96V3.70722C24.96 3.24744 24.7774 2.8065 24.4522 2.48139C24.127 2.15628 23.686 1.97363 23.2261 1.97363C22.7663 1.97363 22.3252 2.15628 22 2.48139C21.6749 2.8065 21.4922 3.24744 21.4922 3.70722V15.3251C21.4922 17.9024 23.7058 20 26.4223 20H28.4973C28.9571 20 29.3982 19.8174 29.7233 19.4923C30.0485 19.1672 30.2312 18.7262 30.2312 18.2664C30.2312 17.8067 30.0485 17.3657 29.7233 17.0406C29.3982 16.7155 28.9571 16.5329 28.4973 16.5329V16.5213Z"
    fill="white" />
  <path
    d="M37.627 19.9995C36.0723 19.9998 34.5283 19.7421 33.0581 19.2368C32.8414 19.1717 32.6407 19.0622 32.4688 18.9151C32.297 18.768 32.1578 18.5866 32.0601 18.3826C31.9624 18.1786 31.9085 17.9565 31.9017 17.7304C31.8949 17.5043 31.9354 17.2793 32.0206 17.0698C32.0918 16.8619 32.2049 16.6708 32.353 16.5085C32.5011 16.3461 32.681 16.2159 32.8815 16.126C33.0821 16.036 33.299 15.9882 33.5187 15.9856C33.7385 15.9829 33.9565 16.0255 34.1591 16.1105C35.5202 16.6467 36.9814 16.8813 38.4419 16.7982C38.8773 16.7832 39.3071 16.6953 39.7135 16.5382C39.8883 16.4726 40.0491 16.3746 40.1874 16.2492C40.2978 16.148 40.3819 16.0215 40.4323 15.8806C40.4828 15.7396 40.4982 15.5885 40.4771 15.4402C40.4561 15.292 40.3992 15.1511 40.3115 15.0298C40.2237 14.9085 40.1077 14.8103 39.9736 14.7439C39.4691 14.504 38.9279 14.3507 38.3726 14.2903C37.2166 14.0967 36.026 13.984 34.9047 13.6431C34.0845 13.4376 33.3304 13.0258 32.7142 12.4469C31.8472 11.5801 31.6247 10.4822 31.7518 9.31489C31.9397 7.5553 33.0234 6.47181 34.5753 5.78704C35.8706 5.26063 37.2649 5.02206 38.6615 5.08783C39.8673 5.1049 41.0655 5.28173 42.2248 5.61368C42.4367 5.66881 42.6354 5.76608 42.8089 5.89967C42.9824 6.03326 43.1272 6.20043 43.2346 6.39121C43.342 6.58199 43.4099 6.79247 43.4342 7.01006C43.4585 7.22766 43.4387 7.44791 43.3759 7.65768C43.3132 7.86744 43.2088 8.06241 43.069 8.23095C42.9292 8.39949 42.7569 8.53813 42.5623 8.63861C42.3678 8.73908 42.1549 8.79932 41.9366 8.81573C41.7182 8.83215 41.4987 8.8044 41.2913 8.73414C40.2068 8.36287 39.0603 8.20682 37.916 8.27474C37.3693 8.2824 36.8316 8.41482 36.3439 8.6619C36.1248 8.76135 35.9472 8.93404 35.8417 9.15025C35.7362 9.36647 35.7094 9.61268 35.7659 9.84652C35.8069 9.97856 35.8751 10.1005 35.9662 10.2046C36.0573 10.3086 36.1692 10.3923 36.2947 10.4504C36.8117 10.6991 37.3664 10.8602 37.9362 10.9271C39.0772 11.0769 40.2082 11.295 41.3231 11.5801C42.0951 11.7798 42.8091 12.1589 43.4067 12.6867C44.2737 13.5073 44.5454 14.5532 44.4558 15.7003C44.3199 17.4107 43.2998 18.4913 41.8231 19.1963C40.5969 19.736 39.2702 20.0098 37.9304 19.9995H37.627Z"
    fill="white" />
  <path
    d="M52.9767 19.9996C51.1188 19.9973 49.3376 19.2583 48.0239 17.9448C46.7101 16.6314 45.971 14.8505 45.9688 12.993V6.95722C45.9688 6.49744 46.1514 6.0565 46.4766 5.73139C46.8018 5.40628 47.2428 5.22363 47.7027 5.22363C48.1625 5.22363 48.6036 5.40628 48.9288 5.73139C49.2539 6.0565 49.4366 6.49744 49.4366 6.95722V12.993C49.4231 13.4661 49.5046 13.9371 49.6764 14.3782C49.8481 14.8193 50.1066 15.2214 50.4365 15.5608C50.7665 15.9003 51.1611 16.1701 51.5972 16.3543C52.0333 16.5386 52.5019 16.6335 52.9753 16.6335C53.4487 16.6335 53.9173 16.5386 54.3533 16.3543C54.7894 16.1701 55.1841 15.9003 55.514 15.5608C55.8439 15.2214 56.1024 14.8193 56.2742 14.3782C56.4459 13.9371 56.5275 13.4661 56.5139 12.993V6.95722C56.5139 6.49744 56.6966 6.0565 57.0218 5.73139C57.347 5.40628 57.788 5.22363 58.2479 5.22363C58.7077 5.22363 59.1488 5.40628 59.4739 5.73139C59.7991 6.0565 59.9818 6.49744 59.9818 6.95722V12.993C59.9795 14.85 59.2408 16.6304 57.9277 17.9438C56.6146 19.2572 54.8341 19.9965 52.9767 19.9996Z"
    fill="white" />
</svg>
  