<svg width="55" height="55" viewBox="0 0 55 55" fill="none" xmlns="http://www.w3.org/2000/svg">
<path d="M11.458 40.1527V14.8473C11.458 12.2166 11.458 10.9012 12.0117 10.1212C12.495 9.44038 13.2401 8.99176 14.0679 8.88319C15.0163 8.7588 16.1788 9.37426 18.5039 10.6052L42.4033 23.2578C45.0025 24.6338 46.3021 25.3219 46.727 26.2397C47.0971 27.0391 47.0971 27.9609 46.727 28.7603C46.3021 29.6781 45.0025 30.3661 42.4034 31.7422L42.4033 31.7422L18.5039 44.3948C16.1788 45.6257 15.0163 46.2412 14.0679 46.1168C13.2401 46.0082 12.495 45.5596 12.0117 44.8788C11.458 44.0988 11.458 42.7834 11.458 40.1527Z" fill="#F5F5F5" stroke="#F5F5F5" stroke-width="1.5"/>
</svg>
